<svg width="253" height="253"><g transform="translate(1,20)"><line x1="0" y1="213" x2="251" y2="213" stroke-width="1" stroke="#DDDDDD"></line><line x1="0" y1="159.75" x2="251" y2="159.75" stroke-width="1" stroke="#DDDDDD"></line><line x1="0" y1="106.5" x2="251" y2="106.5" stroke-width="1" stroke="#DDDDDD"></line><line x1="0" y1="53.25" x2="251" y2="53.25" stroke-width="1" stroke="#DDDDDD"></line><line x1="0" y1="0" x2="251" y2="0" stroke-width="1" stroke="#DDDDDD"></line><line x1="0" y1="106.5" x2="251" y2="106.5" stroke-width="1" stroke="#777777"></line><line x1="0" y1="213" x2="251" y2="0" stroke-width="1" stroke="#DDDDDD"></line><line class="timeline" x1="0.5" y1="103.5" x2="0.5" y2="109.5" stroke-width="1" stroke="#777777"></line><line class="timeline" x1="6.5" y1="104.5" x2="6.5" y2="108.5" stroke-width="1" stroke="#777777"></line><line class="timeline" x1="12.5" y1="104.5" x2="12.5" y2="108.5" stroke-width="1" stroke="#777777"></line><line class="timeline" x1="18.5" y1="104.5" x2="18.5" y2="108.5" stroke-width="1" stroke="#777777"></line><line class="timeline" x1="25.5" y1="104.5" x2="25.5" y2="108.5" stroke-width="1" stroke="#777777"></line><line class="timeline" x1="31.5" y1="104.5" x2="31.5" y2="108.5" stroke-width="1" stroke="#777777"></line><line class="timeline" x1="37.5" y1="104.5" x2="37.5" y2="108.5" stroke-width="1" stroke="#777777"></line><line class="timeline" x1="43.5" y1="104.5" x2="43.5" y2="108.5" stroke-width="1" stroke="#777777"></line><line class="timeline" x1="50.5" y1="104.5" x2="50.5" y2="108.5" stroke-width="1" stroke="#777777"></line><line class="timeline" x1="56.5" y1="104.5" x2="56.5" y2="108.5" stroke-width="1" stroke="#777777"></line><line class="timeline" x1="62.5" y1="103.5" x2="62.5" y2="109.5" stroke-width="1" stroke="#777777"></line><line class="timeline" x1="69.5" y1="104.5" x2="69.5" y2="108.5" stroke-width="1" stroke="#777777"></line><line class="timeline" x1="75.5" y1="104.5" x2="75.5" y2="108.5" stroke-width="1" stroke="#777777"></line><line class="timeline" x1="81.5" y1="104.5" x2="81.5" y2="108.5" stroke-width="1" stroke="#777777"></line><line class="timeline" x1="87.5" y1="104.5" x2="87.5" y2="108.5" stroke-width="1" stroke="#777777"></line><line class="timeline" x1="94.5" y1="104.5" x2="94.5" y2="108.5" stroke-width="1" stroke="#777777"></line><line class="timeline" x1="100.5" y1="104.5" x2="100.5" y2="108.5" stroke-width="1" stroke="#777777"></line><line class="timeline" x1="106.5" y1="104.5" x2="106.5" y2="108.5" stroke-width="1" stroke="#777777"></line><line class="timeline" x1="112.5" y1="104.5" x2="112.5" y2="108.5" stroke-width="1" stroke="#777777"></line><line class="timeline" x1="119.5" y1="104.5" x2="119.5" y2="108.5" stroke-width="1" stroke="#777777"></line><line class="timeline" x1="125.5" y1="103.5" x2="125.5" y2="109.5" stroke-width="1" stroke="#777777"></line><line class="timeline" x1="131.5" y1="104.5" x2="131.5" y2="108.5" stroke-width="1" stroke="#777777"></line><line class="timeline" x1="138.5" y1="104.5" x2="138.5" y2="108.5" stroke-width="1" stroke="#777777"></line><line class="timeline" x1="144.5" y1="104.5" x2="144.5" y2="108.5" stroke-width="1" stroke="#777777"></line><line class="timeline" x1="150.5" y1="104.5" x2="150.5" y2="108.5" stroke-width="1" stroke="#777777"></line><line class="timeline" x1="156.5" y1="104.5" x2="156.5" y2="108.5" stroke-width="1" stroke="#777777"></line><line class="timeline" x1="163.5" y1="104.5" x2="163.5" y2="108.5" stroke-width="1" stroke="#777777"></line><line class="timeline" x1="169.5" y1="104.5" x2="169.5" y2="108.5" stroke-width="1" stroke="#777777"></line><line class="timeline" x1="175.5" y1="104.5" x2="175.5" y2="108.5" stroke-width="1" stroke="#777777"></line><line class="timeline" x1="181.5" y1="104.5" x2="181.5" y2="108.5" stroke-width="1" stroke="#777777"></line><line class="timeline" x1="188.5" y1="103.5" x2="188.5" y2="109.5" stroke-width="1" stroke="#777777"></line><line class="timeline" x1="194.5" y1="104.5" x2="194.5" y2="108.5" stroke-width="1" stroke="#777777"></line><line class="timeline" x1="200.5" y1="104.5" x2="200.5" y2="108.5" stroke-width="1" stroke="#777777"></line><line class="timeline" x1="207.5" y1="104.5" x2="207.5" y2="108.5" stroke-width="1" stroke="#777777"></line><line class="timeline" x1="213.5" y1="104.5" x2="213.5" y2="108.5" stroke-width="1" stroke="#777777"></line><line class="timeline" x1="219.5" y1="104.5" x2="219.5" y2="108.5" stroke-width="1" stroke="#777777"></line><line class="timeline" x1="225.5" y1="104.5" x2="225.5" y2="108.5" stroke-width="1" stroke="#777777"></line><line class="timeline" x1="232.5" y1="104.5" x2="232.5" y2="108.5" stroke-width="1" stroke="#777777"></line><line class="timeline" x1="238.5" y1="104.5" x2="238.5" y2="108.5" stroke-width="1" stroke="#777777"></line><line class="timeline" x1="244.5" y1="104.5" x2="244.5" y2="108.5" stroke-width="1" stroke="#777777"></line><line class="timeline" x1="251.5" y1="103.5" x2="251.5" y2="109.5" stroke-width="1" stroke="#777777"></line></g><g transform="translate(1,20)"><path fill="transparent" stroke="#49e2a3" stroke-width="4" opacity="1" d="M0,113.6L0.8366666666666667,113.63169642857144L1.6733333333333333,113.66367713004485L2.51,113.69594594594594L3.3466666666666667,113.72850678733032L4.183333333333334,113.76136363636364L5.02,113.79452054794521L5.8566666666666665,113.82798165137616L6.693333333333333,113.86175115207374L7.53,113.89583333333334L8.366666666666667,113.93023255813955L9.203333333333333,113.96495327102805L10.04,114.00000000000001L10.876666666666667,114.03537735849056L11.713333333333333,114.07109004739337L12.55,114.10714285714286L13.386666666666667,114.14354066985646L14.223333333333333,114.18028846153847L15.06,114.21739130434784L15.896666666666667,114.25485436893204L16.733333333333334,114.29268292682927L17.57,114.33088235294119L18.406666666666666,114.36945812807882L19.243333333333332,114.40841584158416L20.08,114.44776119402985L20.916666666666668,114.48750000000001L21.753333333333334,114.52763819095478L22.59,114.56818181818183L23.426666666666666,114.60913705583758L24.263333333333332,114.65051020408164L25.1,114.6923076923077L25.936666666666667,114.73453608247424L26.773333333333333,114.77720207253887L27.61,114.8203125L28.446666666666665,114.86387434554975L29.283333333333335,114.90789473684211L30.12,114.95238095238096L30.956666666666667,114.99734042553193L31.793333333333333,115.0427807486631L32.63,115.08870967741937L33.46666666666667,115.13513513513514L34.303333333333335,115.18206521739131L35.14,115.22950819672133L35.97666666666667,115.27747252747254L36.81333333333333,115.32596685082875L37.65,115.37500000000001L38.486666666666665,115.4245810055866L39.32333333333333,115.47471910112361L40.16,115.52542372881356L40.99666666666667,115.57670454545456L41.833333333333336,115.62857142857145L42.67,115.68103448275863L43.50666666666667,115.73410404624279L44.343333333333334,115.78779069767442L45.18,115.8421052631579L46.016666666666666,115.89705882352942L46.85333333333333,115.95266272189349L47.69,116.00892857142858L48.526666666666664,116.06586826347306L49.36333333333334,116.12349397590361L50.2,116.1818181818182L51.03666666666667,116.2408536585366L51.873333333333335,116.30061349693253L52.71,116.36111111111111L53.54666666666667,116.4223602484472L54.38333333333333,116.48437500000001L55.22,116.54716981132077L56.056666666666665,116.6107594936709L56.89333333333333,116.6751592356688L57.73,116.74038461538463L58.56666666666667,116.80645161290325L59.403333333333336,116.87337662337663L60.24,116.94117647058825L61.07666666666667,117.00986842105264L61.913333333333334,117.07947019867551L62.75,117.15L63.586666666666666,117.22147651006712L64.42333333333333,117.29391891891893L65.26,117.36734693877553L66.09666666666666,117.44178082191782L66.93333333333334,117.51724137931035L67.77,117.59375000000001L68.60666666666667,117.67132867132868L69.44333333333333,117.75000000000001L70.28,117.82978723404256L71.11666666666666,117.91071428571429L71.95333333333333,117.9928057553957L72.79,118.07608695652175L73.62666666666667,118.16058394160585L74.46333333333334,118.24632352941177L75.3,118.33333333333334L76.13666666666667,118.42164179104479L76.97333333333333,118.51127819548874L77.81,118.60227272727273L78.64666666666666,118.69465648854963L79.48333333333333,118.78846153846155L80.32,118.88372093023257L81.15666666666667,118.98046875000001L81.99333333333334,119.07874015748033L82.83,119.17857142857144L83.66666666666667,119.28000000000002L84.50333333333333,119.38306451612904L85.34,119.48780487804879L86.17666666666666,119.59426229508198L87.01333333333334,119.70247933884299L87.85,119.81250000000001L88.68666666666667,119.92436974789918L89.52333333333334,120.03813559322035L90.36,120.15384615384616L91.19666666666667,120.27155172413794L92.03333333333333,120.39130434782611L92.87,120.51315789473685L93.70666666666666,120.63716814159294L94.54333333333334,120.76339285714286L95.38,120.8918918918919L96.21666666666667,121.02272727272728L97.05333333333333,121.15596330275231L97.89,121.29166666666669L98.72666666666667,121.42990654205609L99.56333333333333,121.57075471698114L100.4,121.71428571428574L101.23666666666666,121.86057692307693L102.07333333333334,122.00970873786409L102.91,122.16176470588236L103.74666666666667,122.31683168316833L104.58333333333333,122.47500000000001L105.42,122.63636363636364L106.25666666666666,122.80102040816328L107.09333333333333,122.96907216494847L107.93,123.14062500000001L108.76666666666667,123.31578947368423L109.60333333333334,123.49468085106385L110.44,123.67741935483873L111.27666666666667,123.86413043478262L112.11333333333333,124.05494505494508L112.95,124.25000000000001L113.78666666666666,124.44943820224721L114.62333333333333,124.65340909090911L115.46,124.86206896551725L116.29666666666667,125.07558139534885L117.13333333333334,125.29411764705885L117.97,125.51785714285717L118.80666666666667,125.74698795180724L119.64333333333333,125.98170731707319L120.48,126.22222222222224L121.31666666666666,126.46875000000003L122.15333333333334,126.7215189873418L122.99,126.98076923076925L123.82666666666667,127.24675324675327L124.66333333333333,127.51973684210527L125.5,127.80000000000003L126.33666666666667,127.51973684210527L127.17333333333333,127.24675324675327L128.01,126.98076923076925L128.84666666666666,126.7215189873418L129.68333333333334,126.46875000000003L130.52,126.22222222222224L131.35666666666665,125.98170731707319L132.19333333333333,125.74698795180726L133.03,125.51785714285717L133.86666666666667,125.29411764705885L134.70333333333335,125.07558139534886L135.54,124.86206896551725L136.37666666666667,124.65340909090911L137.21333333333334,124.44943820224721L138.05,124.25000000000001L138.88666666666666,124.05494505494508L139.72333333333333,123.86413043478262L140.56,123.67741935483872L141.39666666666668,123.49468085106385L142.23333333333332,123.31578947368423L143.07,123.14062500000001L143.90666666666667,122.96907216494847L144.74333333333334,122.80102040816328L145.58,122.63636363636365L146.41666666666666,122.47500000000001L147.25333333333333,122.31683168316833L148.09,122.16176470588236L148.92666666666668,122.00970873786409L149.76333333333332,121.86057692307693L150.6,121.71428571428574L151.43666666666667,121.57075471698114L152.27333333333334,121.42990654205609L153.11,121.29166666666669L153.94666666666666,121.15596330275231L154.78333333333333,121.02272727272728L155.62,120.8918918918919L156.45666666666668,120.76339285714286L157.29333333333332,120.63716814159294L158.13,120.51315789473685L158.96666666666667,120.39130434782611L159.80333333333334,120.27155172413794L160.64,120.15384615384616L161.47666666666666,120.03813559322035L162.31333333333333,119.92436974789918L163.15,119.81250000000001L163.98666666666668,119.70247933884299L164.82333333333332,119.59426229508198L165.66,119.48780487804879L166.49666666666667,119.38306451612904L167.33333333333334,119.28000000000002L168.17,119.17857142857144L169.00666666666666,119.07874015748033L169.84333333333333,118.98046875000001L170.68,118.88372093023257L171.51666666666668,118.78846153846155L172.35333333333332,118.69465648854963L173.19,118.60227272727273L174.02666666666667,118.51127819548874L174.86333333333334,118.42164179104479L175.7,118.33333333333334L176.53666666666666,118.24632352941177L177.37333333333333,118.16058394160585L178.21,118.07608695652175L179.04666666666668,117.9928057553957L179.88333333333333,117.91071428571429L180.72,117.82978723404256L181.55666666666667,117.75000000000001L182.39333333333335,117.67132867132868L183.23,117.59375000000001L184.06666666666666,117.51724137931035L184.90333333333334,117.44178082191782L185.74,117.36734693877553L186.57666666666665,117.29391891891893L187.41333333333333,117.22147651006712L188.25,117.15L189.08666666666667,117.07947019867551L189.92333333333335,117.00986842105264L190.76,116.94117647058825L191.59666666666666,116.87337662337663L192.43333333333334,116.80645161290325L193.27,116.74038461538463L194.10666666666665,116.6751592356688L194.94333333333333,116.6107594936709L195.78,116.54716981132077L196.61666666666667,116.48437500000001L197.45333333333335,116.4223602484472L198.29,116.36111111111111L199.12666666666667,116.30061349693253L199.96333333333334,116.2408536585366L200.8,116.1818181818182L201.63666666666666,116.12349397590361L202.47333333333333,116.06586826347306L203.31,116.00892857142858L204.14666666666668,115.95266272189349L204.98333333333332,115.89705882352942L205.82,115.8421052631579L206.65666666666667,115.78779069767442L207.49333333333334,115.73410404624279L208.33,115.68103448275863L209.16666666666666,115.62857142857145L210.00333333333333,115.57670454545456L210.84,115.52542372881356L211.67666666666668,115.47471910112361L212.51333333333332,115.4245810055866L213.35,115.37500000000001L214.18666666666667,115.32596685082875L215.02333333333334,115.27747252747254L215.86,115.22950819672133L216.69666666666666,115.18206521739131L217.53333333333333,115.13513513513514L218.37,115.08870967741937L219.20666666666668,115.0427807486631L220.04333333333332,114.99734042553193L220.88,114.95238095238096L221.71666666666667,114.90789473684211L222.55333333333334,114.86387434554975L223.39000000000001,114.8203125L224.22666666666666,114.77720207253887L225.06333333333333,114.73453608247424L225.9,114.6923076923077L226.73666666666668,114.65051020408164L227.57333333333332,114.60913705583758L228.41,114.56818181818183L229.24666666666667,114.52763819095478L230.08333333333334,114.48750000000001L230.92,114.44776119402985L231.75666666666666,114.40841584158416L232.59333333333333,114.36945812807882L233.43,114.33088235294119L234.26666666666668,114.29268292682927L235.10333333333332,114.25485436893204L235.94,114.21739130434784L236.77666666666667,114.18028846153847L237.61333333333334,114.14354066985646L238.45,114.10714285714286L239.28666666666666,114.07109004739337L240.12333333333333,114.03537735849056L240.96,114.00000000000001L241.79666666666668,113.96495327102805L242.63333333333333,113.93023255813955L243.47,113.89583333333334L244.30666666666667,113.86175115207374L245.14333333333335,113.82798165137616L245.98,113.79452054794521L246.81666666666666,113.76136363636364L247.65333333333334,113.72850678733032L248.49,113.69594594594594L249.32666666666665,113.66367713004485L250.16333333333333,113.63169642857144"></path><path fill="transparent" stroke="#49e2a3" stroke-width="4" opacity="0.2" d="M0,205.9L0.8366666666666667,205.15830357142858L1.6733333333333333,204.41632286995514L2.51,203.67405405405407L3.3466666666666667,202.9314932126697L4.183333333333334,202.18863636363636L5.02,201.4454794520548L5.8566666666666665,200.70201834862385L6.693333333333333,199.95824884792626L7.53,199.21416666666664L8.366666666666667,198.46976744186045L9.203333333333333,197.72504672897196L10.04,196.98000000000002L10.876666666666667,196.23462264150942L11.713333333333333,195.48890995260663L12.55,194.74285714285713L13.386666666666667,193.99645933014352L14.223333333333333,193.24971153846153L15.06,192.50260869565216L15.896666666666667,191.75514563106793L16.733333333333334,191.00731707317073L17.57,190.25911764705882L18.406666666666666,189.51054187192116L19.243333333333332,188.76158415841584L20.08,188.01223880597013L20.916666666666668,187.2625L21.753333333333334,186.51236180904522L22.59,185.76181818181817L23.426666666666666,185.01086294416243L24.263333333333332,184.25948979591834L25.1,183.5076923076923L25.936666666666667,182.75546391752576L26.773333333333333,182.00279792746113L27.61,181.2496875L28.446666666666665,180.49612565445025L29.283333333333335,179.7421052631579L30.12,178.98761904761903L30.956666666666667,178.23265957446807L31.793333333333333,177.47721925133686L32.63,176.72129032258061L33.46666666666667,175.96486486486486L34.303333333333335,175.20793478260867L35.14,174.45049180327868L35.97666666666667,173.69252747252744L36.81333333333333,172.93403314917128L37.65,172.17499999999998L38.486666666666665,171.41541899441341L39.32333333333333,170.65528089887638L40.16,169.89457627118642L40.99666666666667,169.13329545454545L41.833333333333336,168.37142857142857L42.67,167.60896551724136L43.50666666666667,166.8458959537572L44.343333333333334,166.08220930232557L45.18,165.3178947368421L46.016666666666666,164.55294117647057L46.85333333333333,163.78733727810652L47.69,163.02107142857142L48.526666666666664,162.25413173652692L49.36333333333334,161.4865060240964L50.2,160.71818181818182L51.03666666666667,159.9491463414634L51.873333333333335,159.17938650306746L52.71,158.4088888888889L53.54666666666667,157.6376397515528L54.38333333333333,156.865625L55.22,156.09283018867924L56.056666666666665,155.3192405063291L56.89333333333333,154.54484076433118L57.73,153.76961538461538L58.56666666666667,152.99354838709678L59.403333333333336,152.21662337662337L60.24,151.43882352941176L61.07666666666667,150.66013157894736L61.913333333333334,149.88052980132449L62.75,149.1L63.586666666666666,148.3185234899329L64.42333333333333,147.53608108108108L65.26,146.75265306122446L66.09666666666666,145.9682191780822L66.93333333333334,145.18275862068964L67.77,144.39625L68.60666666666667,143.60867132867133L69.44333333333333,142.82L70.28,142.03021276595743L71.11666666666666,141.2392857142857L71.95333333333333,140.4471942446043L72.79,139.65391304347827L73.62666666666667,138.85941605839415L74.46333333333334,138.06367647058823L75.3,137.26666666666665L76.13666666666667,136.4683582089552L76.97333333333333,135.66872180451128L77.81,134.86772727272728L78.64666666666666,134.06534351145035L79.48333333333333,133.26153846153846L80.32,132.45627906976745L81.15666666666667,131.64953125L81.99333333333334,130.84125984251966L82.83,130.03142857142853L83.66666666666667,129.22L84.50333333333333,128.40693548387094L85.34,127.5921951219512L86.17666666666666,126.77573770491801L87.01333333333334,125.957520661157L87.85,125.13749999999999L88.68666666666667,124.31563025210083L89.52333333333334,123.49186440677964L90.36,122.66615384615383L91.19666666666667,121.83844827586206L92.03333333333333,121.0086956521739L92.87,120.17684210526315L93.70666666666666,119.34283185840707L94.54333333333334,118.50660714285713L95.38,117.6681081081081L96.21666666666667,116.82727272727271L97.05333333333333,115.98403669724769L97.89,115.1383333333333L98.72666666666667,114.29009345794391L99.56333333333333,113.43924528301886L100.4,112.58571428571426L101.23666666666666,111.72942307692307L102.07333333333334,110.87029126213591L102.91,110.00823529411764L103.74666666666667,109.14316831683168L104.58333333333333,108.27499999999998L105.42,107.40363636363635L106.25666666666666,106.52897959183672L107.09333333333333,105.65092783505153L107.93,104.769375L108.76666666666667,103.88421052631578L109.60333333333334,102.99531914893616L110.44,102.10258064516127L111.27666666666667,101.20586956521738L112.11333333333333,100.30505494505493L112.95,99.39999999999998L113.78666666666666,98.4905617977528L114.62333333333333,97.5765909090909L115.46,96.65793103448273L116.29666666666667,95.73441860465114L117.13333333333334,94.80588235294115L117.97,93.87214285714283L118.80666666666667,92.93301204819275L119.64333333333333,91.98829268292681L120.48,91.03777777777776L121.31666666666666,90.08124999999998L122.15333333333334,89.11848101265818L122.99,88.14923076923075L123.82666666666667,87.17324675324672L124.66333333333333,86.19026315789472L125.5,85.19999999999997L126.33666666666667,84.77026315789473L127.17333333333333,84.33324675324673L128.01,83.88923076923075L128.84666666666666,83.4384810126582L129.68333333333334,82.98124999999996L130.52,82.51777777777775L131.35666666666665,82.04829268292681L132.19333333333333,81.57301204819277L133.03,81.09214285714282L133.86666666666667,80.60588235294114L134.70333333333335,80.11441860465115L135.54,79.61793103448275L136.37666666666667,79.11659090909089L137.21333333333334,78.61056179775281L138.05,78.1L138.88666666666666,77.58505494505494L139.72333333333333,77.06586956521738L140.56,76.54258064516128L141.39666666666668,76.01531914893616L142.23333333333332,75.48421052631579L143.07,74.94937499999997L143.90666666666667,74.41092783505152L144.74333333333334,73.8689795918367L145.58,73.32363636363635L146.41666666666666,72.77499999999998L147.25333333333333,72.22316831683167L148.09,71.66823529411764L148.92666666666668,71.11029126213589L149.76333333333332,70.54942307692306L150.6,69.98571428571427L151.43666666666667,69.41924528301885L152.27333333333334,68.8500934579439L153.11,68.27833333333331L153.94666666666666,67.70403669724769L154.78333333333333,67.1272727272727L155.62,66.5481081081081L156.45666666666668,65.96660714285713L157.29333333333332,65.38283185840709L158.13,64.79684210526315L158.96666666666667,64.2086956521739L159.80333333333334,63.61844827586205L160.64,63.02615384615382L161.47666666666666,62.43186440677965L162.31333333333333,61.83563025210083L163.15,61.23749999999998L163.98666666666668,60.637520661157L164.82333333333332,60.035737704918034L165.66,59.432195121951196L166.49666666666667,58.826935483870955L167.33333333333334,58.22L168.17,57.61142857142855L169.00666666666666,57.00125984251966L169.84333333333333,56.389531249999976L170.68,55.77627906976744L171.51666666666668,55.16153846153844L172.35333333333332,54.54534351145037L173.19,53.92772727272728L174.02666666666667,53.308721804511265L174.86333333333334,52.688358208955236L175.7,52.06666666666666L176.53666666666666,51.44367647058823L177.37333333333333,50.819416058394154L178.21,50.19391304347826L179.04666666666668,49.56719424460428L179.88333333333333,48.93928571428572L180.72,48.31021276595746L181.55666666666667,47.67999999999998L182.39333333333335,47.048671328671304L183.23,46.41624999999999L184.06666666666666,45.782758620689634L184.90333333333334,45.1482191780822L185.74,44.51265306122448L186.57666666666665,43.87608108108108L187.41333333333333,43.238523489932874L188.25,42.599999999999994L189.08666666666667,41.9605298013245L189.92333333333335,41.320131578947354L190.76,40.678823529411744L191.59666666666666,40.03662337662337L192.43333333333334,39.39354838709676L193.27,38.74961538461537L194.10666666666665,38.104840764331215L194.94333333333333,37.45924050632911L195.78,36.812830188679214L196.61666666666667,36.16562499999998L197.45333333333335,35.51763975155279L198.29,34.868888888888875L199.12666666666667,34.21938650306748L199.96333333333334,33.56914634146341L200.8,32.91818181818181L201.63666666666666,32.26650602409637L202.47333333333333,31.61413173652693L203.31,30.961071428571415L204.14666666666668,30.307337278106502L204.98333333333332,29.65294117647059L205.82,28.997894736842113L206.65666666666667,28.342209302325585L207.49333333333334,27.68589595375721L208.33,27.028965517241375L209.16666666666666,26.371428571428538L210.00333333333333,25.71329545454543L210.84,25.05457627118645L211.67666666666668,24.395280898876393L212.51333333333332,23.735418994413408L213.35,23.07499999999999L214.18666666666667,22.414033149171246L215.02333333333334,21.752527472527447L215.86,21.090491803278695L216.69666666666666,20.427934782608702L217.53333333333333,19.764864864864848L218.37,19.10129032258064L219.20666666666668,18.4372192513369L220.04333333333332,17.772659574468065L220.88,17.10761904761904L221.71666666666667,16.442105263157885L222.55333333333334,15.776125654450226L223.39000000000001,15.109687500000007L224.22666666666666,14.442797927461129L225.06333333333333,13.775463917525798L225.9,13.107692307692304L226.73666666666668,12.439489795918348L227.57333333333332,11.770862944162445L228.41,11.101818181818146L229.24666666666667,10.432361809045233L230.08333333333334,9.762500000000017L230.92,9.09223880597014L231.75666666666666,8.42158415841584L232.59333333333333,7.7505418719212L233.43,7.079117647058808L234.26666666666668,6.407317073170731L235.10333333333332,5.735145631067979L235.94,5.062608695652187L236.77666666666667,4.38971153846154L237.61333333333334,3.7164593301435502L238.45,3.0428571428571445L239.28666666666666,2.3689099526066L240.12333333333333,1.6946226415094543L240.96,1.0199999999999818L241.79666666666668,0.345046728971937L242.63333333333333,-0.33023255813958485L243.47,-1.0058333333333564L244.30666666666667,-1.6817511520737582L245.14333333333335,-2.3579816513761784L245.98,-3.034520547945192L246.81666666666666,-3.7113636363636147L247.65333333333334,-4.3885067873303285L248.49,-5.065945945945941L249.32666666666665,-5.743677130044858L250.16333333333333,-6.421696428571437"></path><line class="v-line" x1="106.675" y1="0" x2="106.675" y2="213" stroke-width="1" stroke="#777777" style="stroke-dasharray: 1, 3;"></line></g><g transform="translate(1,20)"><text class="small" x="0" y="207">-2</text><text class="small" x="0" y="153.75">-1</text><text class="small" x="0" y="100.5">0</text><text class="small" x="0" y="47.25">1</text><text class="small" x="0" y="-6">2</text><text class="small timeline" x="0.5" y="121.5" text-anchor="start">-2</text><text class="small timeline" x="62.5" y="121.5" text-anchor="start">-1</text><text class="small timeline" x="125.5" y="121.5" text-anchor="start">0</text><text class="small timeline" x="188.5" y="121.5" text-anchor="start">1</text><text class="small timeline" x="251.5" y="121.5" text-anchor="end">2</text></g></svg>