<svg width="253" height="253"><g transform="translate(1,20)"><line x1="125.5" y1="0" x2="125.5" y2="213" stroke-width="1" stroke="#777777"></line><line x1="0" y1="213" x2="251" y2="213" stroke-width="1" stroke="#DDDDDD"></line><line x1="0" y1="159.75" x2="251" y2="159.75" stroke-width="1" stroke="#DDDDDD"></line><line x1="0" y1="106.5" x2="251" y2="106.5" stroke-width="1" stroke="#DDDDDD"></line><line x1="0" y1="53.25" x2="251" y2="53.25" stroke-width="1" stroke="#DDDDDD"></line><line x1="0" y1="0" x2="251" y2="0" stroke-width="1" stroke="#DDDDDD"></line><line x1="0" y1="106.5" x2="251" y2="106.5" stroke-width="1" stroke="#777777"></line><line x1="0" y1="213" x2="251" y2="0" stroke-width="1" stroke="#DDDDDD"></line><line class="timeline" x1="0.5" y1="103.5" x2="0.5" y2="109.5" stroke-width="1" stroke="#777777"></line><line class="timeline" x1="6.5" y1="104.5" x2="6.5" y2="108.5" stroke-width="1" stroke="#777777"></line><line class="timeline" x1="12.5" y1="104.5" x2="12.5" y2="108.5" stroke-width="1" stroke="#777777"></line><line class="timeline" x1="18.5" y1="104.5" x2="18.5" y2="108.5" stroke-width="1" stroke="#777777"></line><line class="timeline" x1="25.5" y1="104.5" x2="25.5" y2="108.5" stroke-width="1" stroke="#777777"></line><line class="timeline" x1="31.5" y1="104.5" x2="31.5" y2="108.5" stroke-width="1" stroke="#777777"></line><line class="timeline" x1="37.5" y1="104.5" x2="37.5" y2="108.5" stroke-width="1" stroke="#777777"></line><line class="timeline" x1="43.5" y1="104.5" x2="43.5" y2="108.5" stroke-width="1" stroke="#777777"></line><line class="timeline" x1="50.5" y1="104.5" x2="50.5" y2="108.5" stroke-width="1" stroke="#777777"></line><line class="timeline" x1="56.5" y1="104.5" x2="56.5" y2="108.5" stroke-width="1" stroke="#777777"></line><line class="timeline" x1="62.5" y1="103.5" x2="62.5" y2="109.5" stroke-width="1" stroke="#777777"></line><line class="timeline" x1="69.5" y1="104.5" x2="69.5" y2="108.5" stroke-width="1" stroke="#777777"></line><line class="timeline" x1="75.5" y1="104.5" x2="75.5" y2="108.5" stroke-width="1" stroke="#777777"></line><line class="timeline" x1="81.5" y1="104.5" x2="81.5" y2="108.5" stroke-width="1" stroke="#777777"></line><line class="timeline" x1="87.5" y1="104.5" x2="87.5" y2="108.5" stroke-width="1" stroke="#777777"></line><line class="timeline" x1="94.5" y1="104.5" x2="94.5" y2="108.5" stroke-width="1" stroke="#777777"></line><line class="timeline" x1="100.5" y1="104.5" x2="100.5" y2="108.5" stroke-width="1" stroke="#777777"></line><line class="timeline" x1="106.5" y1="104.5" x2="106.5" y2="108.5" stroke-width="1" stroke="#777777"></line><line class="timeline" x1="112.5" y1="104.5" x2="112.5" y2="108.5" stroke-width="1" stroke="#777777"></line><line class="timeline" x1="119.5" y1="104.5" x2="119.5" y2="108.5" stroke-width="1" stroke="#777777"></line><line class="timeline" x1="125.5" y1="103.5" x2="125.5" y2="109.5" stroke-width="1" stroke="#777777"></line><line class="timeline" x1="131.5" y1="104.5" x2="131.5" y2="108.5" stroke-width="1" stroke="#777777"></line><line class="timeline" x1="138.5" y1="104.5" x2="138.5" y2="108.5" stroke-width="1" stroke="#777777"></line><line class="timeline" x1="144.5" y1="104.5" x2="144.5" y2="108.5" stroke-width="1" stroke="#777777"></line><line class="timeline" x1="150.5" y1="104.5" x2="150.5" y2="108.5" stroke-width="1" stroke="#777777"></line><line class="timeline" x1="156.5" y1="104.5" x2="156.5" y2="108.5" stroke-width="1" stroke="#777777"></line><line class="timeline" x1="163.5" y1="104.5" x2="163.5" y2="108.5" stroke-width="1" stroke="#777777"></line><line class="timeline" x1="169.5" y1="104.5" x2="169.5" y2="108.5" stroke-width="1" stroke="#777777"></line><line class="timeline" x1="175.5" y1="104.5" x2="175.5" y2="108.5" stroke-width="1" stroke="#777777"></line><line class="timeline" x1="181.5" y1="104.5" x2="181.5" y2="108.5" stroke-width="1" stroke="#777777"></line><line class="timeline" x1="188.5" y1="103.5" x2="188.5" y2="109.5" stroke-width="1" stroke="#777777"></line><line class="timeline" x1="194.5" y1="104.5" x2="194.5" y2="108.5" stroke-width="1" stroke="#777777"></line><line class="timeline" x1="200.5" y1="104.5" x2="200.5" y2="108.5" stroke-width="1" stroke="#777777"></line><line class="timeline" x1="207.5" y1="104.5" x2="207.5" y2="108.5" stroke-width="1" stroke="#777777"></line><line class="timeline" x1="213.5" y1="104.5" x2="213.5" y2="108.5" stroke-width="1" stroke="#777777"></line><line class="timeline" x1="219.5" y1="104.5" x2="219.5" y2="108.5" stroke-width="1" stroke="#777777"></line><line class="timeline" x1="225.5" y1="104.5" x2="225.5" y2="108.5" stroke-width="1" stroke="#777777"></line><line class="timeline" x1="232.5" y1="104.5" x2="232.5" y2="108.5" stroke-width="1" stroke="#777777"></line><line class="timeline" x1="238.5" y1="104.5" x2="238.5" y2="108.5" stroke-width="1" stroke="#777777"></line><line class="timeline" x1="244.5" y1="104.5" x2="244.5" y2="108.5" stroke-width="1" stroke="#777777"></line><line class="timeline" x1="251.5" y1="103.5" x2="251.5" y2="109.5" stroke-width="1" stroke="#777777"></line></g><g transform="translate(1,20)"><path fill="transparent" stroke="#49e2a3" stroke-width="4" opacity="1" d="M0,78.41174811394731L0.502,78.36190937611536L1.004,78.31198898351926L1.506,78.2619883299609L2.008,78.21190885464384L2.51,78.16175204335062L3.012,78.11151942965219L3.5140000000000002,78.06121259614991L4.016,78.01083317575106L4.518,77.96038285297928L5.02,77.9098633653206L5.522,77.85927650460599L6.024,77.80862411843214L6.526,77.75790811162094L7.0280000000000005,77.7071304477193L7.53,77.65629315053997L8.032,77.6053983057455L8.534,77.55444806247567L9.036,77.50344463502037L9.538,77.45239030453902L10.04,77.40128742082791L10.542,77.35013840413751L11.044,77.29894574704016L11.546,77.24771201635093L12.048,77.19643985510237L12.55,77.1451319845755L13.052,77.09379120638818L13.554,77.04242040464311L14.056000000000001,76.99102254813732L14.558,76.93960069263457L15.06,76.88815798320337L15.562,76.83669765662228L16.064,76.78522304385447L16.566,76.73373757259446L17.068,76.68224476988831L17.57,76.63074826483054L18.072,76.57925179133994L18.574,76.52775919101654L19.076,76.47627441608282L19.578,76.42480153241146L20.08,76.37334472264314L20.582,76.32190828939633L21.084,76.27049665857328L21.586,76.21911438276413L22.088,76.16776614475364L22.59,76.11645676113292L23.092,76.06519118602048L23.594,76.01397451489558L24.096,75.96281198854805L24.598,75.91170899714851L25.1,75.86067108444303L25.602,75.80970395207612L26.104,75.75881346404725L26.606,75.70800565130435L27.108,75.6572867164802L27.61,75.60666303877562L28.112000000000002,75.55614117899523L28.614,75.50572788474076L29.116,75.45543009576747L29.618,75.40525494950964L30.12,75.35520978678053L30.622,75.30530215765361L31.124,75.25553982753118L31.626,75.20593078340676L32.128,75.15648324032912L32.63,75.10720564807403L33.132,75.05810669803193L33.634,75.00919533031941L34.136,74.96048074112204L34.638,74.9119723902777L35.14,74.86368000910878L35.642,74.81561360851245L36.144,74.76778348731878L36.646,74.72020024092637L37.148,74.67287477022617L37.65,74.62581829082393L38.152,74.57904234257268L38.654,74.53255879942714L39.156,74.48637987963184L39.658,74.44051815625625L40.16,74.3949865680894L40.662,74.34979843090895L41.164,74.30496744913802L41.666,74.26050772790538L42.168,74.21643378552506L42.67,74.17276056641109L43.172,74.12950345444486L43.674,74.0866782868132L44.176,74.04430136833545L44.678,74.00238948629931L45.18,73.96095992582568L45.682,73.92003048578422L46.184,73.87961949528128L46.686,73.83974583074394L47.188,73.80042893362466L47.69,73.76168882875132L48.192,73.72354614335012L48.694,73.68602212676885L49.196,73.64913867092969L49.698,73.61291833154218L50.2,73.57738435010853L50.702,73.54256067675468L51.204,73.50847199392192L51.706,73.47514374095672L52.208,73.44260213963662L52.71,73.41087422067281L53.212,73.3799878512321L53.714,73.34997176352266L54.216,73.32085558449003L54.718,73.2926698666729L55.22,73.26544612026962L55.722,73.23921684647013L56.224000000000004,73.21401557210928L56.726,73.18987688570198L57.228,73.16683647492243L57.73,73.14493116559368L58.232,73.12419896225634L58.734,73.10467909039005L59.236,73.08641204036388L59.738,73.06943961319669L60.24,73.05380496821266L60.742,73.03955267268091L61.244,73.02672875353454L61.746,73.01538075126749L62.248,73.0055577761149L62.75,72.99731056662702L63.252,72.99069155075321L63.754,72.98575490955963L64.256,72.98255664370978L64.758,72.9811546428455L65.26,72.98160875801324L65.762,72.9839808772883L66.264,72.98833500475939L66.766,72.99473734304402L67.268,73.00325637951642L67.77,73.01396297643834L68.272,73.02693046519701L68.774,73.04223474486335L69.276,73.05995438529897L69.778,73.0801707350528L70.28,73.10296803430217L70.782,73.12843353311067L71.284,73.15665761528928L71.786,73.18773392816684L72.288,73.22175951859364L72.79,73.25883497552323L73.292,73.29906457953777L73.794,73.34255645970762L74.296,73.38942275819795L74.798,73.43977980306468L75.3,73.49374828970852L75.802,73.55145347148738L76.304,73.61302536002097L76.806,73.6785989357553L77.308,73.7483143693945L77.81,73.82231725484695L78.312,73.90075885437784L78.81400000000001,73.98379635670668L79.316,74.07159314884021L79.818,74.16431910248585L80.32,74.26215087595014L80.822,74.36527223249092L81.324,74.47387437616149L81.826,74.58815630625892L82.328,74.70832519157139L82.83,74.83459676570456L83.332,74.96719574486443L83.834,75.10635626957526L84.336,75.2523223719229L84.838,75.40534847003579L85.34,75.56569989164612L85.842,75.73365342871722L86.344,75.9094979252784L86.846,76.09353490077788L87.348,76.28607921144817L87.85,76.48745975237952L88.352,76.69802020321669L88.854,76.91811982063254L89.356,77.1481342809951L89.858,77.38845657693011L90.36,77.63949797179478L90.862,77.90168901642247L91.364,78.17548063287438L91.866,78.46134527034891L92.368,78.75977813885422L92.87,79.0712985267489L93.372,79.39645120880968L93.874,79.73580795208954L94.376,80.08996912750331L94.878,80.45956543581724L95.38,80.84525975753988L95.882,81.24774913711798L96.384,81.66776691284988L96.886,82.10608500504281L97.388,82.56351637618445L97.89,83.04091767827933L98.392,83.53919210403816L98.894,84.05929246032736L99.396,84.60222448420038L99.898,85.16905042397937L100.4,85.76089291025754L100.902,86.37893914438581L101.404,87.02444543503783L101.906,87.69874211685033L102.408,88.40323888897589L102.91,89.13943061571744L103.412,89.9089036363107L103.914,90.71334263646712L104.416,91.5545381405829L104.918,92.43439469066846L105.42,93.35493978619536L105.922,94.31833366834286L106.424,95.32688004274111L106.926,96.38303784696235L107.428,97.48943418296217L107.93,98.64887855071383L108.432,99.86437853777153L108.934,101.13915714085726L109.436,102.47667192030369L109.938,103.88063621689321L110.44,105.35504269404818L110.94200000000001,106.9041895073043L111.444,108.5327094486033L111.946,110.24560246643541L112.44800000000001,112.04827202580017L112.95,113.9465658462225L113.452,115.9468216439735L113.954,118.05591860904167L114.456,120.28133547179237L114.958,122.63121616298315L115.46,125.11444424928376L115.962,127.74072754143913L116.464,130.52069453220682L116.966,133.46600463690834L117.468,136.58947459444784L117.97,139.9052238583007L118.472,143.42884238746828L118.974,147.1775849653789L119.476,151.17059706735623L119.978,155.429178413074L120.48,159.97709174315168L120.982,164.84092613309338L121.484,170.0505264156653L121.986,175.6395031757426L122.488,181.6458415144836L122.99,188.11263163238453L123.492,195.08895063947642L123.994,202.63093340353316L124.496,210.80308145063992L124.998,219.6798740141105L125.5,229.34776583878642L126.002,219.6798740141105L126.504,210.80308145063992L127.006,202.63093340353316L127.508,195.08895063947642L128.01,188.11263163238453L128.512,181.6458415144836L129.014,175.6395031757426L129.516,170.0505264156653L130.018,164.84092613309338L130.52,159.97709174315168L131.022,155.429178413074L131.524,151.17059706735623L132.026,147.1775849653789L132.528,143.42884238746828L133.03,139.9052238583007L133.532,136.58947459444772L134.034,133.46600463690822L134.536,130.52069453220673L135.038,127.74072754143904L135.54,125.1144442492837L136.042,122.63121616298308L136.544,120.2813354717923L137.046,118.05591860904157L137.548,115.9468216439734L138.05,113.94656584622243L138.552,112.04827202580013L139.054,110.2456024664354L139.556,108.53270944860323L140.058,106.90418950730422L140.56,105.35504269404818L141.062,103.88063621689321L141.564,102.47667192030372L142.066,101.13915714085732L142.568,99.86437853777154L143.07,98.6488785507139L143.572,97.4894341829622L144.074,96.38303784696237L144.576,95.32688004274114L145.078,94.31833366834289L145.58,93.35493978619539L146.082,92.43439469066848L146.584,91.5545381405829L147.086,90.71334263646717L147.588,89.9089036363107L148.09,89.13943061571744L148.592,88.40323888897589L149.094,87.69874211685033L149.596,87.02444543503783L150.098,86.37893914438581L150.6,85.76089291025754L151.102,85.16905042397937L151.604,84.60222448420038L152.106,84.05929246032736L152.608,83.53919210403816L153.11,83.04091767827933L153.612,82.56351637618445L154.114,82.10608500504281L154.616,81.66776691284988L155.118,81.24774913711798L155.62,80.84525975753988L156.122,80.45956543581724L156.624,80.08996912750331L157.126,79.73580795208954L157.62800000000001,79.39645120880968L158.13,79.0712985267489L158.632,78.75977813885422L159.13400000000001,78.46134527034891L159.636,78.17548063287438L160.138,77.90168901642247L160.64,77.63949797179478L161.142,77.38845657693011L161.644,77.1481342809951L162.146,76.91811982063254L162.648,76.69802020321669L163.15,76.48745975237952L163.652,76.28607921144817L164.154,76.09353490077788L164.656,75.9094979252784L165.158,75.73365342871722L165.66,75.56569989164612L166.162,75.40534847003579L166.664,75.2523223719229L167.166,75.10635626957523L167.668,74.96719574486443L168.17,74.83459676570456L168.672,74.70832519157139L169.174,74.58815630625892L169.676,74.47387437616149L170.178,74.36527223249092L170.68,74.26215087595014L171.182,74.16431910248588L171.684,74.07159314884021L172.186,73.9837963567067L172.688,73.90075885437787L173.19,73.82231725484698L173.692,73.7483143693945L174.194,73.6785989357553L174.696,73.61302536002097L175.198,73.55145347148738L175.7,73.49374828970852L176.202,73.43977980306468L176.704,73.38942275819795L177.206,73.34255645970762L177.708,73.29906457953777L178.21,73.25883497552323L178.712,73.22175951859364L179.214,73.18773392816684L179.716,73.15665761528928L180.218,73.12843353311067L180.72,73.10296803430217L181.222,73.0801707350528L181.724,73.05995438529897L182.226,73.04223474486335L182.728,73.02693046519701L183.23,73.01396297643834L183.732,73.00325637951642L184.234,72.99473734304402L184.736,72.98833500475939L185.238,72.9839808772883L185.74,72.98160875801324L186.242,72.9811546428455L186.744,72.98255664370978L187.246,72.98575490955963L187.748,72.99069155075321L188.25,72.99731056662702L188.752,73.0055577761149L189.254,73.01538075126749L189.756,73.02672875353454L190.258,73.03955267268091L190.76,73.05380496821266L191.262,73.06943961319669L191.764,73.08641204036388L192.266,73.10467909039005L192.768,73.12419896225634L193.27,73.14493116559368L193.772,73.16683647492243L194.274,73.18987688570198L194.776,73.21401557210928L195.278,73.23921684647013L195.78,73.26544612026962L196.282,73.2926698666729L196.784,73.32085558449003L197.286,73.34997176352266L197.788,73.3799878512321L198.29,73.41087422067281L198.792,73.44260213963662L199.294,73.47514374095672L199.796,73.50847199392192L200.298,73.54256067675468L200.8,73.57738435010853L201.302,73.61291833154218L201.804,73.64913867092969L202.306,73.68602212676885L202.808,73.72354614335012L203.31,73.76168882875129L203.812,73.80042893362466L204.314,73.83974583074396L204.816,73.87961949528128L205.318,73.9200304857842L205.82,73.96095992582565L206.322,74.00238948629928L206.824,74.04430136833545L207.326,74.0866782868132L207.828,74.12950345444486L208.33,74.17276056641109L208.832,74.21643378552506L209.334,74.26050772790538L209.836,74.30496744913802L210.338,74.34979843090895L210.84,74.3949865680894L211.342,74.44051815625625L211.844,74.48637987963184L212.346,74.53255879942714L212.848,74.57904234257268L213.35,74.62581829082393L213.852,74.67287477022617L214.354,74.72020024092637L214.856,74.76778348731878L215.358,74.81561360851245L215.86,74.86368000910878L216.362,74.9119723902777L216.864,74.96048074112204L217.366,75.00919533031941L217.868,75.05810669803193L218.37,75.10720564807403L218.872,75.15648324032912L219.374,75.20593078340676L219.876,75.25553982753118L220.37800000000001,75.30530215765361L220.88,75.35520978678053L221.382,75.40525494950964L221.88400000000001,75.45543009576747L222.386,75.50572788474076L222.888,75.55614117899523L223.39000000000001,75.60666303877562L223.892,75.6572867164802L224.394,75.70800565130435L224.89600000000002,75.75881346404725L225.398,75.80970395207612L225.9,75.86067108444303L226.402,75.91170899714851L226.904,75.96281198854805L227.406,76.01397451489558L227.908,76.06519118602048L228.41,76.11645676113292L228.912,76.16776614475364L229.414,76.21911438276413L229.916,76.27049665857328L230.418,76.32190828939636L230.92,76.37334472264314L231.422,76.42480153241146L231.924,76.47627441608282L232.426,76.52775919101657L232.928,76.57925179133997L233.43,76.63074826483054L233.932,76.68224476988831L234.434,76.73373757259449L234.936,76.78522304385447L235.438,76.83669765662228L235.94,76.88815798320337L236.442,76.93960069263457L236.944,76.99102254813732L237.446,77.04242040464311L237.948,77.09379120638818L238.45,77.1451319845755L238.952,77.19643985510237L239.454,77.24771201635093L239.956,77.29894574704016L240.458,77.35013840413751L240.96,77.40128742082791L241.462,77.45239030453902L241.964,77.50344463502037L242.466,77.55444806247567L242.968,77.6053983057455L243.47,77.65629315053997L243.972,77.7071304477193L244.474,77.75790811162094L244.976,77.80862411843214L245.478,77.85927650460599L245.98,77.9098633653206L246.482,77.96038285297928L246.984,78.01083317575106L247.486,78.06121259614991L247.988,78.11151942965219L248.49,78.16175204335062L248.992,78.21190885464384L249.494,78.2619883299609L249.996,78.31198898351926L250.498,78.36190937611536"></path><path fill="transparent" stroke="#4be0d8" stroke-width="4" opacity="0.4" d="M0,241.0882518860527L0.502,240.71209062388465L1.004,240.33601101648077L1.506,239.9600116700391L2.008,239.58409114535618L2.51,239.2082479566494L3.012,238.8324805703478L3.5140000000000002,238.45678740385006L4.016,238.08116682424895L4.518,237.70561714702072L5.02,237.3301366346794L5.522,236.954723495394L6.024,236.57937588156787L6.526,236.20409188837905L7.0280000000000005,235.8288695522807L7.53,235.45370684946002L8.032,235.0786016942545L8.534,234.7035519375243L9.036,234.32855536497962L9.538,233.953609695461L10.04,233.57871257917208L10.542,233.20386159586246L11.044,232.82905425295982L11.546,232.45428798364907L12.048,232.0795601448976L12.55,231.7048680154245L13.052,231.33020879361186L13.554,230.95557959535688L14.056000000000001,230.58097745186268L14.558,230.20639930736544L15.06,229.83184201679666L15.562,229.45730234337776L16.064,229.0827769561455L16.566,228.70826242740551L17.068,228.3337552301117L17.57,227.95925173516946L18.072,227.58474820866005L18.574,227.21024080898346L19.076,226.8357255839172L19.578,226.46119846758856L20.08,226.08665527735687L20.582,225.71209171060363L21.084,225.3375033414267L21.586,224.96288561723586L22.088,224.5882338552464L22.59,224.2135432388671L23.092,223.8388088139795L23.594,223.4640254851044L24.096,223.08918801145197L24.598,222.7142910028515L25.1,222.33932891555696L25.602,221.96429604792388L26.104,221.58918653595276L26.606,221.21399434869565L27.108,220.83871328351978L27.61,220.46333696122437L28.112000000000002,220.08785882100477L28.614,219.71227211525928L29.116,219.33656990423253L29.618,218.96074505049035L30.12,218.58479021321946L30.622,218.20869784234637L31.124,217.83246017246884L31.626,217.45606921659325L32.128,217.07951675967087L32.63,216.70279435192597L33.132,216.32589330196805L33.634,215.94880466968058L34.136,215.57151925887797L34.638,215.19402760972227L35.14,214.8163199908912L35.642,214.43838639148754L36.144,214.06021651268122L36.646,213.68179975907364L37.148,213.30312522977383L37.65,212.92418170917608L38.152,212.54495765742732L38.654,212.16544120057287L39.156,211.78562012036815L39.658,211.40548184374376L40.16,211.0250134319106L40.662,210.64420156909102L41.164,210.26303255086196L41.666,209.88149227209462L42.168,209.49956621447492L42.67,209.1172394335889L43.172,208.73449654555515L43.674,208.35132171318682L44.176,207.96769863166455L44.678,207.5836105137007L45.18,207.19904007417432L45.682,206.81396951421578L46.184,206.42838050471875L46.686,206.04225416925604L47.188,205.65557106637533L47.69,205.26831117124868L48.192,204.88045385664986L48.694,204.49197787323115L49.196,204.10286132907032L49.698,203.71308166845782L50.2,203.32261564989145L50.702,202.9314393232453L51.204,202.53952800607811L51.706,202.1468562590433L52.208,201.7533978603634L52.71,201.3591257793272L53.212,200.9640121487679L53.714,200.56802823647735L54.216,200.17114441550999L54.718,199.7733301333271L55.22,199.37455387973037L55.722,198.97478315352987L56.224000000000004,198.57398442789074L56.726,198.17212311429805L57.228,197.76916352507757L57.73,197.36506883440632L58.232,196.95980103774366L58.734,196.55332090960997L59.236,196.14558795963612L59.738,195.7365603868033L60.24,195.32619503178734L60.742,194.9144473273191L61.244,194.50127124646548L61.746,194.08661924873252L62.248,193.6704422238851L62.75,193.25268943337298L63.252,192.8333084492468L63.754,192.41224509044036L64.256,191.98944335629022L64.758,191.5648453571545L65.26,191.13839124198674L65.762,190.71001912271169L66.264,190.2796649952406L66.766,189.84726265695596L67.268,189.41274362048358L67.77,188.97603702356164L68.272,188.53706953480298L68.774,188.09576525513666L69.276,187.652045614701L69.778,187.2058292649472L70.28,186.75703196569782L70.782,186.30556646688933L71.284,185.85134238471073L71.786,185.3942660718332L72.288,184.93424048140636L72.79,184.4711650244768L73.292,184.00493542046223L73.794,183.5354435402924L74.296,183.06257724180205L74.798,182.5862201969353L75.3,182.1062517102915L75.802,181.62254652851263L76.304,181.13497463997902L76.806,180.6434010642447L77.308,180.1476856306055L77.81,179.64768274515305L78.312,179.14324114562214L78.81400000000001,178.63420364329332L79.316,178.1204068511598L79.818,177.60168089751414L80.32,177.07784912404986L80.822,176.54872776750904L81.324,176.0141256238385L81.826,175.47384369374106L82.328,174.9276748084286L82.83,174.37540323429545L83.332,173.81680425513557L83.834,173.25164373042475L84.336,172.67967762807712L84.838,172.1006515299642L85.34,171.51430010835386L85.842,170.92034657128278L86.344,170.3185020747216L86.846,169.7084650992221L87.348,169.08992078855184L87.85,168.46254024762047L88.352,167.8259797967833L88.854,167.17988017936744L89.356,166.5238657190049L89.858,165.8575434230699L90.36,165.1805020282052L90.862,164.49231098357754L91.364,163.79251936712564L91.866,163.0806547296511L92.368,162.3562218611458L92.87,161.6187014732511L93.372,160.8675487911903L93.874,160.10219204791045L94.376,159.3220308724967L94.878,158.52643456418275L95.38,157.71474024246012L95.882,156.886250862882L96.384,156.0402330871501L96.886,155.17591499495717L97.388,154.29248362381554L97.89,153.38908232172068L98.392,152.46480789596183L98.894,151.51870753967262L99.396,150.54977551579964L99.898,149.55694957602063L100.4,148.53910708974246L100.902,147.4950608556142L101.404,146.42355456496216L101.906,145.32325788314967L102.408,144.19276111102414L102.91,143.03056938428256L103.412,141.8350963636893L103.914,140.60465736353285L104.416,139.3374618594171L104.918,138.03160530933155L105.42,136.68506021380466L105.922,135.29566633165712L106.424,133.8611199572589L106.926,132.37896215303766L107.428,130.84656581703783L107.93,129.26112144928618L108.432,127.61962146222848L108.934,125.91884285914273L109.436,124.1553280796963L109.938,122.32536378310678L110.44,120.42495730595182L110.94200000000001,118.4498104926957L111.444,116.3952905513967L111.946,114.25639753356458L112.44800000000001,112.02772797419982L112.95,109.7034341537775L113.452,107.27717835602651L113.954,104.74208139095835L114.456,102.09066452820764L114.958,99.31478383701683L115.46,96.40555575071625L115.962,93.35327245856085L116.464,90.14730546779319L116.966,86.77599536309165L117.468,83.22652540555217L117.97,79.48477614169931L118.472,75.53515761253172L118.974,71.3604150346211L119.476,66.94140293264377L119.978,62.25682158692601L120.48,57.282908256848316L120.982,51.99307386690663L121.484,46.357473584334684L121.986,40.34249682425741L122.488,33.91015848551638L122.99,27.01736836761546L123.492,19.615049360523585L123.994,11.647066596466829L124.496,3.0489185493600814L124.998,-6.253874014110465L125.5,-16.347765838786415L126.002,-7.105874014110469L126.504,1.3449185493600737L127.006,9.091066596466817L127.508,16.20704936052357L128.01,22.75736836761547L128.512,28.79815848551638L129.014,34.37849682425741L129.516,39.54147358433468L130.018,44.32507386690662L130.52,48.762908256848306L131.022,52.884821586925995L131.524,56.71740293264375L132.026,60.28441503462108L132.528,63.60715761253172L133.03,66.70477614169928L133.532,69.59452540555228L134.034,72.29199536309176L134.536,74.81130546779326L135.038,77.16527245856096L135.54,79.36555575071631L136.042,81.42278383701691L136.544,83.3466645282077L137.046,85.14608139095841L137.548,86.82917835602659L138.05,88.40343415377755L138.552,89.87572797419986L139.054,91.25239753356459L139.556,92.53929055139676L140.058,93.74181049269576L140.56,94.8649573059518L141.062,95.91336378310677L141.564,96.8913280796963L142.066,97.8028428591427L142.568,98.65162146222846L143.07,99.44112144928611L143.572,100.17456581703782L144.074,100.85496215303763L144.576,101.48511995725887L145.078,102.06766633165712L145.58,102.60506021380462L146.082,103.09960530933152L146.584,103.55346185941707L147.086,103.96865736353286L147.588,104.34709636368929L148.09,104.69056938428254L148.592,105.0007611110241L149.094,105.27925788314965L149.596,105.52755456496214L150.098,105.74706085561422L150.6,105.93910708974249L151.102,106.10494957602063L151.604,106.24577551579964L152.106,106.36270753967263L152.608,106.45680789596186L153.11,106.5290823217207L153.612,106.58048362381554L154.114,106.61191499495719L154.616,106.6242330871501L155.118,106.61825086288201L155.62,106.59474024246013L156.122,106.55443456418274L156.624,106.49803087249671L157.126,106.42619204791046L157.62800000000001,106.33954879119031L158.13,106.23870147325108L158.632,106.12422186114578L159.13400000000001,105.99665472965108L159.636,105.85651936712566L160.138,105.70431098357751L160.64,105.5405020282052L161.142,105.3655434230699L161.644,105.1798657190049L162.146,104.98388017936743L162.648,104.77797979678327L163.15,104.56254024762045L163.652,104.33792078855183L164.154,104.10446509922211L164.656,103.86250207472159L165.158,103.61234657128277L165.66,103.35430010835387L166.162,103.08865152996421L166.664,102.81567762807713L167.166,102.53564373042475L167.668,102.24880425513555L168.17,101.95540323429545L168.672,101.65567480842857L169.174,101.34984369374104L169.676,101.03812562383852L170.178,100.72072776750903L170.68,100.39784912404984L171.182,100.06968089751412L171.684,99.73640685115977L172.186,99.39820364329331L172.688,99.05524114562215L173.19,98.70768274515305L173.692,98.35568563060552L174.194,97.9994010642447L174.696,97.63897463997904L175.198,97.27454652851263L175.7,96.9062517102915L176.202,96.53422019693532L176.704,96.15857724180205L177.206,95.77944354029238L177.708,95.39693542046223L178.21,95.0111650244768L178.712,94.62224048140637L179.214,94.23026607183317L179.716,93.83534238471074L180.218,93.43756646688935L180.72,93.03703196569784L181.222,92.6338292649472L181.724,92.22804561470103L182.226,91.81976525513666L182.728,91.409069534803L183.23,90.99603702356166L183.732,90.58074362048359L184.234,90.16326265695598L184.736,89.74366499524061L185.238,89.32201912271168L185.74,88.89839124198676L186.242,88.47284535715451L186.744,88.04544335629022L187.246,87.61624509044039L187.748,87.1853084492468L188.25,86.75268943337299L188.752,86.31844222388509L189.254,85.88261924873252L189.756,85.44527124646547L190.258,85.0064473273191L190.76,84.56619503178734L191.262,84.1245603868033L191.764,83.68158795963612L192.266,83.23732090960993L192.768,82.79180103774365L193.27,82.3450688344063L193.772,81.89716352507756L194.274,81.44812311429803L194.776,80.99798442789071L195.278,80.54678315352987L195.78,80.09455387973037L196.282,79.6413301333271L196.784,79.18714441550995L197.286,78.73202823647733L197.788,78.27601214876788L198.29,77.81912577932718L198.792,77.36139786036338L199.294,76.90285625904329L199.796,76.44352800607808L200.298,75.98343932324534L200.8,75.52261564989146L201.302,75.06108166845783L201.804,74.5988613290703L202.306,74.13597787323116L202.808,73.67245385664987L203.31,73.20831117124868L203.812,72.74357106637532L204.314,72.27825416925603L204.816,71.81238050471873L205.318,71.3459695142158L205.82,70.87904007417433L206.322,70.41161051370074L206.824,69.94369863166455L207.326,69.47532171318679L207.828,69.00649654555517L208.33,68.53723943358892L208.832,68.06756621447494L209.334,67.59749227209463L209.836,67.127032550862L210.338,66.65620156909102L210.84,66.18501343191062L211.342,65.71348184374378L211.844,65.24162012036817L212.346,64.76944120057289L212.848,64.29695765742733L213.35,63.82418170917609L213.852,63.35112522977383L214.354,62.87779975907364L214.856,62.40421651268122L215.358,61.93038639148756L215.86,61.45631999089122L216.362,60.98202760972228L216.864,60.50751925887798L217.366,60.03280466968059L217.868,59.55789330196805L218.37,59.08279435192597L218.872,58.60751675967086L219.374,58.13206921659324L219.876,57.656460172468854L220.37800000000001,57.180697842346376L220.88,56.70479021321944L221.382,56.228745050490346L221.88400000000001,55.75256990423253L222.386,55.276272115259275L222.888,54.79985882100476L223.39000000000001,54.323336961224385L223.892,53.84671328351979L224.394,53.369994348695656L224.89600000000002,52.89318653595274L225.398,52.41629604792388L225.9,51.939328915556956L226.402,51.46229100285149L226.904,50.98518801145195L227.406,50.50802548510441L227.908,50.03080881397952L228.41,49.553543238867064L228.912,49.07623385524636L229.414,48.59888561723585L229.916,48.12150334142669L230.418,47.64409171060362L230.92,47.16665527735685L231.422,46.68919846758854L231.924,46.2117255839172L232.426,45.73424080898343L232.928,45.25674820866004L233.43,44.77925173516945L233.932,44.30175523011167L234.434,43.8242624274055L234.936,43.346776956145504L235.438,42.86930234337774L235.94,42.39184201679663L236.442,41.91439930736544L236.944,41.4369774518627L237.446,40.9595795953569L237.948,40.482208793611846L238.45,40.004868015424506L238.952,39.52756014489762L239.454,39.05028798364907L239.956,38.57305425295982L240.458,38.09586159586249L240.96,37.6187125791721L241.462,37.141609695461L241.964,36.664555364979634L242.466,36.18755193752432L242.968,35.71060169425451L243.47,35.23370684946002L243.972,34.756869552280705L244.474,34.280091888379076L244.976,33.80337588156789L245.478,33.32672349539402L245.98,32.850136634679416L246.482,32.373617147020724L246.984,31.897166824248956L247.486,31.420787403850085L247.988,30.94448057034782L248.49,30.46824795664938L248.992,29.99209114535617L249.494,29.51601167003912L249.996,29.040011016480747L250.498,28.564090623884624"></path><path fill="transparent" stroke="#f4c237" stroke-width="4" opacity="0.7" d="M125.5,81.93044683224272L126.002,82.68093803070553L126.504,83.42308644516837L127.006,84.15672849163116L127.508,84.88170058609401L128.01,85.5978391445568L128.512,86.30498058301964L129.014,87.00296131748244L129.516,87.69161776394527L130.018,88.3707863384081L130.52,89.04030345687092L131.022,89.70000553533373L131.524,90.34972898979656L132.026,90.98931023625939L132.528,91.6185856907222L133.03,92.23739176918501L133.532,92.84556488764784L134.034,93.44294146211065L134.536,94.02935790857347L135.038,94.6046506430363L135.54,95.16865608149911L136.042,95.72121063996197L136.544,96.26215073442475L137.046,96.79131278088758L137.548,97.30853319535039L138.05,97.81364839381322L138.552,98.30649479227603L139.054,98.78690880673885L139.556,99.25472685320169L140.058,99.70978534766452L140.56,100.15192070612731L141.062,100.58096934459012L141.564,100.99676767905295L142.066,101.39915212551577L142.568,101.78795909997856L143.07,102.16302501844139L143.572,102.52418629690422L144.074,102.87127935136705L144.576,103.20414059782986L145.078,103.52260645229268L145.58,103.82651333075549L146.082,104.11569764921832L146.584,104.38999582368113L147.086,104.64924427014395L147.588,104.89327940460679L148.09,105.1219376430696L148.592,105.33505540153239L149.094,105.53246909599524L149.596,105.71401514245807L150.098,105.87952995692086L150.6,106.02884995538368L151.102,106.16181155384652L151.604,106.27825116830932L152.106,106.37800521477214L152.608,106.46091010923496L153.11,106.52680226769779L153.612,106.57551810616062L154.114,106.60689404062343L154.616,106.62076648708627L155.118,106.61697186154908L155.62,106.59534658001188L156.122,106.5557270584747L156.624,106.49794971293751L157.126,106.42185095940036L157.62800000000001,106.32726721386317L158.13,106.21403489232598L158.632,106.0819904107888L159.13400000000001,105.93097018525162L159.636,105.76081063171443L160.138,105.57134816617726L160.64,105.3624192046401L161.142,105.13386016310291L161.644,104.88550745756574L162.146,104.61719750402854L162.648,104.32876671849137L163.15,104.0200515169542L163.652,103.690888315417L164.154,103.34111352987983L164.656,102.97056357634263L165.158,102.57907487080544L165.66,102.16648382926832L166.162,101.73262686773111L166.664,101.27734040219391L167.166,100.80046084865674L167.668,100.30182462311954L168.17,99.78126814158239L168.672,99.23862782004517L169.174,98.673740074508L169.676,98.08644132097083L170.178,97.47656797543365L170.68,96.84395645389647L171.182,96.18844317235926L171.684,95.50986454682212L172.186,94.80805699328491L172.688,94.08285692774778L173.19,93.3341007662106L173.692,92.56162492467342L174.194,91.76526581913622L174.696,90.94485986559906L175.198,90.10024348006185L175.7,89.23125307852469L176.202,88.33772507698754L176.704,87.41949589145035L177.206,86.47640193791314L177.708,85.50827963237597L178.21,84.51496539083882L178.712,83.49629562930161L179.214,82.45210676376442L179.716,81.38223521022726L180.218,80.28651738469006L180.72,79.16478970315288L181.222,78.01688858161572L181.724,76.84265043607854L182.226,75.64191168254135L182.728,74.41450873700416L183.23,73.16027801546699L183.732,71.8790559339298L184.234,70.57067890839267L184.736,69.23498335485542L185.238,67.87180568931825L185.74,66.48098232778108L186.242,65.06234968624392L186.744,63.61574418070671L187.246,62.14100222716954L187.748,60.637960241632385L188.25,59.106454640095166L188.752,57.546321838557986L189.254,55.95739825302081L189.756,54.33952029948364L190.258,52.692524393946485L190.76,51.01624695240926L191.262,49.310524390872075L191.764,47.57519312533489L192.266,45.81008957179773L192.768,44.01505014626056L193.27,42.18991126472335L193.772,40.33450934318617L194.274,38.44868079764902L194.776,36.5322620441118L195.278,34.58508949857463L195.78,32.60699957703741L196.282,30.597828695500255L196.784,28.55741326996312L197.286,26.48558971642592L197.788,24.38219445088876L198.29,22.247063889351523L198.792,20.08003444781437L199.294,17.880942542277154L199.796,15.649624588739982L200.298,13.38591700320282L200.8,11.089656201665662L201.302,8.760678600128443L201.804,6.398820614591244L202.306,4.003918661054115L202.808,1.575809155516879L203.31,-0.8856714860202715L203.812,-3.380686847557456L204.314,-5.9094005130945675L204.816,-8.471976066631726L205.318,-11.068577092168852L205.82,-13.699367173706065L206.322,-16.36450989524326L206.824,-19.06416884078044L207.326,-21.79850759431764L207.828,-24.567689739854785L208.33,-27.371878861391963L208.832,-30.211238542929152L209.334,-33.08593236846633L209.836,-35.996123922003534L210.338,-38.94197678754071L210.84,-41.92365454907787L211.342,-44.94132079061512L211.844,-47.99513909615223L212.346,-51.08527304968942L212.848,-54.21188623522664L213.35,-57.37514223676385L213.852,-60.575204638301045L214.354,-63.81223702383818L214.856,-67.08640297737531L215.358,-70.39786608291251L215.86,-73.74678992444967L216.362,-77.1333380859869L216.864,-80.55767415152405L217.366,-84.01996170506129L217.868,-87.52036433059845L218.37,-91.0590456121356L218.872,-94.63616913367281L219.374,-98.25189847920996L219.876,-101.90639723274722L220.37800000000001,-105.59982897828434"></path><path fill="transparent" stroke="#f4c237" stroke-width="4" opacity="0.7" d="M62.248,-104.9462035665581L62.75,-101.70645464009516L63.252,-98.49533291363235L63.754,-95.31267480316956L64.256,-92.15831672470676L64.758,-89.03209509424386L65.26,-85.93384632778111L65.762,-82.86340684131824L66.264,-79.8206130508554L66.766,-76.80530137239259L67.268,-73.81730822192975L67.77,-70.85647001546693L68.272,-67.92262316900411L68.774,-65.01560409854136L69.276,-62.135249220078435L69.778,-59.28139494961573L70.28,-56.45387770315284L70.782,-53.6525338966901L71.284,-50.877199946227336L71.786,-48.12771226776442L72.288,-45.40390727730164L72.79,-42.705621390838814L73.292,-40.03269102437599L73.794,-37.38495259391317L74.296,-34.76224251545031L74.798,-32.16439720498752L75.3,-29.591253078524687L75.802,-27.042646552061882L76.304,-24.518414041599044L76.806,-22.018391963136196L77.308,-19.542416732673388L77.81,-17.090324766210585L78.312,-14.661952479747782L78.81400000000001,-12.257136289285L79.316,-9.87571261082212L79.818,-7.517517860359305L80.32,-5.182388453896493L80.822,-2.870160807433649L81.324,-0.5806713369708234L81.826,1.68624354149199L82.328,3.9307474119547976L82.83,6.153003858417605L83.332,8.353176464880448L83.834,10.531428815343247L84.336,12.687924493806094L84.838,14.822827084268908L85.34,16.936300170731727L85.842,19.028507337194554L86.344,21.099612167657313L86.846,23.14977824612012L87.348,25.179169156582958L87.85,27.1879484830458L88.352,29.1762798095086L88.854,31.144326719971446L89.356,33.09225279843426L89.858,35.02022162889705L90.36,36.9283967953599L90.862,38.816941881822714L91.364,40.68602047228555L91.866,42.535796150748354L92.368,44.36643250121119L92.87,46.17809310767399L93.372,47.97094155413683L93.874,49.74514142459964L94.376,51.50085630306248L94.878,53.23824977352527L95.38,54.9574854199881L95.882,56.65872682645093L96.384,58.34213757691376L96.886,60.00788125537659L97.388,61.656121445839375L97.89,63.28702173230221L98.392,64.90074569876504L98.894,66.49745692922787L99.396,68.07731900769068L99.898,69.6404955181535L100.4,71.18715004461632L100.902,72.71744617107916L101.404,74.23154748154195L101.906,75.72961756000475L102.408,77.21181999046757L102.91,78.67831835693039L103.412,80.1292762433932L103.914,81.56485723385603L104.416,82.98522491231884L104.918,84.39054286278167L105.42,85.78097466924449L105.922,87.15668391570732L106.424,88.51783418617012L106.926,89.86458906463294L107.428,91.19711213509578L107.93,92.51556698155859L108.432,93.82011718802143L108.934,95.11092633848422L109.436,96.38815801694706L109.938,97.65197580740987L110.44,98.9025432938727L110.94200000000001,100.14002406033552L111.444,101.36458169079833L111.946,102.57637976926115L112.44800000000001,103.77558187972397L112.95,104.96235160618679L113.452,106.13685253264961L113.954,107.29924824311244L114.456,108.44970232157526L114.958,109.58837835203808L115.46,110.7154399185009L115.962,111.83105060496372L116.464,112.93537399542654L116.966,114.02857367388937L117.468,115.11081322435219L117.97,116.18225623081497L118.472,117.2430662772778L118.974,118.2934069477406L119.476,119.33344182620343L119.978,120.36333449666625L120.48,121.38324854312908L120.982,122.3933475495919L121.484,123.39379510005472L121.986,124.38475477851753L122.488,125.36639016898036L122.99,126.33886485544318L123.492,127.302342421906L123.994,128.25698645236884L124.496,129.20296053083166L124.998,130.14042824129447"></path><line class="v-line" x1="113.703" y1="0" x2="113.703" y2="213" stroke-width="1" stroke="#777777" style="stroke-dasharray: 1, 3;"></line><line class="v-line" x1="152.859" y1="0" x2="152.859" y2="213" stroke-width="1" stroke="#777777" style="stroke-dasharray: 1, 3;"></line><line class="v-line" x1="156.373" y1="0" x2="156.373" y2="213" stroke-width="1" stroke="#777777" style="stroke-dasharray: 1, 3;"></line></g><g transform="translate(1,20)"><text class="small" x="0" y="207">-2</text><text class="small" x="0" y="153.75">-1</text><text class="small" x="0" y="100.5">0</text><text class="small" x="0" y="47.25">1</text><text class="small" x="0" y="-6">2</text><text class="small timeline" x="0.5" y="121.5" text-anchor="start">-2</text><text class="small timeline" x="62.5" y="121.5" text-anchor="start">-1</text><text class="small timeline" x="125.5" y="121.5" text-anchor="start">0</text><text class="small timeline" x="188.5" y="121.5" text-anchor="start">1</text><text class="small timeline" x="251.5" y="121.5" text-anchor="end">2</text></g></svg>