<svg width="254" height="254"><g transform="translate(1,20)"><line x1="0" y1="214" x2="252" y2="214" stroke-width="1" stroke="#DDDDDD"></line><line x1="0" y1="142.66666666666669" x2="252" y2="142.66666666666669" stroke-width="1" stroke="#DDDDDD"></line><line x1="0" y1="71.33333333333334" x2="252" y2="71.33333333333334" stroke-width="1" stroke="#DDDDDD"></line><line x1="0" y1="0" x2="252" y2="0" stroke-width="1" stroke="#DDDDDD"></line><line x1="0" y1="214" x2="252" y2="214" stroke-width="1" stroke="#777777"></line><text class="small timeline" x="0" y="229" text-anchor="start">0</text><line class="timeline" x1="0" y1="211" x2="0" y2="217" stroke-width="1" stroke="#777777"></line><line class="timeline" x1="8.400000000000055" y1="212" x2="8.400000000000055" y2="216" stroke-width="1" stroke="#777777"></line><line class="timeline" x1="16.80000000000011" y1="212" x2="16.80000000000011" y2="216" stroke-width="1" stroke="#777777"></line><line class="timeline" x1="25.20000000000017" y1="212" x2="25.20000000000017" y2="216" stroke-width="1" stroke="#777777"></line><line class="timeline" x1="33.60000000000022" y1="212" x2="33.60000000000022" y2="216" stroke-width="1" stroke="#777777"></line><line class="timeline" x1="42.00000000000028" y1="212" x2="42.00000000000028" y2="216" stroke-width="1" stroke="#777777"></line><line class="timeline" x1="50.40000000000033" y1="212" x2="50.40000000000033" y2="216" stroke-width="1" stroke="#777777"></line><line class="timeline" x1="58.80000000000038" y1="212" x2="58.80000000000038" y2="216" stroke-width="1" stroke="#777777"></line><line class="timeline" x1="67.20000000000044" y1="212" x2="67.20000000000044" y2="216" stroke-width="1" stroke="#777777"></line><line class="timeline" x1="75.60000000000049" y1="212" x2="75.60000000000049" y2="216" stroke-width="1" stroke="#777777"></line><text class="small timeline" x="84" y="229" text-anchor="start">1</text><line class="timeline" x1="84.00000000000054" y1="211" x2="84.00000000000054" y2="217" stroke-width="1" stroke="#777777"></line><line class="timeline" x1="92.4000000000006" y1="212" x2="92.4000000000006" y2="216" stroke-width="1" stroke="#777777"></line><line class="timeline" x1="100.80000000000067" y1="212" x2="100.80000000000067" y2="216" stroke-width="1" stroke="#777777"></line><line class="timeline" x1="109.20000000000073" y1="212" x2="109.20000000000073" y2="216" stroke-width="1" stroke="#777777"></line><line class="timeline" x1="117.60000000000079" y1="212" x2="117.60000000000079" y2="216" stroke-width="1" stroke="#777777"></line><line class="timeline" x1="126.00000000000085" y1="212" x2="126.00000000000085" y2="216" stroke-width="1" stroke="#777777"></line><line class="timeline" x1="134.40000000000092" y1="212" x2="134.40000000000092" y2="216" stroke-width="1" stroke="#777777"></line><line class="timeline" x1="142.80000000000098" y1="212" x2="142.80000000000098" y2="216" stroke-width="1" stroke="#777777"></line><line class="timeline" x1="151.20000000000104" y1="212" x2="151.20000000000104" y2="216" stroke-width="1" stroke="#777777"></line><line class="timeline" x1="159.6000000000011" y1="212" x2="159.6000000000011" y2="216" stroke-width="1" stroke="#777777"></line><text class="small timeline" x="168" y="229" text-anchor="start">2</text><line class="timeline" x1="168.00000000000114" y1="211" x2="168.00000000000114" y2="217" stroke-width="1" stroke="#777777"></line><line class="timeline" x1="176.4000000000012" y1="212" x2="176.4000000000012" y2="216" stroke-width="1" stroke="#777777"></line><line class="timeline" x1="184.80000000000126" y1="212" x2="184.80000000000126" y2="216" stroke-width="1" stroke="#777777"></line><line class="timeline" x1="193.20000000000132" y1="212" x2="193.20000000000132" y2="216" stroke-width="1" stroke="#777777"></line><line class="timeline" x1="201.6000000000014" y1="212" x2="201.6000000000014" y2="216" stroke-width="1" stroke="#777777"></line><line class="timeline" x1="210.00000000000145" y1="212" x2="210.00000000000145" y2="216" stroke-width="1" stroke="#777777"></line><line class="timeline" x1="218.4000000000015" y1="212" x2="218.4000000000015" y2="216" stroke-width="1" stroke="#777777"></line><line class="timeline" x1="226.80000000000157" y1="212" x2="226.80000000000157" y2="216" stroke-width="1" stroke="#777777"></line><line class="timeline" x1="235.20000000000164" y1="212" x2="235.20000000000164" y2="216" stroke-width="1" stroke="#777777"></line><line class="timeline" x1="243.6000000000017" y1="212" x2="243.6000000000017" y2="216" stroke-width="1" stroke="#777777"></line><text class="small timeline" x="252" y="229" text-anchor="end">3</text><line class="timeline" x1="252.00000000000176" y1="211" x2="252.00000000000176" y2="217" stroke-width="1" stroke="#777777"></line></g><g transform="translate(1,20)"><path fill="transparent" stroke="#ed4f80" stroke-width="3" d="M0,99.86666666666667L0.8372093023255814,99.41013333333333L1.6744186046511629,98.97265752746668L2.511627906976744,98.55322439909695L3.3488372093023258,98.15088827805376L4.186046511627907,97.76476685453065L5.023255813953488,97.39403593976297L5.86046511627907,97.03792474029886L6.6976744186046515,96.69571158793691L7.534883720930233,96.36672007476369L8.372093023255815,96.05031554904946L9.209302325581396,95.74590193320579L10.046511627906977,95.45291882971229L10.883720930232558,95.1708388849881L11.72093023255814,94.89916538471601L12.558139534883722,94.63743005719496L13.395348837209303,94.38519106397283L14.232558139534884,94.14203115934538L15.069767441860465,93.90755600235224L15.906976744186048,93.68139260669047L16.74418604651163,93.46318791554134L17.58139534883721,93.25260748969016L18.41860465116279,93.04933429853946L19.255813953488374,92.85306760469503L20.093023255813954,92.6635219337577L20.930232558139537,92.48042612179914L21.767441860465116,92.30352243375027L22.6046511627907,92.13256574659873L23.44186046511628,91.96732279188483L24.27906976744186,91.80757145251548L25.116279069767444,91.65310010938916L25.953488372093023,91.503707033747L26.790697674418606,91.35919982154476L27.62790697674419,91.21939486647993L28.46511627906977,91.08411686861257L29.30232558139535,90.95319837579456L30.13953488372093,90.82647935536622L30.976744186046513,90.70380679380466L31.813953488372096,90.58503432220647L32.651162790697676,90.4700218656707L33.48837209302326,90.35863531481131L34.32558139534884,90.25074621777674L35.16279069767442,90.14623149128964L36,90.04497314934156L36.83720930232558,89.94685804828823L37.674418604651166,89.85177764719302L38.51162790697675,89.75962778235662L39.348837209302324,89.67030845505649L40.18604651162791,89.58372363159424L41.02325581395349,89.49978105482039L41.86046511627907,89.41839206636828L42.697674418604656,89.33947143888867L43.53488372093023,89.26293721762829L44.372093023255815,89.18871057074614L45.2093023255814,89.11671564780423L46.04651162790698,89.04687944591286L46.88372093023256,88.97913168304613L47.72093023255814,88.9134046780793L48.55813953488372,88.8496332371317L49.395348837209305,88.78775454582718L50.23255813953489,88.7277080671123L51.06976744186047,88.66943544429711L51.906976744186046,88.61288040900581L52.74418604651163,88.55798869374668L53.58139534883721,88.50470794883007L54.418604651162795,88.45298766338095L55.25581395348838,88.40277909020989L56.093023255813954,88.35403517432198L56.93023255813954,88.30671048485672L57.76744186046512,88.26076115026666L58.6046511627907,88.21614479655359L59.441860465116285,88.17282048839341L60.27906976744186,88.1307486729918L61.116279069767444,88.08989112652128L61.95348837209303,88.05021090300136L62.79069767441861,88.01167228549075L63.62790697674419,87.97424073946901L64.46511627906978,87.93788286829263L65.30232558139535,87.90256637061718L66.13953488372093,87.86825999968393L66.97674418604652,87.83493352437529L67.81395348837209,87.80255769194869L68.65116279069768,87.77110419236443L69.48837209302326,87.7405456241276L70.32558139534883,87.71085546156878L71.16279069767442,87.68200802349219L72,87.6539784431251L72.83720930232559,87.62674263930457L73.67441860465117,87.60027728884253L74.51162790697674,87.57455980001238L75.34883720930233,87.549568287104L76.18604651162791,87.52528154599723L77.0232558139535,87.50167903070586L77.86046511627907,87.4787408308469L78.69767441860465,87.45644764999346L79.53488372093024,87.43478078486967L80.37209302325581,87.41372210535049L81.2093023255814,87.39325403522952L82.04651162790698,87.37335953372077L82.88372093023256,87.35402207766197L83.72093023255815,87.3352256443879L84.55813953488372,87.3169546952455L85.39534883720931,87.29919415972176L86.23255813953489,87.28192942015893L87.06976744186046,87.26514629703108L87.90697674418605,87.24883103475908L88.74418604651163,87.23297028804036L89.58139534883722,87.21755110867251L90.4186046511628,87.20256093284999L91.25581395348837,87.18798756891417L92.09302325581396,87.17381918553852L92.93023255813954,87.1600443003308L93.76744186046513,87.14665176883551L94.6046511627907,87.1336307739208L95.44186046511628,87.12097081553364L96.27906976744187,87.1086617008098L97.11627906976744,87.09669353452351L97.95348837209303,87.0850567098641L98.79069767441861,87.07374189952705L99.62790697674419,87.06274004710647L100.46511627906978,87.05204235877835L101.30232558139535,87.0416402952629L102.13953488372094,87.03152556405531L102.97674418604652,87.02169011191545L103.81395348837209,87.01212611760572L104.65116279069768,87.00282598486893L105.48837209302326,86.99378233563652L106.32558139534885,86.98498800345877L107.16279069767442,86.97643602714905L108,86.96811964463437L108.83720930232559,86.9600322870042L109.67441860465117,86.95216757275112L110.51162790697676,86.94451930219583L111.34883720930233,86.93708145209041L112.18604651162791,86.92984817039303L113.0232558139535,86.9228137712085L113.86046511627907,86.91597272988854L114.69767441860466,86.90931967828638L115.53488372093024,86.90284940016L116.37209302325581,86.89655682671938L117.2093023255814,86.89043703231225L118.04651162790698,86.88448523024414L118.88372093023257,86.87869676872755L119.72093023255815,86.8730671269564L120.55813953488372,86.86759191130116L121.39534883720931,86.86226685162089L122.23255813953489,86.85708779768795L123.06976744186048,86.8520507157219L123.90697674418605,86.84715168502885L124.74418604651163,86.84238689474277L125.58139534883722,86.83775264066537L126.4186046511628,86.8332453222015L127.25581395348838,86.82886143938673L128.09302325581396,86.8245975900041L128.93023255813955,86.82045046678756L129.7674418604651,86.8164168547086L130.6046511627907,86.81249362834413L131.4418604651163,86.80867774932253L132.27906976744185,86.80496626384542L133.11627906976744,86.80135630028306L133.95348837209303,86.79784506684068L134.79069767441862,86.79442984929364L135.62790697674419,86.79110800878932L136.46511627906978,86.78787697971363L137.30232558139537,86.78473426761985L138.13953488372093,86.7816774472185L138.97674418604652,86.7787041604255L139.8139534883721,86.7758121144675L140.65116279069767,86.77299908004233L141.48837209302326,86.77026288953279L142.32558139534885,86.76760143527252L143.16279069767444,86.76501266786167L144,86.76249459453174L144.8372093023256,86.76004527755735L145.67441860465118,86.75766283271383L146.51162790697674,86.75534542777926L147.34883720930233,86.75309128107959L148.18604651162792,86.7508986600754L149.02325581395348,86.74876587998935L149.86046511627907,86.74669130247267L150.69767441860466,86.74467333431001L151.53488372093025,86.74271042616121L152.37209302325581,86.74080107133882L153.2093023255814,86.73894380462048L154.046511627907,86.73713720109532L154.88372093023256,86.73537987504274L155.72093023255815,86.7336704788433L156.55813953488374,86.7320077019204L157.3953488372093,86.7303902697119L158.2325581395349,86.72881694267095L159.06976744186048,86.72728651529478L159.90697674418607,86.72579781518137L160.74418604651163,86.72434970211212L161.58139534883722,86.72294106716102L162.4186046511628,86.72157083182836L163.25581395348837,86.72023794719914L164.09302325581396,86.7189413931249L164.93023255813955,86.7176801774288L165.7674418604651,86.7164533351327L166.6046511627907,86.71525992770613L167.4418604651163,86.7140990423361L168.27906976744188,86.71296979121762L169.11627906976744,86.71187131086369L169.95348837209303,86.71080276143498L170.79069767441862,86.70976332608795L171.62790697674419,86.70875221034116L172.46511627906978,86.7077686414595L173.30232558139537,86.70681186785525L174.13953488372093,86.70588115850613L174.97674418604652,86.70497580238928L175.8139534883721,86.70409510793125L176.6511627906977,86.7032384024729L177.48837209302326,86.7024050317498L178.32558139534885,86.70159435938622L179.16279069767444,86.70080576640393L180,86.70003865074423L180.8372093023256,86.6992924268032L181.67441860465118,86.69856652498004L182.51162790697674,86.69786039123782L183.34883720930233,86.69717348667638L184.18604651162792,86.69650528711695L185.0232558139535,86.69585528269852L185.86046511627907,86.69522297748507L186.69767441860466,86.69460788908394L187.53488372093025,86.69400954827444L188.37209302325581,86.69342749864698L189.2093023255814,86.69286129625206L190.046511627907,86.69231050925883L190.88372093023256,86.69177471762322L191.72093023255815,86.69125351276526L192.55813953488374,86.69074649725503L193.39534883720933,86.69025328450762L194.2325581395349,86.68977349848616L195.06976744186048,86.68930677341325L195.90697674418607,86.68885275349021L196.74418604651163,86.68841109262416L197.58139534883722,86.6879814541624L198.4186046511628,86.68756351063448L199.25581395348837,86.68715694350085L200.09302325581396,86.68676144290887L200.93023255813955,86.68637670745528L201.76744186046514,86.68600244395525L202.6046511627907,86.68563836721775L203.4418604651163,86.68528419982714L204.27906976744188,86.68493967193072L205.11627906976744,86.68460452103216L205.95348837209303,86.6842784917904L206.79069767441862,86.6839613358244L207.62790697674419,86.683652811523L208.46511627906978,86.68335268385995L209.30232558139537,86.68306072421427L210.13953488372096,86.68277671019524L210.97674418604652,86.68250042547238L211.8139534883721,86.68223165961008L212.6511627906977,86.6819702079066L213.48837209302326,86.68171587123767L214.32558139534885,86.6814684559042L215.16279069767444,86.68122777348434L216,86.68099364068942L216.8372093023256,86.68076587922396L217.67441860465118,86.68054431564943L218.51162790697674,86.68032878125173L219.34883720930233,86.68011911191236L220.18604651162792,86.67991514798311L221.0232558139535,86.67971673416412L221.86046511627907,86.67952371938523L222.69767441860466,86.67933595669078L223.53488372093025,86.67915330312731L224.37209302325581,86.67897561963447L225.2093023255814,86.67880277093893L226.046511627907,86.6786346254511L226.88372093023256,86.67847105516462L227.72093023255815,86.67831193555892L228.55813953488374,86.67815714550396L229.39534883720933,86.67800656716798L230.2325581395349,86.67786008592755L231.06976744186048,86.67771759028014L231.90697674418607,86.67757897175905L232.74418604651163,86.67744412485074L233.58139534883722,86.67731294691431L234.4186046511628,86.67718533810323L235.25581395348837,86.67706120128929L236.09302325581396,86.67694044198835L236.93023255813955,86.67682296828853L237.76744186046514,86.67670869077999L238.6046511627907,86.67659752248682L239.4418604651163,86.67648937880065L240.27906976744188,86.67638417741638L241.11627906976744,86.6762818382692L241.95348837209303,86.67618228347366L242.79069767441862,86.67608543726439L243.62790697674419,86.67599122593822L244.46511627906978,86.67589957779812L245.30232558139537,86.67581042309853L246.13953488372096,86.67572369399217L246.97674418604652,86.67563932447844L247.8139534883721,86.67555725035305L248.6511627906977,86.6754774091592L249.48837209302326,86.67539974013984L250.32558139534885,86.67532418419155L251.16279069767444,86.67525068381939"></path><path fill="transparent" stroke="#40a1dd" stroke-width="3" d="M0,42.80000000000001L0.8372093023255814,43.25653333333335L1.6744186046511629,43.694009139200034L2.511627906976744,44.113442267569724L3.3488372093023258,44.515778388612944L4.186046511627907,44.90189981213601L5.023255813953488,45.272630726903714L5.86046511627907,45.62874192636781L6.6976744186046515,45.97095507872979L7.534883720930233,46.299946591902994L8.372093023255815,46.616351117617256L9.209302325581396,46.920764733460885L10.046511627906977,47.21374783695441L10.883720930232558,47.49582778167857L11.72093023255814,47.76750128195067L12.558139534883722,48.029236609471724L13.395348837209303,48.28147560269389L14.232558139534884,48.52463550732131L15.069767441860465,48.75911066431445L15.906976744186048,48.985274059976234L16.74418604651163,49.203478751125346L17.58139534883721,49.41405917697651L18.41860465116279,49.61733236812725L19.255813953488374,49.81359906197167L20.093023255813954,50.003144732908964L20.930232558139537,50.18624054486756L21.767441860465116,50.363144232916454L22.6046511627907,50.534100920068L23.44186046511628,50.6993438747819L24.27906976744186,50.85909521415127L25.116279069767444,51.013566557277585L25.953488372093023,51.16295963291972L26.790697674418606,51.30746684512195L27.62790697674419,51.447271800186826L28.46511627906977,51.582549798054146L29.30232558139535,51.713468290872186L30.13953488372093,51.840187311300525L30.976744186046513,51.962859872862055L31.813953488372096,52.081632344460274L32.651162790697676,52.19664480099601L33.48837209302326,52.30803135185539L34.32558139534884,52.41592044888998L35.16279069767442,52.52043517537703L36,52.62169351732513L36.83720930232558,52.71980861837844L37.674418604651166,52.81488901947367L38.51162790697675,52.907038884310055L39.348837209302324,52.996358211610186L40.18604651162791,53.08294303507245L41.02325581395349,53.16688561184628L41.86046511627907,53.2482746002984L42.697674418604656,53.32719522777802L43.53488372093023,53.403729449038394L44.372093023255815,53.477956095920575L45.2093023255814,53.54995101886249L46.04651162790698,53.61978722075381L46.88372093023256,53.687534983620594L47.72093023255814,53.75326198858741L48.55813953488372,53.817033429535L49.395348837209305,53.878912120839516L50.23255813953489,53.93895859955441L51.06976744186047,53.99723122236958L51.906976744186046,54.0537862576609L52.74418604651163,54.10867797292002L53.58139534883721,54.161958717836654L54.418604651162795,54.21367900328576L55.25581395348838,54.26388757645685L56.093023255813954,54.31263149234479L56.93023255813954,54.35995618181005L57.76744186046512,54.405905516400054L58.6046511627907,54.45052187011319L59.441860465116285,54.493846178273344L60.27906976744186,54.535917993674985L61.116279069767444,54.57677554014549L61.95348837209303,54.616455763665414L62.79069767441861,54.65499438117601L63.62790697674419,54.69242592719772L64.46511627906978,54.72878379837408L65.30232558139535,54.76410029604955L66.13953488372093,54.7984066669828L66.97674418604652,54.83173314229143L67.81395348837209,54.86410897471805L68.65116279069768,54.89556247430235L69.48837209302326,54.92612104253911L70.32558139534883,54.955811205097945L71.16279069767442,54.984658643174555L72,55.01268822354169L72.83720930232559,55.03992402736222L73.67441860465117,55.066389377824265L74.51162790697674,55.09210686665443L75.34883720930233,55.11709837956283L76.18604651162791,55.141385120669554L77.0232558139535,55.164987635960955L77.86046511627907,55.1879258358199L78.69767441860465,55.210219016673335L79.53488372093024,55.231885881797126L80.37209302325581,55.2529445613163L81.2093023255814,55.27341263143725L82.04651162790698,55.29330713294601L82.88372093023256,55.312644589004805L83.72093023255815,55.33144102227888L84.55813953488372,55.34971197142127L85.39534883720931,55.36747250694498L86.23255813953489,55.384737246507854L87.06976744186046,55.401520369635676L87.90697674418605,55.41783563190768L88.74418604651163,55.433696378626394L89.58139534883722,55.44911555799422L90.4186046511628,55.46410573381675L91.25581395348837,55.47867909775255L92.09302325581396,55.492847481128194L92.93023255813954,55.506622366335904L93.76744186046513,55.520014897831174L94.6046511627907,55.533035892745914L95.44186046511628,55.545695851133075L96.27906976744187,55.55800496585687L97.11627906976744,55.56997313214319L97.95348837209303,55.581609956802566L98.79069767441861,55.592924767139635L99.62790697674419,55.60392661956024L100.46511627906978,55.61462430788836L101.30232558139535,55.625026371403834L102.13953488372094,55.63514110261141L102.97674418604652,55.64497655475128L103.81395348837209,55.65454054906101L104.65116279069768,55.66384068179778L105.48837209302326,55.67288433103019L106.32558139534885,55.681678663207975L107.16279069767442,55.690230639517665L108,55.69854702203236L108.83720930232559,55.70663437966252L109.67441860465117,55.714499093915606L110.51162790697676,55.72214736447091L111.34883720930233,55.7295852145763L112.18604651162791,55.736818496273685L113.0232558139535,55.74385289545819L113.86046511627907,55.750693936778106L114.69767441860466,55.75734698838028L115.53488372093024,55.763817266506635L116.37209302325581,55.77010983994728L117.2093023255814,55.776229634354394L118.04651162790698,55.78218143642249L118.88372093023257,55.78796989793909L119.72093023255815,55.79359953971024L120.55813953488372,55.799074755365496L121.39534883720931,55.80439981504577L122.23255813953489,55.80957886897872L123.06976744186048,55.814615950944756L123.90697674418605,55.81951498163778L124.74418604651163,55.8242797719239L125.58139534883722,55.82891402600126L126.4186046511628,55.83342134446514L127.25581395348838,55.837805227279915L128.09302325581396,55.84206907666254L128.93023255813955,55.84621619987908L129.7674418604651,55.850249811958065L130.6046511627907,55.85417303832253L131.4418604651163,55.85798891734416L132.27906976744185,55.86170040282124L133.11627906976744,55.865310366383596L133.95348837209303,55.868821599825964L134.79069767441862,55.87223681737302L135.62790697674419,55.87555865787735L136.46511627906978,55.87878968695307L137.30232558139537,55.88193239904683L138.13953488372093,55.88498921944816L138.97674418604652,55.887962506241166L139.8139534883721,55.89085455219916L140.65116279069767,55.893667586624304L141.48837209302326,55.89640377713383L142.32558139534885,55.899065231394104L143.16279069767444,55.90165399880496L144,55.904172072134884L144.8372093023256,55.90662138910926L145.67441860465118,55.909003833952795L146.51162790697674,55.911321238887325L147.34883720930233,55.913575385586995L148.18604651162792,55.91576800659115L149.02325581395348,55.91790078667725L149.86046511627907,55.91997536419396L150.69767441860466,55.92199333235658L151.53488372093025,55.92395624050536L152.37209302325581,55.925865595327764L153.2093023255814,55.927722862046096L154.046511627907,55.92952946557128L154.88372093023256,55.93128679162385L155.72093023255815,55.932996187823306L156.55813953488374,55.934658964746234L157.3953488372093,55.936276396954725L158.2325581395349,55.9378497239957L159.06976744186048,55.939380151371836L159.90697674418607,55.94086885148528L160.74418604651163,55.94231696455452L161.58139534883722,55.9437255995056L162.4186046511628,55.94509583483824L163.25581395348837,55.94642871946749L164.09302325581396,55.94772527354172L164.93023255813955,55.9489864892378L165.7674418604651,55.95021333153392L166.6046511627907,55.951406738960486L167.4418604651163,55.9525676243305L168.27906976744188,55.953696875449026L169.11627906976744,55.95479535580296L169.95348837209303,55.955863905231695L170.79069767441862,55.95690334057872L171.62790697674419,55.95791445632551L172.46511627906978,55.95889802520719L173.30232558139537,55.95985479881142L174.13953488372093,55.96078550816054L174.97674418604652,55.961690864277415L175.8139534883721,55.96257155873545L176.6511627906977,55.963428264193766L177.48837209302326,55.96426163491688L178.32558139534885,55.96507230728045L179.16279069767444,55.965860900262754L180,55.96662801592245L180.8372093023256,55.96737423986352L181.67441860465118,55.96810014168665L182.51162790697674,55.96880627542885L183.34883720930233,55.96949317999031L184.18604651162792,55.97016137954975L185.0232558139535,55.9708113839682L185.86046511627907,55.971443689181626L186.69767441860466,55.97205877758276L187.53488372093025,55.97265711839222L188.37209302325581,55.97323916801966L189.2093023255814,55.97380537041457L190.046511627907,55.97435615740784L190.88372093023256,55.97489194904341L191.72093023255815,55.97541315390143L192.55813953488374,55.97592016941164L193.39534883720933,55.97641338215905L194.2325581395349,55.97689316818054L195.06976744186048,55.977359893253436L195.90697674418607,55.977813913176476L196.74418604651163,55.97825557404255L197.58139534883722,55.978685212504274L198.4186046511628,55.97910315603221L199.25581395348837,55.97950972316585L200.09302325581396,55.97990522375781L200.93023255813955,55.980289959211404L201.76744186046514,55.980664222711454L202.6046511627907,55.98102829944895L203.4418604651163,55.98138246683959L204.27906976744188,55.98172699473602L205.11627906976744,55.982062145634586L205.95348837209303,55.98238817487632L206.79069767441862,55.98270533084232L207.62790697674419,55.983013855143724L208.46511627906978,55.98331398280675L209.30232558139537,55.98360594245244L210.13953488372096,55.9838899564715L210.97674418604652,55.984166241194345L211.8139534883721,55.984435007056646L212.6511627906977,55.98469645876014L213.48837209302326,55.984950795429114L214.32558139534885,55.985198210762576L215.16279069767444,55.98543889318245L216,55.98567302597735L216.8372093023256,55.98590078744283L217.67441860465118,55.98612235101734L218.51162790697674,55.986337885415054L219.34883720930233,55.986547554754424L220.18604651162792,55.98675151868366L221.0232558139535,55.986949932502625L221.86046511627907,55.98714294728151L222.69767441860466,55.987330709975964L223.53488372093025,55.98751336353942L224.37209302325581,55.98769104703223L225.2093023255814,55.98786389572777L226.046511627907,55.98803204121563L226.88372093023256,55.98819561150208L227.72093023255815,55.98835473110782L228.55813953488374,55.98850952116274L229.39534883720933,55.98866009949873L230.2325581395349,55.98880658073918L231.06976744186048,55.988949076386604L231.90697674418607,55.98908769490771L232.74418604651163,55.98922254181599L233.58139534883722,55.98935371975247L234.4186046511628,55.9894813285635L235.25581395348837,55.98960546537748L236.09302325581396,55.98972622467838L236.93023255813955,55.989843698378195L237.76744186046514,55.98995797588674L238.6046511627907,55.99006914417993L239.4418604651163,55.99017728786606L240.27906976744188,55.99028248925032L241.11627906976744,55.99038482839751L241.95348837209303,55.990484383193035L242.79069767441862,55.99058122940232L243.62790697674419,55.990675440728495L244.46511627906978,55.99076708886861L245.30232558139537,55.9908562435682L246.13953488372096,55.99094297267456L246.97674418604652,55.99102734218829L247.8139534883721,55.99110941631366L248.6511627906977,55.9911892575075L249.48837209302326,55.99126692652683L250.32558139534885,55.991342482475176L251.16279069767444,55.991415982847315"></path><path fill="transparent" stroke="#444444" stroke-width="3" d="M0,156.93333333333334L0.84,157.84640000000002L1.68,158.72135161173335L2.52,159.5602178684728L3.36,160.3648901105592L4.2,161.13713295760536L5.04,161.87859478714074L5.88,162.59081718606893L6.72,163.27524349079286L7.56,163.9332265171393L8.4,164.5660355685678L9.24,165.1748628002551L10.08,165.7608290072421L10.92,166.32498889669046L11.76,166.86833589723466L12.6,167.39180655227673L13.44,167.89628453872106L14.28,168.38260434797593L15.12,168.8515546619622L15.959999999999999,169.30388145328575L16.8,169.74029083558398L17.64,170.16145168728636L18.48,170.5679980695878L19.32,170.96053145727663L20.16,171.33962279915127L21,171.70581442306843L21.84,172.0596217991662L22.68,172.40153517346926L23.52,172.7320210828971L24.36,173.0515237616358L25.2,173.36046644788843L26.04,173.65925259917276L26.88,173.94826702357716L27.72,174.2278769337069L28.56,174.49843292944158L29.4,174.76026991507763L30.24,175.01370795593428L31.08,175.25905307905737L31.919999999999998,175.49659802225378L32.76,175.72662293532528L33.6,175.9493960370441L34.44,176.16517423111324L35.28,176.3742036840874L36.12,176.57672036798357L36.96,176.7729505700902L37.8,176.96311137228065L38.64,177.14741110195345L39.48,177.32604975655372L40.32,177.49921940347818L41.16,177.66710455702594L42,177.82988253393015L42.839999999999996,177.98772378888938L43.68,178.1407922314101L44.519999999999996,178.28924552517444L45.36,178.43323537105826L46.199999999999996,178.57290777484096L47.04,178.70840330057447L47.879999999999995,178.83985731050808L48.72,178.9674001924033L49.559999999999995,179.09115757501235L50.4,179.2112505324421L51.239999999999995,179.32779577807247L52.08,179.4409058486551L52.919999999999995,179.55068927917335L53.76,179.65725076900657L54.6,179.76069133990484L55.44,179.86110848624696L56.28,179.95859631802284L57.12,180.05324569695333L57.96,180.1451443661334L58.8,180.23437707355959L59.64,180.32102568987995L60.48,180.40516932068317L61.32,180.48688441362424L62.16,180.56624486066406L63,180.64332209568525L63.839999999999996,180.7181851877287L64.67999999999999,180.79090093008148L65.52,180.8615339254324L66.36,180.93014666729886L67.2,180.99679961791614L68.03999999999999,181.0615512827694L68.88,181.1244582819379L69.72,181.1855754184115L70.56,181.24495574352918L71.39999999999999,181.30265061968237L72.24,181.3587097804166L73.08,181.41318138805767L73.92,181.46611208898173L74.75999999999999,181.51754706664207L75.6,181.56753009245884L76.44,181.61610357467234L77.28,181.6633086052551L78.11999999999999,181.709185004973L78.96,181.75377136667987L79.8,181.79710509692745L80.64,181.8392224559658L81.48,181.88015859620776L82.32,181.9199475992252L83.16,181.95862251134287L84,181.996215377891L84.84,182.03275727617577L85.67999999999999,182.0682783472232L86.52,182.10280782634894L87.36,182.1363740726046L88.2,182.16900459714861L89.03999999999999,182.20072609058604L89.88,182.23156444932172L90.72,182.26154480096676L91.56,182.29069152883838L92.39999999999999,182.31902829558965L93.24,182.34657806600512L94.08,182.37336312899566L94.92,182.39940511882511L95.75999999999999,182.4247250355994L96.6,182.44934326504708L97.44,182.4732795976197L98.28,182.49655324693845L99.11999999999999,182.51918286761259L99.96,182.54118657245377L100.8,182.56258194911L101.64,182.58338607614095L102.47999999999999,182.6036155385561L103.32,182.62328644283588L104.16,182.64241443145534L105,182.66101469692885L105.83999999999999,182.67910199539364L106.67999999999999,182.6966906597492L107.52,182.71379461236862L108.36,182.730427377398L109.2,182.74660209265832L110.03999999999999,182.7623315211645L110.88,182.77762806227506L111.72,182.7925037624859L112.56,182.80697032588066L113.39999999999999,182.8210391242497L114.24,182.83472120688958L115.08,182.8480273100939L115.92,182.86096786634664L116.75999999999999,182.8735530132279L117.6,182.88579260204216L118.44,182.89769620617835L119.28,182.90927312921153L120.11999999999999,182.92053241275386L120.96,182.93148284406433L121.8,182.94213296342488L122.64,182.95249107129078L123.47999999999999,182.96256523522285L124.32,182.97236329660893L125.16,182.9818928771811L126,182.99116138533591L126.83999999999999,183.00017602226364L127.67999999999999,183.0089437878932L128.51999999999998,183.01747148665842L129.35999999999999,183.02576573309153L130.2,183.03383295724944L131.04,183.04167940997837L131.88,183.04931116802163L132.72,183.05673413897586L133.56,183.06395406610054L134.4,183.0709765329853L135.24,183.0778069680794L136.07999999999998,183.084450649088L136.92,183.09091270723943L137.76,183.09719813142698L138.6,183.10331177222966L139.44,183.10925834581565L140.28,183.11504243773166L141.12,183.120668506582L141.96,183.12614088760103L142.79999999999998,183.1314637961216L143.64,183.1366413309433L144.48,183.14167747760314L145.32,183.1465761115519L146.16,183.15134100123896L147,183.15597581110808L147.84,183.16048410450742L148.68,183.16486934651576L149.51999999999998,183.1691349066879L150.35999999999999,183.1732840617213L151.2,183.17731999804656L152.04,183.18124581434415L152.88,183.18506452398896L153.72,183.1887790574256L154.56,183.19239226447593L155.4,183.1959069165811L156.23999999999998,183.19932570898L157.07999999999998,183.20265126282584L157.92,183.20588612724282L158.76,183.20903278132477L159.6,183.21209363607704L160.44,183.21507103630393L161.28,183.2179672624424L162.12,183.22078453234457L162.96,183.22352500300988L163.79999999999998,183.22619077226835L164.64,183.22878388041684L165.48,183.23130631180902L166.32,183.2337599964012L167.16,183.23614681125434L168,183.2384685819944L168.84,183.24072708423142L169.68,183.2429240449393L170.51999999999998,183.2450611437967L171.35999999999999,183.24714001449078L172.2,183.24916224598437L173.04,183.2511293837477L173.88,183.25304293095616L174.72,183.25490434965442L175.56,183.2567150618881L176.4,183.2584764508042L177.23999999999998,183.26018986172085L178.07999999999998,183.26185660316708L178.92,183.26347794789424L179.76,183.2650551338588L180.6,183.26658936517822L181.44,183.26808181306032L182.28,183.2695336167066L183.12,183.27094588419104L183.95999999999998,183.27231969331393L184.79999999999998,183.27365609243282L185.64,183.27495610126968L186.48,183.27622071169654L187.32,183.2774508884988L188.16,183.27864757011778L189,183.27981166937266L189.84,183.2809440741625L190.68,183.282045648149L191.51999999999998,183.2831172314202L192.35999999999999,183.28415964113617L193.2,183.2851736721566L194.04,183.28616009765142L194.88,183.28711966969433L195.72,183.28805311984019L196.56,183.28896115968624L197.4,183.28984448141838L198.23999999999998,183.29070375834186L199.07999999999998,183.29153964539773L199.92,183.292352779665L200.76,183.29314378084894L201.6,183.29391325175612L202.44,183.29466177875622L203.28,183.29538993223122L204.12,183.29609826701244L204.95999999999998,183.29678732280527L205.79999999999998,183.29745762460243L206.64,183.29810968308595L207.48,183.2987439950179L208.32,183.2993610436207L209.16,183.2999612989468L210,183.30054521823817L210.84,183.30111324627626L211.67999999999998,183.30166581572195L212.51999999999998,183.30220334744655L213.35999999999999,183.30272625085354L214.2,183.30323492419143L215.04,183.30372975485838L215.88,183.30421111969812L216.72,183.30467938528795L217.56,183.30513490821883L218.4,183.30557803536792L219.23999999999998,183.30600910416334L220.07999999999998,183.30642844284205L220.92,183.30683637070052L221.76,183.3072331983385L222.6,183.30761922789628L223.44,183.3079947532852L224.28,183.30836006041213L225.12,183.30871542739777L225.95999999999998,183.30906112478883L226.79999999999998,183.30939741576455L227.64,183.30972455633747L228.48,183.3100427955489L229.32,183.3103523756588L230.16,183.31065353233075L231,183.31094649481162L231.84,183.31123148610646L232.67999999999998,183.31150872314865L233.51999999999998,183.31177841696527L234.35999999999999,183.31204077283815L235.2,183.31229599046026L236.04,183.3125442640882L236.88,183.31278578269004L237.72,183.31302073008968L238.56,183.31324928510676L239.39999999999998,183.3134716216931L240.23999999999998,183.3136879090654L241.07999999999998,183.31389831183392L241.92,183.3141029901283L242.76,183.31430209971936L243.6,183.31449579213793L244.44,183.31468421479028L245.28,183.31486751107047L246.12,183.3150458204697L246.95999999999998,183.3152192786824L247.79999999999998,183.31538801770986L248.64,183.3155521659606L249.48,183.31571184834831L250.32,183.315867186387L251.16,183.3160182982836"></path></g><g transform="translate(1,20)"><text class="small" x="0" y="208">0</text><text class="small" x="0" y="136.66666666666669">0.5</text><text class="small" x="0" y="65.33333333333334">1</text><text class="small" x="0" y="-6">1.5</text></g></svg>