<svg width="253" height="253"><g transform="translate(1,20)"><line x1="0" y1="213" x2="251" y2="213" stroke-width="1" stroke="#DDDDDD"></line><line x1="0" y1="142" x2="251" y2="142" stroke-width="1" stroke="#DDDDDD"></line><line x1="0" y1="71" x2="251" y2="71" stroke-width="1" stroke="#DDDDDD"></line><line x1="0" y1="0" x2="251" y2="0" stroke-width="1" stroke="#DDDDDD"></line><line x1="0" y1="213" x2="251" y2="213" stroke-width="1" stroke="#777777"></line><text class="small timeline" x="0" y="228" text-anchor="start">0</text><line class="timeline" x1="0" y1="210" x2="0" y2="216" stroke-width="1" stroke="#777777"></line><line class="timeline" x1="8.366666666666722" y1="211" x2="8.366666666666722" y2="215" stroke-width="1" stroke="#777777"></line><line class="timeline" x1="16.733333333333444" y1="211" x2="16.733333333333444" y2="215" stroke-width="1" stroke="#777777"></line><line class="timeline" x1="25.100000000000172" y1="211" x2="25.100000000000172" y2="215" stroke-width="1" stroke="#777777"></line><line class="timeline" x1="33.46666666666689" y1="211" x2="33.46666666666689" y2="215" stroke-width="1" stroke="#777777"></line><line class="timeline" x1="41.83333333333361" y1="211" x2="41.83333333333361" y2="215" stroke-width="1" stroke="#777777"></line><line class="timeline" x1="50.20000000000034" y1="211" x2="50.20000000000034" y2="215" stroke-width="1" stroke="#777777"></line><line class="timeline" x1="58.566666666667054" y1="211" x2="58.566666666667054" y2="215" stroke-width="1" stroke="#777777"></line><line class="timeline" x1="66.93333333333378" y1="211" x2="66.93333333333378" y2="215" stroke-width="1" stroke="#777777"></line><line class="timeline" x1="75.3000000000005" y1="211" x2="75.3000000000005" y2="215" stroke-width="1" stroke="#777777"></line><text class="small timeline" x="84" y="228" text-anchor="start">1</text><line class="timeline" x1="83.66666666666721" y1="210" x2="83.66666666666721" y2="216" stroke-width="1" stroke="#777777"></line><line class="timeline" x1="92.03333333333394" y1="211" x2="92.03333333333394" y2="215" stroke-width="1" stroke="#777777"></line><line class="timeline" x1="100.40000000000067" y1="211" x2="100.40000000000067" y2="215" stroke-width="1" stroke="#777777"></line><line class="timeline" x1="108.76666666666739" y1="211" x2="108.76666666666739" y2="215" stroke-width="1" stroke="#777777"></line><line class="timeline" x1="117.13333333333412" y1="211" x2="117.13333333333412" y2="215" stroke-width="1" stroke="#777777"></line><line class="timeline" x1="125.50000000000085" y1="211" x2="125.50000000000085" y2="215" stroke-width="1" stroke="#777777"></line><line class="timeline" x1="133.86666666666758" y1="211" x2="133.86666666666758" y2="215" stroke-width="1" stroke="#777777"></line><line class="timeline" x1="142.23333333333431" y1="211" x2="142.23333333333431" y2="215" stroke-width="1" stroke="#777777"></line><line class="timeline" x1="150.60000000000105" y1="211" x2="150.60000000000105" y2="215" stroke-width="1" stroke="#777777"></line><line class="timeline" x1="158.96666666666778" y1="211" x2="158.96666666666778" y2="215" stroke-width="1" stroke="#777777"></line><text class="small timeline" x="167" y="228" text-anchor="start">2</text><line class="timeline" x1="167.33333333333448" y1="210" x2="167.33333333333448" y2="216" stroke-width="1" stroke="#777777"></line><line class="timeline" x1="175.7000000000012" y1="211" x2="175.7000000000012" y2="215" stroke-width="1" stroke="#777777"></line><line class="timeline" x1="184.06666666666794" y1="211" x2="184.06666666666794" y2="215" stroke-width="1" stroke="#777777"></line><line class="timeline" x1="192.43333333333467" y1="211" x2="192.43333333333467" y2="215" stroke-width="1" stroke="#777777"></line><line class="timeline" x1="200.8000000000014" y1="211" x2="200.8000000000014" y2="215" stroke-width="1" stroke="#777777"></line><line class="timeline" x1="209.16666666666814" y1="211" x2="209.16666666666814" y2="215" stroke-width="1" stroke="#777777"></line><line class="timeline" x1="217.53333333333487" y1="211" x2="217.53333333333487" y2="215" stroke-width="1" stroke="#777777"></line><line class="timeline" x1="225.9000000000016" y1="211" x2="225.9000000000016" y2="215" stroke-width="1" stroke="#777777"></line><line class="timeline" x1="234.26666666666833" y1="211" x2="234.26666666666833" y2="215" stroke-width="1" stroke="#777777"></line><line class="timeline" x1="242.63333333333506" y1="211" x2="242.63333333333506" y2="215" stroke-width="1" stroke="#777777"></line><text class="small timeline" x="251" y="228" text-anchor="end">3</text><line class="timeline" x1="251.0000000000018" y1="210" x2="251.0000000000018" y2="216" stroke-width="1" stroke="#777777"></line></g><g transform="translate(1,20)"><path fill="transparent" stroke="#ed4f80" stroke-width="3" d="M0,42.60000000000002L0.8338870431893688,43.054400000000015L1.6677740863787376,43.489831526400025L2.5016611295681064,43.90730468688017L3.335548172757475,44.30776073259136L4.169435215946844,44.692077850397055L5.003322259136213,45.06107637771257L5.837209302325581,45.415523506151146L6.67109634551495,45.75613753163293L7.50498338870432,46.08359170128662L8.338870431893689,46.3985177011798L9.172757475083056,46.70150882349145L10.006644518272426,46.9931228470621L10.840531561461795,47.273884661203454L11.674418604651162,47.544288659137806L12.508305647840531,47.804800924380714L13.3421926910299,48.055861230718676L14.17607973421927,48.29788487410951L15.00996677740864,48.53126435279896L15.843853820598007,48.75637091016324L16.677740863787378,48.97355595322287L17.511627906976745,49.183152358392505L18.345514950166113,49.38547567481825L19.179401993355484,49.580825234579265L20.01328903654485,49.769485178082306L20.84717607973422,49.95172540213454L21.68106312292359,50.12780243743555L22.514950166112957,50.29796026156302L23.348837209302324,50.46243105293712L24.182724252491695,50.62143589072065L25.016611295681063,50.775185405140775L25.850498338870434,50.92388038229862L26.6843853820598,51.06771232715411L27.51827242524917,51.20686398803642L28.35215946843854,51.34150984572679L29.186046511627907,51.471816569886784L30.01993355481728,51.597943445359846L30.853820598006646,51.72004277065244L31.687707641196013,51.83826023070111L32.521594684385384,51.95273524585116L33.355481727574755,52.063601298809346L34.18936877076412,52.17098624118489L35.02325581395349,52.27501258109959L35.85714285714286,52.3757977532255L36.691029900332225,52.47345437249817L37.524916943521596,52.568090472653694L38.35880398671097,52.659809730645065L39.19269102990033,52.748711677911075L40.0265780730897,52.834891899394535L40.86046511627907,52.91844222113673L41.69435215946844,52.9994508872129L42.52823920265781,53.078002726713635L43.36212624584718,53.15417931142605L44.19601328903654,53.22805910481813L45.029900332225914,53.29971760288649L45.863787375415285,53.36922746738583L46.69767441860465,53.43665865192145L47.53156146179402,53.502078521351024L48.36544850498339,53.56555196491101L49.19933554817276,53.627141503452435L50.033222591362126,53.68690739114527L50.8671096345515,53.744907711984695L51.70099667774087,53.801198471410146L52.53488372093023,53.85583368332695L53.3687707641196,53.90886545280003L54.202657807308974,53.960344054672305L55.03654485049834,54.01031800834255L55.87043189368771,54.05883414892264L56.70431893687708,54.10593769497913L57.538205980066444,54.151672313052416L58.372093023255815,54.19608017913134L59.205980066445186,54.239202037253364L60.03986710963456,54.281077255386776L60.87375415282392,54.32174387874295L61.70764119601329,54.361238680657635L62.54152823920266,54.399597211170516L63.37541528239203,54.43685384342575L64.20930232558139,54.47304181800786L65.04318936877077,54.508193285320345L65.87707641196013,54.54233934610906L66.71096345514951,54.57551009022467L67.54485049833887,54.6077346337147L68.37873754152824,54.639041154328964L69.21262458471762,54.66945692551792L70.04651162790698,54.69900834899937L70.88039867109634,54.72772098596346L71.71428571428572,54.75561958698307L72.54817275747509,54.7827281206923L73.38205980066445,54.80906980129237L74.21594684385383,54.834667114941084L75.04983388704319,54.859541845078894L75.88372093023256,54.88371509674121L76.71760797342193,54.90720731990507L77.5514950166113,54.930038331914204L78.38538205980066,54.95222733902534L79.21926910299004,54.97379295711582L80.0531561461794,54.99475323159052L80.88704318936877,55.01512565652402L81.72093023255815,55.034927193072406L82.55481727574751,55.05417428718704L83.38870431893687,55.07288288666075L84.22259136212625,55.091068457536124L85.05647840531562,55.10874599990319L85.89036544850498,55.125930063112946L86.72425249169436,55.142634760431775L87.55813953488372,55.15887378316046L88.39202657807309,55.17466041424029L89.22591362126246,55.19000754136809L90.05980066445183,55.20492766964003L90.89368770764119,55.21943293374434L91.72757475083057,55.23353510972103L92.56146179401993,55.247245626306324L93.3953488372093,55.260575575878676L94.22923588039868,55.27353572502281L95.06312292358804,55.28613652472589L95.89700996677742,55.29838812022203L96.73089700996678,55.31030036049765L97.56478405315615,55.321882807471724L98.39867109634552,55.33314474486329L99.23255813953489,55.34409518675858L100.06644518272425,55.354742885888896L100.90033222591363,55.36509634163093L101.734219269103,55.3751638077394L102.56810631229236,55.38495329982254L103.40199335548174,55.39447260257009L104.2358803986711,55.40372927674264L105.06976744186046,55.41273066593192L105.90365448504984,55.42148390309953L106.7375415282392,55.429995916903124L107.57142857142857,55.43827343781726L108.40531561461795,55.44632300405661L109.23920265780731,55.45415096730852L110.07308970099668,55.46176349828178L110.90697674418605,55.469166592078295L111.74086378737542,55.476366073393905L112.57475083056478,55.483367601554164L113.40863787375416,55.4901766753913L114.24252491694352,55.49679863796729L115.07641196013289,55.50323868114913L115.91029900332227,55.509501850041005L116.74418604651163,55.515593047277974L117.578073089701,55.52151703718687L118.41196013289037,55.527278449817885L119.24584717607974,55.53288178485178L120.07973421926911,55.53833141538715L120.91362126245848,55.54363159161099L121.74750830564784,55.54878644435732L122.58139534883722,55.55379998855716L123.41528239202658,55.55867612658341L124.24916943521595,55.563418651494345L125.08305647840533,55.56803125017882L125.91694352159469,55.57251750640691L126.75083056478405,55.57688090378795L127.58471760797343,55.581124828640725L128.41860465116278,55.58525257277685L129.25249169435216,55.58926733620123L130.08637873754154,55.59317222973223L130.9202657807309,55.59697027754348L131.75415282392026,55.600664419630505L132.58803986710964,55.60425751420422L133.42192691029902,55.60775234001372L134.25581395348837,55.61115159860026L135.08970099667775,55.61445791648541L135.92358803986713,55.617673847294384L136.75747508305648,55.62080187381764L137.59136212624585,55.623844410011486L138.42524916943523,55.62680380294097L139.25913621262458,55.62968233466552L140.09302325581396,55.63248222407L140.92691029900334,55.63520562864255L141.7607973421927,55.63785464620068L142.59468438538207,55.64043131656754L143.42857142857144,55.642937623199686L144.2624584717608,55.64537549476762L145.09634551495017,55.647746806691316L145.93023255813955,55.65005338263086L146.7641196013289,55.652296995934705L147.59800664451828,55.654479371046335L148.43189368770766,55.65660218487034L149.265780730897,55.65866706809959L150.09966777408638,55.66067560650444L150.93355481727576,55.662629342185255L151.7674418604651,55.66452977478886L152.6013289036545,55.66637836269072L153.43521594684387,55.66817652414335L154.26910299003322,55.66992563839196L155.1029900332226,55.671627046758715L155.93687707641197,55.673282053696L156.77076411960132,55.67489192781005L157.6046511627907,55.67645790285553L158.43853820598008,55.677981178701856L159.27242524916943,55.679462922272734L160.1063122923588,55.68090426845845L160.9401993355482,55.68230632100324L161.77408637873754,55.68367015336702L162.6079734219269,55.684996809563444L163.4418604651163,55.686287304973774L164.27574750830564,55.687542627138555L165.10963455149502,55.68876373652674L165.9435215946844,55.68995156728309L166.77740863787375,55.69110702795513L167.61129568106313,55.692231002199264L168.4451827242525,55.693324349467446L169.27906976744185,55.69438790567452L170.11295681063123,55.69542248384707L170.9468438538206,55.69642887475388L171.78073089700996,55.697407847519315L172.61461794019934,55.69836015021886L173.44850498338872,55.699286510458876L174.28239202657807,55.70018763593964L175.11627906976744,55.70106421500304L175.95016611295682,55.70191691716482L176.78405315614617,55.702746393632225L177.61794019933555,55.703553277807174L178.45182724252493,55.704338185775526L179.28571428571428,55.70510171678262L180.11960132890366,55.70584445369593L180.95348837209303,55.70656696345446L181.78737541528238,55.707269797506285L182.62126245847176,55.70795349223337L183.45514950166114,55.708618569364944L184.2890365448505,55.70926553637955L185.12292358803987,55.70989488689571L185.95681063122925,55.710507101051974L186.7906976744186,55.711102645876366L187.62458471760797,55.71168197564572L188.45847176079735,55.71224553223507L189.29235880398673,55.71279374545733L190.12624584717608,55.71332703339368L190.96013289036546,55.71384580271496L191.79401993355484,55.71435044899383L192.62790697674419,55.714841357008765L193.46179401993356,55.715318901039495L194.29568106312294,55.71578344515413L195.1295681063123,55.716235343488734L195.96345514950167,55.716674940519L196.79734219269105,55.717102571324375L197.6312292358804,55.71751856184514L198.46511627906978,55.71792322913234L199.29900332225915,55.71831688159071L200.1328903654485,55.71869981921509L200.96677740863788,55.71907233382029L201.80066445182726,55.71943470926462L202.6345514950166,55.719787221667445L203.468438538206,55.72013013962041L204.30232558139537,55.720463724393284L205.13621262458472,55.720788230133934L205.9700996677741,55.72110390406269L206.80398671096347,55.72141098666174L207.63787375415282,55.72170971185906L208.4717607973422,55.72200030720734L209.30564784053158,55.72228299405808L210.13953488372093,55.72255798773082L210.9734219269103,55.72282549767789L211.80730897009968,55.72308572764442L212.64119601328903,55.72333887582428L213.4750830564784,55.723585135011376L214.3089700996678,55.72382469274703L215.14285714285714,55.72405773146343L215.97674418604652,55.72428442862298L216.8106312292359,55.724504956853735L217.64451827242524,55.724719484081334L218.47840531561462,55.72492817365742L219.312292358804,55.725131184484184L220.14617940199335,55.7253286711358L220.98006644518273,55.725520783976464L221.8139534883721,55.72570766927515L222.64784053156146,55.72588946931728L223.48172757475083,55.72606632251339L224.3156146179402,55.726238363504734L225.14950166112956,55.726405723266026L225.98338870431894,55.72656852920534L226.81727574750832,55.7267269052615L227.65116279069767,55.72688097199844L228.48504983388705,55.727030846697346L229.31893687707642,55.727176643446L230.15282392026577,55.72731847322592L230.98671096345515,55.727456443996914L231.82059800664453,55.72759066077947L232.65448504983388,55.72772122573491L233.48837209302326,55.7278482382431L234.32225913621264,55.727971794978515L235.156146179402,55.728091989983625L235.99003322259136,55.72820891474092L236.82392026578074,55.728322658242405L237.6578073089701,55.72843330705757L238.49169435215947,55.728540945399374L239.32558139534885,55.728645655188416L240.15946843853823,55.728747516115305L240.99335548172758,55.72884660570148L241.82724252491695,55.72894299935837L242.66112956810633,55.72903677044471L243.49501661129568,55.729127990322496L244.32890365448506,55.72921672841136L245.16279069767444,55.729303052241505L245.9966777408638,55.72938702750517L246.83056478405317,55.7294687181066L247.66445182724254,55.729548186210735L248.4983388704319,55.72962549229075L249.33222591362127,55.729700695173875L250.16611295681065,55.72977385208634"></path><path fill="transparent" stroke="#40a1dd" stroke-width="3" d="M0,99.4L0.8338870431893688,98.9456L1.6677740863787376,98.51016847360002L2.5016611295681064,98.09269531311986L3.335548172757475,97.69223926740864L4.169435215946844,97.30792214960294L5.003322259136213,96.93892362228745L5.837209302325581,96.58447649384887L6.67109634551495,96.24386246836711L7.50498338870432,95.91640829871339L8.338870431893689,95.60148229882026L9.172757475083056,95.29849117650856L10.006644518272426,95.00687715293793L10.840531561461795,94.72611533879657L11.674418604651162,94.4557113408622L12.508305647840531,94.19519907561929L13.3421926910299,93.94413876928137L14.17607973421927,93.7021151258905L15.00996677740864,93.46873564720106L15.843853820598007,93.24362908983677L16.677740863787378,93.02644404677713L17.511627906976745,92.8168476416075L18.345514950166113,92.6145243251818L19.179401993355484,92.41917476542075L20.01328903654485,92.23051482191772L20.84717607973422,92.0482745978655L21.68106312292359,91.87219756256452L22.514950166112957,91.70203973843705L23.348837209302324,91.53756894706294L24.182724252491695,91.37856410927942L25.016611295681063,91.2248145948593L25.850498338870434,91.07611961770145L26.6843853820598,90.93228767284596L27.51827242524917,90.79313601196367L28.35215946843854,90.65849015427327L29.186046511627907,90.52818343011327L30.01993355481728,90.40205655464021L30.853820598006646,90.27995722934763L31.687707641196013,90.16173976929896L32.521594684385384,90.04726475414887L33.355481727574755,89.9363987011907L34.18936877076412,89.82901375881517L35.02325581395349,89.72498741890044L35.85714285714286,89.62420224677454L36.691029900332225,89.52654562750185L37.524916943521596,89.43190952734632L38.35880398671097,89.34019026935495L39.19269102990033,89.25128832208894L40.0265780730897,89.16510810060548L40.86046511627907,89.08155777886329L41.69435215946844,89.00054911278713L42.52823920265781,88.92199727328638L43.36212624584718,88.84582068857395L44.19601328903654,88.7719408951819L45.029900332225914,88.70028239711355L45.863787375415285,88.6307725326142L46.69767441860465,88.56334134807862L47.53156146179402,88.49792147864902L48.36544850498339,88.43444803508903L49.19933554817276,88.37285849654761L50.033222591362126,88.31309260885476L50.8671096345515,88.25509228801535L51.70099667774087,88.1988015285899L52.53488372093023,88.1441663166731L53.3687707641196,88.09113454720003L54.202657807308974,88.03965594532777L55.03654485049834,87.9896819916575L55.87043189368771,87.94116585107749L56.70431893687708,87.89406230502094L57.538205980066444,87.84832768694766L58.372093023255815,87.80391982086876L59.205980066445186,87.76079796274671L60.03986710963456,87.71892274461332L60.87375415282392,87.67825612125716L61.70764119601329,87.63876131934248L62.54152823920266,87.60040278882958L63.37541528239203,87.56314615657429L64.20930232558139,87.5269581819922L65.04318936877077,87.49180671467971L65.87707641196013,87.45766065389101L66.71096345514951,87.4244899097754L67.54485049833887,87.39226536628539L68.37873754152824,87.36095884567114L69.21262458471762,87.33054307448215L70.04651162790698,87.3009916510007L70.88039867109634,87.27227901403663L71.71428571428572,87.24438041301703L72.54817275747509,87.21727187930782L73.38205980066445,87.19093019870776L74.21594684385383,87.16533288505904L75.04983388704319,87.14045815492126L75.88372093023256,87.11628490325893L76.71760797342193,87.09279268009509L77.5514950166113,87.06996166808594L78.38538205980066,87.0477726609748L79.21926910299004,87.02620704288431L80.0531561461794,87.00524676840959L80.88704318936877,86.98487434347611L81.72093023255815,86.9650728069277L82.55481727574751,86.94582571281308L83.38870431893687,86.92711711333936L84.22259136212625,86.90893154246398L85.05647840531562,86.8912540000969L85.89036544850498,86.87406993688715L86.72425249169436,86.85736523956832L87.55813953488372,86.84112621683964L88.39202657807309,86.82533958575979L89.22591362126246,86.80999245863198L90.05980066445183,86.79507233036004L90.89368770764119,86.78056706625568L91.72757475083057,86.766464890279L92.56146179401993,86.75275437369373L93.3953488372093,86.73942442412132L94.22923588039868,86.72646427497725L95.06312292358804,86.71386347527414L95.89700996677742,86.70161187977799L96.73089700996678,86.68969963950238L97.56478405315615,86.67811719252829L98.39867109634552,86.66685525513674L99.23255813953489,86.65590481324149L100.06644518272425,86.64525711411116L100.90033222591363,86.63490365836914L101.734219269103,86.62483619226067L102.56810631229236,86.61504670017752L103.40199335548174,86.60552739742998L104.2358803986711,86.5962707232574L105.06976744186046,86.58726933406813L105.90365448504984,86.57851609690054L106.7375415282392,86.57000408309695L107.57142857142857,86.56172656218281L108.40531561461795,86.55367699594343L109.23920265780731,86.54584903269154L110.07308970099668,86.53823650171827L110.90697674418605,86.53083340792176L111.74086378737542,86.52363392660615L112.57475083056478,86.51663239844584L113.40863787375416,86.50982332460869L114.24252491694352,86.50320136203271L115.07641196013289,86.49676131885083L115.91029900332227,86.490498149959L116.74418604651163,86.48440695272201L117.578073089701,86.47848296281309L118.41196013289037,86.47272155018209L119.24584717607974,86.46711821514819L120.07973421926911,86.46166858461284L120.91362126245848,86.45636840838901L121.74750830564784,86.45121355564268L122.58139534883722,86.44620001144283L123.41528239202658,86.44132387341656L124.24916943521595,86.43658134850565L125.08305647840533,86.43196874982114L125.91694352159469,86.42748249359309L126.75083056478405,86.42311909621203L127.58471760797343,86.41887517135923L128.41860465116278,86.41474742722313L129.25249169435216,86.41073266379875L130.08637873754154,86.40682777026775L130.9202657807309,86.40302972245654L131.75415282392026,86.3993355803695L132.58803986710964,86.39574248579576L133.42192691029902,86.39224765998628L134.25581395348837,86.38884840139974L135.08970099667775,86.38554208351461L135.92358803986713,86.38232615270562L136.75747508305648,86.37919812618237L137.59136212624585,86.37615558998851L138.42524916943523,86.37319619705903L139.25913621262458,86.37031766533447L140.09302325581396,86.36751777592997L140.92691029900334,86.3647943713574L141.7607973421927,86.36214535379929L142.59468438538207,86.3595686834324L143.42857142857144,86.35706237680029L144.2624584717608,86.35462450523232L145.09634551495017,86.35225319330863L145.93023255813955,86.34994661736907L146.7641196013289,86.3477030040652L147.59800664451828,86.34552062895355L148.43189368770766,86.34339781512958L149.265780730897,86.34133293190037L150.09966777408638,86.33932439349547L150.93355481727576,86.33737065781466L151.7674418604651,86.33547022521107L152.6013289036545,86.33362163730916L153.43521594684387,86.33182347585655L154.26910299003322,86.33007436160796L155.1029900332226,86.32837295324121L155.93687707641197,86.32671794630394L156.77076411960132,86.32510807218988L157.6046511627907,86.32354209714444L158.43853820598008,86.32201882129807L159.27242524916943,86.32053707772724L160.1063122923588,86.31909573154151L160.9401993355482,86.31769367899672L161.77408637873754,86.3163298466329L162.6079734219269,86.31500319043653L163.4418604651163,86.31371269502617L164.27574750830564,86.31245737286137L165.10963455149502,86.3112362634732L165.9435215946844,86.31004843271685L166.77740863787375,86.30889297204482L167.61129568106313,86.30776899780071L168.4451827242525,86.30667565053255L169.27906976744185,86.30561209432547L170.11295681063123,86.30457751615296L170.9468438538206,86.30357112524611L171.78073089700996,86.30259215248071L172.61461794019934,86.30163984978117L173.44850498338872,86.30071348954115L174.28239202657807,86.29981236406036L175.11627906976744,86.29893578499698L175.95016611295682,86.29808308283519L176.78405315614617,86.2972536063678L177.61794019933555,86.29644672219283L178.45182724252493,86.29566181422447L179.28571428571428,86.29489828321739L180.11960132890366,86.29415554630411L180.95348837209303,86.29343303654555L181.78737541528238,86.29273020249373L182.62126245847176,86.29204650776668L183.45514950166114,86.2913814306351L184.2890365448505,86.29073446362048L185.12292358803987,86.2901051131043L185.95681063122925,86.28949289894803L186.7906976744186,86.28889735412362L187.62458471760797,86.28831802435424L188.45847176079735,86.2877544677649L189.29235880398673,86.28720625454267L190.12624584717608,86.28667296660629L190.96013289036546,86.28615419728504L191.79401993355484,86.28564955100617L192.62790697674419,86.28515864299123L193.46179401993356,86.28468109896052L194.29568106312294,86.2842165548459L195.1295681063123,86.28376465651128L195.96345514950167,86.28332505948106L196.79734219269105,86.28289742867565L197.6312292358804,86.28248143815487L198.46511627906978,86.28207677086766L199.29900332225915,86.28168311840929L200.1328903654485,86.28130018078492L200.96677740863788,86.28092766617976L201.80066445182726,86.28056529073542L202.6345514950166,86.28021277833263L203.468438538206,86.27986986037965L204.30232558139537,86.27953627560677L205.13621262458472,86.27921176986614L205.9700996677741,86.27889609593737L206.80398671096347,86.27858901333832L207.63787375415282,86.27829028814098L208.4717607973422,86.2779996927927L209.30564784053158,86.277717005942L210.13953488372093,86.27744201226923L210.9734219269103,86.27717450232218L211.80730897009968,86.27691427235564L212.64119601328903,86.27666112417582L213.4750830564784,86.27641486498875L214.3089700996678,86.27617530725311L215.14285714285714,86.27594226853667L215.97674418604652,86.27571557137712L216.8106312292359,86.27549504314639L217.64451827242524,86.27528051591878L218.47840531561462,86.27507182634268L219.312292358804,86.2748688155159L220.14617940199335,86.27467132886429L220.98006644518273,86.27447921602362L221.8139534883721,86.27429233072493L222.64784053156146,86.27411053068279L223.48172757475083,86.27393367748665L224.3156146179402,86.2737616364953L225.14950166112956,86.27359427673403L225.98338870431894,86.27343147079469L226.81727574750832,86.27327309473856L227.65116279069767,86.2731190280016L228.48504983388705,86.27296915330271L229.31893687707642,86.27282335655406L230.15282392026577,86.27268152677416L230.98671096345515,86.27254355600317L231.82059800664453,86.27240933922059L232.65448504983388,86.27227877426519L233.48837209302326,86.27215176175696L234.32225913621264,86.27202820502158L235.156146179402,86.27190801001645L235.99003322259136,86.27179108525914L236.82392026578074,86.27167734175765L237.6578073089701,86.27156669294249L238.49169435215947,86.27145905460065L239.32558139534885,86.27135434481163L240.15946843853823,86.27125248388477L240.99335548172758,86.27115339429855L241.82724252491695,86.27105700064166L242.66112956810633,86.27096322955533L243.49501661129568,86.27087200967756L244.32890365448506,86.27078327158871L245.16279069767444,86.27069694775855L245.9966777408638,86.27061297249489L246.83056478405317,86.27053128189345L247.66445182724254,86.2704518137893L248.4983388704319,86.27037450770928L249.33222591362127,86.27029930482618L250.16611295681065,86.27022614791369"></path><path fill="transparent" stroke="#444444" stroke-width="3" d="M0,156.20000000000002L0.8366666666666667,157.10880000000003L1.6733333333333333,157.97966305280002L2.51,158.8146093737603L3.3466666666666667,159.61552146518275L4.183333333333334,160.3841557007941L5.02,161.12215275542513L5.8566666666666665,161.83104701230226L6.693333333333333,162.5122750632658L7.53,163.16718340257324L8.366666666666667,163.79703540235954L9.203333333333333,164.4030176469829L10.04,164.98624569412416L10.876666666666667,165.54776932240688L11.713333333333333,166.0885773182756L12.55,166.60960184876143L13.386666666666667,167.11172246143732L14.223333333333333,167.59576974821906L15.06,168.0625287055979L15.896666666666667,168.51274182032648L16.733333333333334,168.94711190644574L17.57,169.366304716785L18.406666666666666,169.77095134963645L19.243333333333332,170.16165046915853L20.08,170.53897035616458L20.916666666666668,170.90345080426903L21.753333333333334,171.25560487487104L22.59,171.59592052312593L23.426666666666666,171.9248621058742L24.263333333333332,172.24287178144124L25.1,172.55037081028146L25.936666666666667,172.84776076459718L26.773333333333333,173.1354246543081L27.61,173.41372797607275L28.446666666666665,173.68301969145352L29.283333333333335,173.94363313977354L30.12,174.19588689071963L30.956666666666667,174.44008554130477L31.793333333333333,174.67652046140213L32.63,174.9054704917023L33.46666666666667,175.12720259761866L34.303333333333335,175.34197248236973L35.14,175.55002516219915L35.97666666666667,175.75159550645094L36.81333333333333,175.9469087449963L37.65,176.1361809453074L38.486666666666665,176.31961946129013L39.32333333333333,176.49742335582215L40.16,176.669783798789L40.99666666666667,176.83688444227346L41.833333333333336,176.9989017744258L42.67,177.15600545342727L43.50666666666667,177.3083586228521L44.343333333333334,177.45611820963623L45.18,177.59943520577292L46.016666666666666,177.7384549347716L46.85333333333333,177.8733173038428L47.69,178.004157042702L48.526666666666664,178.13110392982196L49.36333333333334,178.2542830069048L50.2,178.3738147822905L51.03666666666667,178.48981542396933L51.873333333333335,178.60239694282023L52.71,178.71166736665384L53.54666666666667,178.8177309056L54.38333333333333,178.92068810934455L55.22,179.02063601668505L56.056666666666665,179.11766829784514L56.89333333333333,179.2118753899582L57.73,179.30334462610475L58.56666666666667,179.3921603582626L59.403333333333336,179.47840407450667L60.24,179.56215451077344L61.07666666666667,179.64348775748581L61.913333333333334,179.72247736131516L62.75,179.79919442234092L63.586666666666666,179.87370768685147L64.42333333333333,179.94608363601566L65.26,180.01638657064066L66.09666666666666,180.08467869221803L66.93333333333334,180.15102018044925L67.77,180.21546926742934L68.60666666666667,180.27808230865784L69.44333333333333,180.33891385103576L70.28,180.39801669799866L71.11666666666666,180.45544197192686L71.95333333333333,180.51123917396606L72.79,180.56545624138448L73.62666666666667,180.61813960258462L74.46333333333334,180.66933422988205L75.3,180.71908369015762L76.13666666666667,180.76743019348226L76.97333333333333,180.81441463981L77.81,180.86007666382827L78.64666666666666,180.9044546780505L79.48333333333333,180.94758591423152L80.32,180.98950646318093L81.15666666666667,181.0302513130479L81.99333333333334,181.0698543861447L82.83,181.10834857437396L83.66666666666667,181.1457657733214L84.50333333333333,181.18213691507216L85.34,181.21749199980627L86.17666666666666,181.2518601262258L87.01333333333334,181.28526952086347L87.85,181.3177475663208L88.68666666666667,181.3493208284805L89.52333333333334,181.38001508273612L90.36,181.40985533928L91.19666666666667,181.4388658674887L92.03333333333333,181.46707021944204L92.87,181.4944912526126L93.70666666666666,181.52115115175735L94.54333333333334,181.54707145004556L95.38,181.57227304945175L96.21666666666667,181.59677624044406L97.05333333333333,181.6206007209953L97.89,181.64376561494342L98.72666666666667,181.66628948972655L99.56333333333333,181.68819037351707L100.4,181.7094857717777L101.23666666666666,181.7301926832618L102.07333333333334,181.75032761547874L102.91,181.76990659964505L103.74666666666667,181.78894520514012L104.58333333333333,181.80745855348525L105.42,181.82546133186378L106.25666666666666,181.84296780619897L107.09333333333333,181.85999183380613L107.93,181.87654687563446L108.76666666666667,181.8926460081132L109.60333333333334,181.90830193461701L110.44,181.92352699656348L111.27666666666667,181.93833318415653L112.11333333333333,181.95273214678775L112.95,181.96673520310836L113.78666666666666,181.98035335078262L114.62333333333333,181.99359727593458L115.46,182.00647736229828L116.29666666666667,182.01900370008198L117.13333333333334,182.03118609455598L117.97,182.0430340743738L118.80666666666667,182.05455689963577L119.64333333333333,182.06576356970362L120.48,182.07666283077432L121.31666666666666,182.08726318322195L122.15333333333334,182.09757288871464L122.99,182.10759997711435L123.82666666666667,182.11735225316684L124.66333333333333,182.1268373029887L125.5,182.1360625003577L126.33666666666667,182.1450350128138L127.17333333333333,182.15376180757593L128.01,182.1622496572815L128.84666666666666,182.1705051455537L129.68333333333334,182.1785346724025L130.52,182.18634445946446L131.35666666666665,182.19394055508695L132.19333333333333,182.201328839261L133.03,182.20851502840847L133.86666666666667,182.21550468002744L134.70333333333335,182.22230319720052L135.54,182.22891583297078L136.37666666666667,182.23534769458877L137.21333333333334,182.24160374763525L138.05,182.24768882002297L138.88666666666666,182.25360760588194L139.72333333333333,182.25936466933103L140.56,182.26496444814003L141.39666666666668,182.27041125728513L142.23333333333332,182.27570929240142L143.07,182.28086263313514L143.90666666666667,182.28587524639937L144.74333333333334,182.2907509895353L145.58,182.2954936133827L146.41666666666666,182.30010676526177L147.25333333333333,182.30459399186952L148.09,182.30895874209278L148.92666666666668,182.31320436974076L149.76333333333332,182.31733413619924L150.6,182.32135121300897L151.43666666666667,182.32525868437057L152.27333333333334,182.32905954957778L153.11,182.33275672538156L153.94666666666666,182.33635304828678L154.78333333333333,182.339851276784L155.62,182.3432540935175L156.45666666666668,182.34656410739208L157.29333333333332,182.3497838556202L158.13,182.3529158057111L158.96666666666667,182.3559623574038L159.80333333333334,182.3589258445455L160.64,182.36180853691695L161.47666666666666,182.3646126420065L162.31333333333333,182.36734030673415L163.15,182.36999361912692L163.98666666666668,182.3725746099476L164.82333333333332,182.3750852542772L165.66,182.37752747305353L166.49666666666667,182.37990313456623L167.33333333333334,182.3822140559103L168.17,182.38446200439856L169.00666666666666,182.3866486989349L169.84333333333333,182.38877581134903L170.68,182.39084496769408L171.51666666666668,182.39285774950778L172.35333333333332,182.3948156950386L173.19,182.3967203004377L174.02666666666667,182.39857302091772L174.86333333333334,182.40037527187928L175.7,182.40212843000606L176.53666666666666,182.40383383432962L177.37333333333333,182.40549278726445L178.21,182.40710655561435L179.04666666666668,182.40867637155105L179.88333333333333,182.41020343356524L180.72,182.4116889073918L181.55666666666667,182.41313392690893L182.39333333333335,182.41453959501257L183.23,182.41590698446666L184.06666666666666,182.41723713872986L184.90333333333334,182.41853107275907L185.74,182.41978977379142L186.57666666666665,182.42101420210395L187.41333333333333,182.42220529175273L188.25,182.42336395129146L189.08666666666667,182.42449106447015L189.92333333333335,182.42558749091467L190.76,182.4266540667874L191.59666666666666,182.4276916054299L192.43333333333334,182.42870089798762L193.27,182.42968271401753L194.10666666666665,182.43063780207896L194.94333333333333,182.4315668903082L195.78,182.4324706869774L196.61666666666667,182.43334988103794L197.45333333333335,182.4342051426487L198.29,182.43503712369028L199.12666666666667,182.4358464582647L199.96333333333334,182.43663376318142L200.8,182.43739963843018L201.63666666666666,182.43814466764053L202.47333333333333,182.4388694185292L203.31,182.4395744433348L204.14666666666668,182.44026027924076L204.98333333333332,182.44092744878654L205.82,182.4415764602678L206.65666666666667,182.4422078081253L207.49333333333334,182.44282197332342L208.33,182.44341942371807L209.16666666666666,182.44400061441462L210.00333333333333,182.4445659881161L210.84,182.44511597546156L211.67666666666668,182.4456509953557L212.51333333333332,182.4461714552888L213.35,182.44667775164848L214.18666666666667,182.44717027002258L215.02333333333334,182.44764938549392L215.86,182.44811546292678L216.69666666666666,182.44856885724585L217.53333333333333,182.44900991370733L218.37,182.44943896816255L219.20666666666668,182.44985634731475L220.04333333333332,182.45026236896828L220.88,182.4506573422715L221.71666666666667,182.45104156795284L222.55333333333334,182.45141533855022L223.39000000000001,182.4517789386345L224.22666666666666,182.45213264502675L225.06333333333333,182.45247672700944L225.9,182.452811446532L226.73666666666668,182.45313705841065L227.57333333333332,182.45345381052297L228.41,182.45376194399682L229.24666666666667,182.45406169339464L230.08333333333334,182.45435328689194L230.92,182.45463694645176L231.75666666666666,182.45491288799374L232.59333333333333,182.45518132155888L233.43,182.45544245146974L234.26666666666668,182.45569647648614L235.10333333333332,182.45594358995695L235.94,182.4561839799672L236.77666666666667,182.45641782948178L237.61333333333334,182.45664531648475L238.45,182.4568666141151L239.28666666666666,182.45708189079875L240.12333333333333,182.45729131037677L240.96,182.45749503223053L241.79666666666668,182.45769321140293L242.63333333333333,182.45788599871673L243.47,182.4580735408894L244.30666666666667,182.45825598064494L245.14333333333335,182.45843345682263L245.98,182.45860610448295L246.81666666666666,182.45877405501028L247.65333333333334,182.45893743621312L248.49,182.45909637242144L249.32666666666665,182.45925098458144L250.16333333333333,182.4594013903477"></path></g><g transform="translate(1,20)"><text class="small" x="0" y="207">0</text><text class="small" x="0" y="136">0.5</text><text class="small" x="0" y="65">1</text><text class="small" x="0" y="-6">1.5</text></g></svg>