<svg width="253" height="253"><g transform="translate(1,20)"><line x1="0" y1="213" x2="251" y2="213" stroke-width="1" stroke="#DDDDDD"></line><line x1="0" y1="159.75" x2="251" y2="159.75" stroke-width="1" stroke="#DDDDDD"></line><line x1="0" y1="106.5" x2="251" y2="106.5" stroke-width="1" stroke="#DDDDDD"></line><line x1="0" y1="53.25" x2="251" y2="53.25" stroke-width="1" stroke="#DDDDDD"></line><line x1="0" y1="0" x2="251" y2="0" stroke-width="1" stroke="#DDDDDD"></line><line x1="0" y1="106.5" x2="251" y2="106.5" stroke-width="1" stroke="#777777"></line><text class="small timeline" x="0" y="121.5" text-anchor="start">0</text><line class="timeline" x1="0" y1="103.5" x2="0" y2="109.5" stroke-width="1" stroke="#777777"></line><line class="timeline" x1="8.366666666666722" y1="104.5" x2="8.366666666666722" y2="108.5" stroke-width="1" stroke="#777777"></line><line class="timeline" x1="16.733333333333444" y1="104.5" x2="16.733333333333444" y2="108.5" stroke-width="1" stroke="#777777"></line><line class="timeline" x1="25.100000000000172" y1="104.5" x2="25.100000000000172" y2="108.5" stroke-width="1" stroke="#777777"></line><line class="timeline" x1="33.46666666666689" y1="104.5" x2="33.46666666666689" y2="108.5" stroke-width="1" stroke="#777777"></line><line class="timeline" x1="41.83333333333361" y1="104.5" x2="41.83333333333361" y2="108.5" stroke-width="1" stroke="#777777"></line><line class="timeline" x1="50.20000000000034" y1="104.5" x2="50.20000000000034" y2="108.5" stroke-width="1" stroke="#777777"></line><line class="timeline" x1="58.566666666667054" y1="104.5" x2="58.566666666667054" y2="108.5" stroke-width="1" stroke="#777777"></line><line class="timeline" x1="66.93333333333378" y1="104.5" x2="66.93333333333378" y2="108.5" stroke-width="1" stroke="#777777"></line><line class="timeline" x1="75.3000000000005" y1="104.5" x2="75.3000000000005" y2="108.5" stroke-width="1" stroke="#777777"></line><text class="small timeline" x="84" y="121.5" text-anchor="start">1</text><line class="timeline" x1="83.66666666666721" y1="103.5" x2="83.66666666666721" y2="109.5" stroke-width="1" stroke="#777777"></line><line class="timeline" x1="92.03333333333394" y1="104.5" x2="92.03333333333394" y2="108.5" stroke-width="1" stroke="#777777"></line><line class="timeline" x1="100.40000000000067" y1="104.5" x2="100.40000000000067" y2="108.5" stroke-width="1" stroke="#777777"></line><line class="timeline" x1="108.76666666666739" y1="104.5" x2="108.76666666666739" y2="108.5" stroke-width="1" stroke="#777777"></line><line class="timeline" x1="117.13333333333412" y1="104.5" x2="117.13333333333412" y2="108.5" stroke-width="1" stroke="#777777"></line><line class="timeline" x1="125.50000000000085" y1="104.5" x2="125.50000000000085" y2="108.5" stroke-width="1" stroke="#777777"></line><line class="timeline" x1="133.86666666666758" y1="104.5" x2="133.86666666666758" y2="108.5" stroke-width="1" stroke="#777777"></line><line class="timeline" x1="142.23333333333431" y1="104.5" x2="142.23333333333431" y2="108.5" stroke-width="1" stroke="#777777"></line><line class="timeline" x1="150.60000000000105" y1="104.5" x2="150.60000000000105" y2="108.5" stroke-width="1" stroke="#777777"></line><line class="timeline" x1="158.96666666666778" y1="104.5" x2="158.96666666666778" y2="108.5" stroke-width="1" stroke="#777777"></line><text class="small timeline" x="167" y="121.5" text-anchor="start">2</text><line class="timeline" x1="167.33333333333448" y1="103.5" x2="167.33333333333448" y2="109.5" stroke-width="1" stroke="#777777"></line><line class="timeline" x1="175.7000000000012" y1="104.5" x2="175.7000000000012" y2="108.5" stroke-width="1" stroke="#777777"></line><line class="timeline" x1="184.06666666666794" y1="104.5" x2="184.06666666666794" y2="108.5" stroke-width="1" stroke="#777777"></line><line class="timeline" x1="192.43333333333467" y1="104.5" x2="192.43333333333467" y2="108.5" stroke-width="1" stroke="#777777"></line><line class="timeline" x1="200.8000000000014" y1="104.5" x2="200.8000000000014" y2="108.5" stroke-width="1" stroke="#777777"></line><line class="timeline" x1="209.16666666666814" y1="104.5" x2="209.16666666666814" y2="108.5" stroke-width="1" stroke="#777777"></line><line class="timeline" x1="217.53333333333487" y1="104.5" x2="217.53333333333487" y2="108.5" stroke-width="1" stroke="#777777"></line><line class="timeline" x1="225.9000000000016" y1="104.5" x2="225.9000000000016" y2="108.5" stroke-width="1" stroke="#777777"></line><line class="timeline" x1="234.26666666666833" y1="104.5" x2="234.26666666666833" y2="108.5" stroke-width="1" stroke="#777777"></line><line class="timeline" x1="242.63333333333506" y1="104.5" x2="242.63333333333506" y2="108.5" stroke-width="1" stroke="#777777"></line><text class="small timeline" x="251" y="121.5" text-anchor="end">3</text><line class="timeline" x1="251.0000000000018" y1="103.5" x2="251.0000000000018" y2="109.5" stroke-width="1" stroke="#777777"></line></g><g transform="translate(1,20)"><path fill="transparent" stroke="#49e2a3" stroke-width="4" d="M0,127.80000000000003L0.8366666666666667,127.71480000000001L1.6733333333333333,127.6311322368L2.51,127.54896650135984L3.3466666666666667,127.46827327000346L4.183333333333334,127.38902368586201L5.02,127.31118954091917L5.8566666666666665,127.23474325863522L6.693333333333333,127.1596578771284L7.53,127.08590703289234L8.366666666666667,127.01346494502972L9.203333333333333,126.942306399983L10.04,126.87240673674359L10.876666666666667,126.80374183252219L11.713333333333333,126.73628808886332L12.55,126.67002241818773L13.386666666666667,126.6049222307476L14.223333333333333,126.54096542197921L15.06,126.47813036023925L15.896666666666667,126.41639587491088L16.733333333333334,126.3557412448667L17.57,126.29614618727568L18.406666666666666,126.23759084674226L19.243333333333332,126.18005578476622L20.08,126.1235219695117L20.916666666666668,126.06797076587519L21.753333333333334,126.01338392584195L22.59,125.95974357912112L23.426666666666666,125.90703222405008L24.263333333333332,125.85523271875884L25.1,125.80432827258585L25.936666666666667,125.75430243773683L26.773333333333333,125.70513910117845L27.61,125.65682247675903L28.446666666666665,125.609337097549L29.283333333333335,125.56266780839364L30.12,125.51679975867155L30.956666666666667,125.47171839525171L31.793333333333333,125.4274094556431L32.63,125.3838589613305L33.46666666666667,125.34105321129064L34.303333333333335,125.29897877568278L35.14,125.25762248970838L35.97666666666667,125.2169714476345L36.81333333333333,125.1770129969757L37.65,125.13773473282957L38.486666666666665,125.09912449236113L39.32333333333333,125.06117034943144L40.16,125.02386060936611L40.99666666666667,124.98718380385925L41.833333333333336,124.95112868600889L42.67,124.91568422547975L43.50666666666667,124.88083960378972L44.343333333333334,124.84658420971611L45.18,124.81290763481816L46.016666666666666,124.77979966907253L46.85333333333333,124.74725029661816L47.69,124.7152496916074L48.526666666666664,124.68378821416032L49.36333333333334,124.65285640641919L50.2,124.62244498870015L51.03666666666667,124.59254485573926L51.873333333333335,124.56314707303034L52.71,124.53424287325178L53.54666666666667,124.50582365278002L54.38333333333333,124.47788096828698L55.22,124.45040653341916L56.056666666666665,124.4233922155563L56.89333333333333,124.39683003264719L57.73,124.37071215012027L58.56666666666667,124.34503087786743L59.403333333333336,124.3197786672987L60.24,124.2949481084658L61.07666666666667,124.27053192725289L61.913333333333334,124.24652298263247L62.75,124.2229142639849L63.586666666666666,124.19969888847959L64.42333333333333,124.17687009851633L65.26,124.1544212592251L66.09666666666666,124.13234585602287L66.93333333333334,124.11063749222575L67.77,124.08928988671522L68.60666666666667,124.06829687165673L69.44333333333333,124.04765239026959L70.28,124.02735049464677L71.11666666666666,124.00738534362289L71.95333333333333,123.98775120068991L72.79,123.96844243195866L73.62666666666667,123.94945350416513L74.46333333333334,123.93077898272087L75.3,123.91241352980549L76.13666666666667,123.89435190250126L76.97333333333333,123.87658895096769L77.81,123.85911961665596L78.64666666666666,123.84193893056162L79.48333333333333,123.82504201151491L80.32,123.8084240645076L81.15666666666667,123.7920803790556L81.99333333333334,123.77600632759639L82.83,123.76019736392021L83.66666666666667,123.74464902163474L84.50333333333333,123.72935691266169L85.34,123.71431672576533L86.17666666666666,123.69952422511145L87.01333333333334,123.68497524885655L87.85,123.67066570776632L88.68666666666667,123.65659158386275L89.52333333333334,123.64274892909916L90.36,123.62913386406241L91.19666666666667,123.61574257670198L92.03333333333333,123.60257132108482L92.87,123.58961641617582L93.70666666666666,123.5768742446428L94.54333333333334,123.56434125168606L95.38,123.55201394389145L96.21666666666667,123.53988888810649L97.05333333333333,123.52796271033924L97.89,123.51623209467908L98.72666666666667,123.50469378223933L99.56333333333333,123.49334457012066L100.4,123.48218131039526L101.23666666666666,123.47120090911119L102.07333333333334,123.46040032531634L102.91,123.44977657010169L103.74666666666667,123.43932670566333L104.58333333333333,123.42904784438299L105.42,123.41893714792651L106.25666666666666,123.40899182635985L107.09333333333333,123.39920913728237L107.93,123.38958638497702L108.76666666666667,123.38012091957691L109.60333333333334,123.3708101362479L110.44,123.36165147438713L111.27666666666667,123.35264241683694L112.11333333333333,123.34378048911368L112.95,123.33506325865156L113.78666666666666,123.32648833406076L114.62333333333333,123.31805336439973L115.46,123.30975603846132L116.29666666666667,123.30159408407246L117.13333333333334,123.29356526740715L117.97,123.28566739231229L118.80666666666667,123.2778982996464L119.64333333333333,123.27025586663054L120.48,123.26273800621169L121.31666666666666,123.25534266643785L122.15333333333334,123.24806782984489L122.99,123.24091151285475L123.82666666666667,123.23387176518513L124.66333333333333,123.2269466692697L125.5,123.22013433968938L126.33666666666667,123.21343292261412L127.17333333333333,123.20684059525489L128.01,123.20035556532578L128.84666666666666,123.19397607051603L129.68333333333334,123.18770037797182L130.52,123.18152678378742L131.35666666666665,123.17545361250575L132.19333333333333,123.16947921662803L133.03,123.16360197613244L133.86666666666667,123.15782029800135L134.70333333333335,123.15213261575741L135.54,123.14653738900775L136.37666666666667,123.14103310299681L137.21333333333334,123.13561826816684L138.05,123.13029141972663L138.88666666666666,123.12505111722794L139.72333333333333,123.11989594414948L140.56,123.1148245074884L141.39666666666668,123.1098354373591L142.23333333333332,123.10492738659937L143.07,123.10009903038329L143.90666666666667,123.09534906584122L144.74333333333334,123.09067621168664L145.58,123.0860792078494L146.41666666666666,123.08155681511569L147.25333333333333,123.07710781477432L148.09,123.07273100826929L148.92666666666668,123.06842521685842L149.76333333333332,123.06418928127827L150.6,123.06002206141457L151.43666666666667,123.05592243597891L152.27333333333334,123.05188930219073L153.11,123.04792157546517L153.94666666666666,123.04401818910624L154.78333333333333,123.04017809400551L155.62,123.03640025834594L156.45666666666668,123.03268366731098L157.29333333333332,123.02902732279875L158.13,123.02543024314113L158.96666666666667,123.02189146282784L159.80333333333334,123.01841003223532L160.64,123.01498501736029L161.47666666666666,123.01161549955783L162.31333333333333,123.00830057528427L163.15,123.00503935584432L163.98666666666668,123.00183096714258L164.82333333333332,122.99867454943958L165.66,122.9955692571117L166.49666666666667,122.99251425841547L167.33333333333334,122.98950873525592L168.17,122.98655188295874L169.00666666666666,122.98364291004663L169.84333333333333,122.98078103801922L170.68,122.97796550113702L171.51666666666668,122.97519554620894L172.35333333333332,122.9724704323833L173.19,122.96978943094291L174.02666666666667,122.96715182510303L174.86333333333334,122.96455690981333L175.7,122.96200399156278L176.53666666666666,122.95949238818834L177.37333333333333,122.95702142868639L178.21,122.95459045302785L179.04666666666668,122.95219881197609L179.88333333333333,122.94984586690819L180.72,122.94753098963912L181.55666666666667,122.9452535622488L182.39333333333335,122.94301297691239L183.23,122.94080863573312L184.06666666666666,122.93863995057828L184.90333333333334,122.93650634291761L185.74,122.93440724366481L186.57666666666665,122.93234209302148L187.41333333333333,122.93031034032373L188.25,122.9283114438915L189.08666666666667,122.92634487088029L189.92333333333335,122.92441009713544L190.76,122.92250660704879L191.59666666666666,122.920633893418L192.43333333333334,122.91879145730792L193.27,122.91697880791443L194.10666666666665,122.91519546243069L194.94333333333333,122.91344094591534L195.78,122.91171479116322L196.61666666666667,122.91001653857806L197.45333333333335,122.90834573604741L198.29,122.90670193881961L199.12666666666667,122.9050847093827L199.96333333333334,122.9034936173458L200.8,122.90192823932176L201.63666666666666,122.9003881588125L202.47333333333333,122.89887296609578L203.31,122.89738225811404L204.14666666666668,122.89591563836507L204.98333333333332,122.8944727167945L205.82,122.89305310969007L206.65666666666667,122.89165643957776L207.49333333333334,122.89028233511941L208.33,122.88893043101235L209.16666666666666,122.88760036789049L210.00333333333333,122.88629179222703L210.84,122.88500435623904L211.67666666666668,122.88373771779327L212.51333333333332,122.88249154031386L213.35,122.8812654926913L214.18666666666667,122.8800592491931L215.02333333333334,122.8788724893759L215.86,122.87770489799891L216.69666666666666,122.87655616493893L217.53333333333333,122.87542598510674L218.37,122.87431405836485L219.20666666666668,122.87322008944655L220.04333333333332,122.87214378787651L220.88,122.8710848678924L221.71666666666667,122.87004304836809L222.55333333333334,122.86901805273784L223.39000000000001,122.86800960892205L224.22666666666666,122.86701744925388L225.06333333333333,122.86604131040751L225.9,122.86508093332709L226.73666666666668,122.86413606315733L227.57333333333332,122.86320644917487L228.41,122.86229184472099L229.24666666666667,122.86139200713541L230.08333333333334,122.86050669769108L230.92,122.85963568153007L231.75666666666666,122.85877872760072L232.59333333333333,122.85793560859537L233.43,122.85710610088971L234.26666666666668,122.85628998448254L235.10333333333332,122.85548704293697L235.94,122.8546970633223L236.77666666666667,122.85391983615706L237.61333333333334,122.85315515535278L238.45,122.8524028181589L239.28666666666666,122.85166262510832L240.12333333333333,122.85093437996422L240.96,122.8502178896673L241.79666666666668,122.84951296428433L242.63333333333333,122.84881941695713L243.47,122.84813706385268L244.30666666666667,122.84746572411395L245.14333333333335,122.84680521981159L245.98,122.84615537589619L246.81666666666666,122.8455160201517L247.65333333333334,122.84488698314927L248.49,122.84426809820191L249.32666666666665,122.8436592013202L250.16333333333333,122.84306013116823"></path></g><g transform="translate(1,20)"><text class="small" x="0" y="207">-1</text><text class="small" x="0" y="153.75">-0.5</text><text class="small" x="0" y="100.5">0</text><text class="small" x="0" y="47.25">0.5</text><text class="small" x="0" y="-6">1</text></g></svg>