<svg width="253" height="253"><g transform="translate(1,20)"><line x1="0" y1="213" x2="251" y2="213" stroke-width="1" stroke="#DDDDDD"></line><line x1="0" y1="159.75" x2="251" y2="159.75" stroke-width="1" stroke="#DDDDDD"></line><line x1="0" y1="106.5" x2="251" y2="106.5" stroke-width="1" stroke="#DDDDDD"></line><line x1="0" y1="53.25" x2="251" y2="53.25" stroke-width="1" stroke="#DDDDDD"></line><line x1="0" y1="0" x2="251" y2="0" stroke-width="1" stroke="#DDDDDD"></line><line x1="0" y1="106.5" x2="251" y2="106.5" stroke-width="1" stroke="#777777"></line><text class="small timeline" x="0" y="121.5" text-anchor="start">0</text><line class="timeline" x1="0" y1="103.5" x2="0" y2="109.5" stroke-width="1" stroke="#777777"></line><line class="timeline" x1="8.366666666666722" y1="104.5" x2="8.366666666666722" y2="108.5" stroke-width="1" stroke="#777777"></line><line class="timeline" x1="16.733333333333444" y1="104.5" x2="16.733333333333444" y2="108.5" stroke-width="1" stroke="#777777"></line><line class="timeline" x1="25.100000000000172" y1="104.5" x2="25.100000000000172" y2="108.5" stroke-width="1" stroke="#777777"></line><line class="timeline" x1="33.46666666666689" y1="104.5" x2="33.46666666666689" y2="108.5" stroke-width="1" stroke="#777777"></line><line class="timeline" x1="41.83333333333361" y1="104.5" x2="41.83333333333361" y2="108.5" stroke-width="1" stroke="#777777"></line><line class="timeline" x1="50.20000000000034" y1="104.5" x2="50.20000000000034" y2="108.5" stroke-width="1" stroke="#777777"></line><line class="timeline" x1="58.566666666667054" y1="104.5" x2="58.566666666667054" y2="108.5" stroke-width="1" stroke="#777777"></line><line class="timeline" x1="66.93333333333378" y1="104.5" x2="66.93333333333378" y2="108.5" stroke-width="1" stroke="#777777"></line><line class="timeline" x1="75.3000000000005" y1="104.5" x2="75.3000000000005" y2="108.5" stroke-width="1" stroke="#777777"></line><text class="small timeline" x="84" y="121.5" text-anchor="start">1</text><line class="timeline" x1="83.66666666666721" y1="103.5" x2="83.66666666666721" y2="109.5" stroke-width="1" stroke="#777777"></line><line class="timeline" x1="92.03333333333394" y1="104.5" x2="92.03333333333394" y2="108.5" stroke-width="1" stroke="#777777"></line><line class="timeline" x1="100.40000000000067" y1="104.5" x2="100.40000000000067" y2="108.5" stroke-width="1" stroke="#777777"></line><line class="timeline" x1="108.76666666666739" y1="104.5" x2="108.76666666666739" y2="108.5" stroke-width="1" stroke="#777777"></line><line class="timeline" x1="117.13333333333412" y1="104.5" x2="117.13333333333412" y2="108.5" stroke-width="1" stroke="#777777"></line><line class="timeline" x1="125.50000000000085" y1="104.5" x2="125.50000000000085" y2="108.5" stroke-width="1" stroke="#777777"></line><line class="timeline" x1="133.86666666666758" y1="104.5" x2="133.86666666666758" y2="108.5" stroke-width="1" stroke="#777777"></line><line class="timeline" x1="142.23333333333431" y1="104.5" x2="142.23333333333431" y2="108.5" stroke-width="1" stroke="#777777"></line><line class="timeline" x1="150.60000000000105" y1="104.5" x2="150.60000000000105" y2="108.5" stroke-width="1" stroke="#777777"></line><line class="timeline" x1="158.96666666666778" y1="104.5" x2="158.96666666666778" y2="108.5" stroke-width="1" stroke="#777777"></line><text class="small timeline" x="167" y="121.5" text-anchor="start">2</text><line class="timeline" x1="167.33333333333448" y1="103.5" x2="167.33333333333448" y2="109.5" stroke-width="1" stroke="#777777"></line><line class="timeline" x1="175.7000000000012" y1="104.5" x2="175.7000000000012" y2="108.5" stroke-width="1" stroke="#777777"></line><line class="timeline" x1="184.06666666666794" y1="104.5" x2="184.06666666666794" y2="108.5" stroke-width="1" stroke="#777777"></line><line class="timeline" x1="192.43333333333467" y1="104.5" x2="192.43333333333467" y2="108.5" stroke-width="1" stroke="#777777"></line><line class="timeline" x1="200.8000000000014" y1="104.5" x2="200.8000000000014" y2="108.5" stroke-width="1" stroke="#777777"></line><line class="timeline" x1="209.16666666666814" y1="104.5" x2="209.16666666666814" y2="108.5" stroke-width="1" stroke="#777777"></line><line class="timeline" x1="217.53333333333487" y1="104.5" x2="217.53333333333487" y2="108.5" stroke-width="1" stroke="#777777"></line><line class="timeline" x1="225.9000000000016" y1="104.5" x2="225.9000000000016" y2="108.5" stroke-width="1" stroke="#777777"></line><line class="timeline" x1="234.26666666666833" y1="104.5" x2="234.26666666666833" y2="108.5" stroke-width="1" stroke="#777777"></line><line class="timeline" x1="242.63333333333506" y1="104.5" x2="242.63333333333506" y2="108.5" stroke-width="1" stroke="#777777"></line><text class="small timeline" x="251" y="121.5" text-anchor="end">3</text><line class="timeline" x1="251.0000000000018" y1="103.5" x2="251.0000000000018" y2="109.5" stroke-width="1" stroke="#777777"></line></g><g transform="translate(1,20)"><path fill="transparent" stroke="#49e2a3" stroke-width="4" d="M0,21.30000000000001L0.8366666666666667,22.663200000000046L1.6733333333333333,23.969494579200045L2.51,25.221914060640444L3.3466666666666667,26.423282197774114L4.183333333333334,27.576233551191166L5.02,28.6832291331377L5.8566666666666665,29.74657051845341L6.693333333333333,30.768412594898706L7.53,31.750775103859866L8.366666666666667,32.69555310353931L9.203333333333333,33.604526470474326L10.04,34.47936854118623L10.876666666666667,35.321653983610304L11.713333333333333,36.13286597741342L12.55,36.91440277314214L13.386666666666667,37.667583692156L14.223333333333333,38.39365462232857L15.06,39.09379305839684L15.896666666666667,39.769112730489724L16.733333333333334,40.42066785966861L17.57,41.049457075177514L18.406666666666666,41.65642702445467L19.243333333333332,42.242475703737796L20.08,42.80845553424686L20.916666666666668,43.35517620640357L21.753333333333334,43.88340731230653L22.59,44.39388078468892L23.426666666666666,44.8872931588113L24.263333333333332,45.36430767216183L25.1,45.82555621542221L25.936666666666667,46.271641146895746L26.773333333333333,46.703136981462194L27.61,47.12059196410914L28.446666666666665,47.524529537180314L29.283333333333335,47.91544970966032L30.12,48.29383033607945L30.956666666666667,48.66012831195718L31.793333333333333,49.014780692103216L32.63,49.35820573755342L33.46666666666667,49.69080389642798L34.303333333333335,50.01295872355459L35.14,50.32503774329871L35.97666666666667,50.62739325967644L36.81333333333333,50.920363117494475L37.65,51.20427141796108L38.486666666666665,51.47942919193517L39.32333333333333,51.746135033733225L40.16,52.00467569818355L40.99666666666667,52.25532666341019L41.833333333333336,52.49835266163868L42.67,52.73400818014093L43.50666666666667,52.962537934278146L44.343333333333334,53.18417731445433L45.18,53.39915280865941L46.016666666666666,53.60768240215742L46.85333333333333,53.80997595576423L47.69,54.00623556405296L48.526666666666664,54.19665589473294L49.36333333333334,54.38142451035725L50.2,54.56072217343575L51.03666666666667,54.734723135954L51.873333333333335,54.90359541423038L52.71,55.06750104998076L53.54666666666667,55.2265963584L54.38333333333333,55.3810321640168L55.22,55.5309540250276L56.056666666666665,55.67650244676773L56.89333333333333,55.81781308493731L57.73,55.955016939157105L58.56666666666667,56.08824053739389L59.403333333333336,56.21760611175998L60.24,56.34323176616016L61.07666666666667,56.46523163622871L61.913333333333334,56.583716041972764L62.75,56.698791633511405L63.586666666666666,56.8105615302772L64.42333333333333,56.919125454023515L65.26,57.02457985596098L66.09666666666666,57.12701803832704L66.93333333333334,57.22653027067386L67.77,57.32320390114401L68.60666666666667,57.41712346298675L69.44333333333333,57.50837077655362L70.28,57.597025046998L71.11666666666666,57.68316295789026L71.95333333333333,57.76685876094908L72.79,57.84818436207675L73.62666666666667,57.9272094038769L74.46333333333334,58.00400134482308L75.3,58.07862553523643L76.13666666666667,58.15114529022341L76.97333333333333,58.22162195971498L77.81,58.290114995742385L78.64666666666666,58.3566820170758L79.48333333333333,58.42137887134726L80.32,58.484259694771396L81.15666666666667,58.54537696957186L81.99333333333334,58.604781579217075L82.83,58.662522861560944L83.66666666666667,58.71864865998211L84.50333333333333,58.77320537260823L85.34,58.826237999709434L86.17666666666666,58.8777901893387L87.01333333333334,58.927904281295184L87.85,58.976621349481206L88.68666666666667,59.023981242720765L89.52333333333334,59.070022624104155L90.36,59.11478300892L91.19666666666667,59.158298801233L92.03333333333333,59.20060532916307L92.87,59.241736878918886L93.70666666666666,59.28172672763603L94.54333333333334,59.320607175068346L95.38,59.358409574177614L96.21666666666667,59.39516436066606L97.05333333333333,59.43090108149295L97.89,59.465648422415114L98.72666666666667,59.49943423458981L99.56333333333333,59.5322855602756L100.4,59.564228657666575L101.23666666666666,59.59528902489271L102.07333333333334,59.62549142321811L102.91,59.65485989946757L103.74666666666667,59.68341780771016L104.58333333333333,59.71118783022786L105.42,59.73819199779567L106.25666666666666,59.76445170929847L107.09333333333333,59.7899877507092L107.93,59.81482031345166L108.76666666666667,59.83896901216977L109.60333333333334,59.86245290192551L110.44,59.885290494845236L111.27666666666667,59.9074997762348L112.11333333333333,59.92909822018163L112.95,59.95010280466252L113.78666666666666,59.97053002617392L114.62333333333333,59.990395913901864L115.46,60.00971604344744L116.29666666666667,60.028505550122986L117.13333333333334,60.04677914183395L117.97,60.06455111156066L118.80666666666667,60.081835349453655L119.64333333333333,60.0986453545554L120.48,60.11499424616147L121.31666666666666,60.13089477483294L122.15333333333334,60.146359333071956L122.99,60.16139996567151L123.82666666666667,60.17602837975028L124.66333333333333,60.190255954483035L125.5,60.20409375053654L126.33666666666667,60.2175525192207L127.17333333333333,60.23064271136391L128.01,60.24337448592226L128.84666666666666,60.25575771833056L129.68333333333334,60.26780200860375L130.52,60.2795166891967L131.35666666666665,60.29091083263043L132.19333333333333,60.301993258891514L133.03,60.31277254261272L133.86666666666667,60.323257020041126L134.70333333333335,60.333454795800776L135.54,60.34337374945619L136.37666666666667,60.35302154188318L137.21333333333334,60.36240562145289L138.05,60.37153323003446L138.88666666666666,60.38041140882291L139.72333333333333,60.38904700399658L140.56,60.39744667221004L141.39666666666668,60.405616885927685L142.23333333333332,60.413563938602124L143.07,60.421293949702715L143.90666666666667,60.428812869599085L144.74333333333334,60.436126484302974L145.58,60.44324042007406L146.41666666666666,60.45016014789266L147.25333333333333,60.456890987804286L148.09,60.463438113139176L148.92666666666668,60.469806554611154L149.76333333333332,60.47600120429885L150.6,60.482026819513436L151.43666666666667,60.48788802655585L152.27333333333334,60.49358932436667L153.11,60.499135088072336L153.94666666666666,60.50452957243019L154.78333333333333,60.50977691517599L155.62,60.51488114027623L156.45666666666668,60.51984616108811L157.29333333333332,60.5246757834303L158.13,60.52937370856665L158.96666666666667,60.53394353610568L159.80333333333334,60.53838876681823L160.64,60.54271280537543L161.47666666666666,60.54691896300977L162.31333333333333,60.551010460101196L163.15,60.55499042869039L163.98666666666668,60.55886191492138L164.82333333333332,60.56262788141578L165.66,60.5662912095803L166.49666666666667,60.56985470184938L167.33333333333334,60.573321083865466L168.17,60.57669300659785L169.00666666666666,60.57997304840234L169.84333333333333,60.58316371702358L170.68,60.58626745154115L171.51666666666668,60.58928662426169L172.35333333333332,60.59222354255789L173.19,60.595080450656525L174.02666666666667,60.59785953137657L174.86333333333334,60.600562907818926L175.7,60.6031926450091L176.53666666666666,60.60575075149444L177.37333333333333,60.608239180896646L178.21,60.61065983342152L179.04666666666668,60.61301455732655L179.88333333333333,60.615305150347865L180.72,60.61753336108771L181.55666666666667,60.61970089036336L182.39333333333335,60.621809392518855L183.23,60.6238604767L184.06666666666666,60.625855708094775L184.90333333333334,60.627796609138585L185.74,60.62968466068713L186.57666666666665,60.63152130315595L187.41333333333333,60.63330793762913L188.25,60.63504592693721L189.08666666666667,60.63673659670525L189.92333333333335,60.638381236372L190.76,60.6399811001811L191.59666666666666,60.64153740814487L192.43333333333334,60.64305134698145L193.27,60.644524071026325L194.10666666666665,60.64595670311843L194.94333333333333,60.647350335462306L195.78,60.648706030466144L196.61666666666667,60.65002482155691L197.45333333333335,60.65130771397304L198.29,60.65255568553542L199.12666666666667,60.653769687397045L199.96333333333334,60.65495064477213L200.8,60.65609945764524L201.63666666666666,60.65721700146079L202.47333333333333,60.6583041277938L203.31,60.65936166500222L204.14666666666668,60.66039041886114L204.98333333333332,60.66139117317982L205.82,60.66236469040169L206.65666666666667,60.66331171218795L207.49333333333334,60.66423295998513L208.33,60.665129135577104L209.16666666666666,60.66600092162193L210.00333333333333,60.666848982174116L210.84,60.66767396319236L211.67666666666668,60.66847649303352L212.51333333333332,60.669257182933194L213.35,60.670016627472705L214.18666666666667,60.6707554050339L215.02333333333334,60.67147407824089L215.86,60.67217319439018L216.69666666666666,60.6728532858688L217.53333333333333,60.67351487056098L218.37,60.67415845224386L219.20666666666668,60.67478452097211L220.04333333333332,60.67539355345244L220.88,60.67598601340728L221.71666666666667,60.67656235192925L222.55333333333334,60.677123007825315L223.39000000000001,60.67766840795176L224.22666666666666,60.67819896754014L225.06333333333333,60.678715090514174L225.9,60.679217169797994L226.73666666666668,60.679705587615985L227.57333333333332,60.680180715784445L228.41,60.680642915995236L229.24666666666667,60.681092540091925L230.08333333333334,60.681529930337916L230.92,60.68195541967762L231.75666666666666,60.6823693319906L232.59333333333333,60.68277198233832L233.43,60.68316367720462L234.26666666666668,60.68354471472924L235.10333333333332,60.6839153849354L235.94,60.68427596995079L236.77666666666667,60.68462674422267L237.61333333333334,60.68496797472713L238.45,60.685299921172685L239.28666666666666,60.68562283619812L240.12333333333333,60.68593696556516L240.96,60.686242548345774L241.79666666666668,60.686539817104375L242.63333333333333,60.6868289980751L243.47,60.68711031133407L244.30666666666667,60.6873839709674L245.14333333333335,60.68765018523396L245.98,60.68790915672443L246.81666666666666,60.68816108251542L247.65333333333334,60.68840615431969L248.49,60.68864455863218L249.32666666666665,60.688876476872196L250.16333333333333,60.68910208552157"></path></g><g transform="translate(1,20)"><text class="small" x="0" y="207">-1</text><text class="small" x="0" y="153.75">-0.5</text><text class="small" x="0" y="100.5">0</text><text class="small" x="0" y="47.25">0.5</text><text class="small" x="0" y="-6">1</text></g></svg>