<?xml version="1.0" encoding="utf-8"?>
<!-- Generator: Adobe Illustrator 21.0.2, SVG Export Plug-In . SVG Version: 6.00 Build 0)  -->
<svg version="1.1" id="Ebene_1" xmlns="http://www.w3.org/2000/svg" xmlns:xlink="http://www.w3.org/1999/xlink" x="0px" y="0px"
	 viewBox="0 0 610 253" style="enable-background:new 0 0 610 253;" xml:space="preserve">
<style type="text/css">
	.st0{fill:none;stroke:#DDDDDD;}
	.st1{fill:none;stroke:#777777;}
	.st2{font-family:'ArialMT';}
	.st3{font-size:12px;}
	.st4{stroke:#49E2A3;stroke-width:4;}
	.st5{opacity:0.2;stroke:#49E2A3;stroke-width:4;enable-background:new    ;}
	.st6{fill:none;stroke:#777777;stroke-dasharray:1,3;}
</style>
<g transform="translate(1,20)">
	<line class="st0" x1="0" y1="213" x2="251" y2="213"/>
	<line class="st0" x1="0" y1="159.8" x2="251" y2="159.8"/>
	<line class="st0" x1="0" y1="106.5" x2="251" y2="106.5"/>
	<line class="st0" x1="0" y1="53.3" x2="251" y2="53.3"/>
	<line class="st0" x1="0" y1="0" x2="251" y2="0"/>
	<line class="st1" x1="0" y1="106.5" x2="251" y2="106.5"/>
	<line class="st0" x1="0" y1="213" x2="251" y2="0"/>
	<text transform="matrix(1 0 0 1 0.5 121.5)" class="st2 st3">-2</text>
	<line class="st1" x1="0.5" y1="103.5" x2="0.5" y2="109.5"/>
	<line class="st1" x1="6.5" y1="104.5" x2="6.5" y2="108.5"/>
	<line class="st1" x1="12.5" y1="104.5" x2="12.5" y2="108.5"/>
	<line class="st1" x1="18.5" y1="104.5" x2="18.5" y2="108.5"/>
	<line class="st1" x1="25.5" y1="104.5" x2="25.5" y2="108.5"/>
	<line class="st1" x1="31.5" y1="104.5" x2="31.5" y2="108.5"/>
	<line class="st1" x1="37.5" y1="104.5" x2="37.5" y2="108.5"/>
	<line class="st1" x1="43.5" y1="104.5" x2="43.5" y2="108.5"/>
	<line class="st1" x1="50.5" y1="104.5" x2="50.5" y2="108.5"/>
	<line class="st1" x1="56.5" y1="104.5" x2="56.5" y2="108.5"/>
	<text transform="matrix(1 0 0 1 62.5 121.5)" class="st2 st3">-1</text>
	<line class="st1" x1="62.5" y1="103.5" x2="62.5" y2="109.5"/>
	<line class="st1" x1="69.5" y1="104.5" x2="69.5" y2="108.5"/>
	<line class="st1" x1="75.5" y1="104.5" x2="75.5" y2="108.5"/>
	<line class="st1" x1="81.5" y1="104.5" x2="81.5" y2="108.5"/>
	<line class="st1" x1="87.5" y1="104.5" x2="87.5" y2="108.5"/>
	<line class="st1" x1="94.5" y1="104.5" x2="94.5" y2="108.5"/>
	<line class="st1" x1="100.5" y1="104.5" x2="100.5" y2="108.5"/>
	<line class="st1" x1="106.5" y1="104.5" x2="106.5" y2="108.5"/>
	<line class="st1" x1="112.5" y1="104.5" x2="112.5" y2="108.5"/>
	<line class="st1" x1="119.5" y1="104.5" x2="119.5" y2="108.5"/>
	<text transform="matrix(1 0 0 1 125.5 121.5)" class="st2 st3">0</text>
	<line class="st1" x1="125.5" y1="103.5" x2="125.5" y2="109.5"/>
	<line class="st1" x1="131.5" y1="104.5" x2="131.5" y2="108.5"/>
	<line class="st1" x1="138.5" y1="104.5" x2="138.5" y2="108.5"/>
	<line class="st1" x1="144.5" y1="104.5" x2="144.5" y2="108.5"/>
	<line class="st1" x1="150.5" y1="104.5" x2="150.5" y2="108.5"/>
	<line class="st1" x1="156.5" y1="104.5" x2="156.5" y2="108.5"/>
	<line class="st1" x1="163.5" y1="104.5" x2="163.5" y2="108.5"/>
	<line class="st1" x1="169.5" y1="104.5" x2="169.5" y2="108.5"/>
	<line class="st1" x1="175.5" y1="104.5" x2="175.5" y2="108.5"/>
	<line class="st1" x1="181.5" y1="104.5" x2="181.5" y2="108.5"/>
	<text transform="matrix(1 0 0 1 188.5 121.5)" class="st2 st3">1</text>
	<line class="st1" x1="188.5" y1="103.5" x2="188.5" y2="109.5"/>
	<line class="st1" x1="194.5" y1="104.5" x2="194.5" y2="108.5"/>
	<line class="st1" x1="200.5" y1="104.5" x2="200.5" y2="108.5"/>
	<line class="st1" x1="207.5" y1="104.5" x2="207.5" y2="108.5"/>
	<line class="st1" x1="213.5" y1="104.5" x2="213.5" y2="108.5"/>
	<line class="st1" x1="219.5" y1="104.5" x2="219.5" y2="108.5"/>
	<line class="st1" x1="225.5" y1="104.5" x2="225.5" y2="108.5"/>
	<line class="st1" x1="232.5" y1="104.5" x2="232.5" y2="108.5"/>
	<line class="st1" x1="238.5" y1="104.5" x2="238.5" y2="108.5"/>
	<line class="st1" x1="244.5" y1="104.5" x2="244.5" y2="108.5"/>
	<text transform="matrix(1 0 0 1 244.8262 121.5)" class="st2 st3">2</text>
	<line class="st1" x1="251.5" y1="103.5" x2="251.5" y2="109.5"/>
</g>
<g transform="translate(1,20)">
	<path class="st4" d="M0,78.1L0.8,78l0.8-0.1l0.8-0.1l0.8-0.1l0.8-0.1L5,77.3l0.8-0.1l0.8-0.1l0.8-0.1l0.8-0.1l0.8-0.1l0.8-0.1
		l0.8-0.1l0.8-0.1l0.8-0.1l0.8-0.1l0.8-0.1l0.8-0.1l0.8-0.1l0.8-0.2l0.8-0.2l0.8-0.2l0.8-0.2l0.8-0.2l0.8-0.2l0.8-0.2l0.8-0.2
		l0.8-0.2l0.8-0.2l0.8-0.2l0.8-0.2l0.8-0.2l0.8-0.2l0.8-0.2l0.8-0.2l0.8-0.2l0.8-0.2l0.8-0.2l0.8-0.2l0.8-0.2l0.8-0.2l0.8-0.2
		l0.8-0.2l0.8-0.2l0.8-0.2l0.8-0.2l0.8-0.2l0.8-0.2l0.8-0.2l0.8-0.2l0.8-0.2l0.8-0.2l0.8-0.2l0.8-0.2l0.8-0.2l0.8-0.2l0.8-0.2
		l0.8-0.2l0.8-0.2l0.8-0.2l0.8-0.2l0.8-0.2l0.8-0.2l0.8-0.2l0.8-0.2l0.8-0.3l0.8-0.3l0.8-0.3l0.8-0.3l0.8-0.3l0.8-0.3l0.8-0.3
		l0.8-0.3l0.8-0.3l0.8-0.3l0.8-0.3l0.8-0.3l0.8-0.3l0.8-0.3l0.8-0.3l0.8-0.3l0.8-0.3l0.8-0.3l0.8-0.3l0.8-0.3l0.8-0.3l0.8-0.3
		l0.8-0.3l0.8-0.3l0.8-0.3l0.8-0.4l0.8-0.4l0.8-0.4l0.8-0.4l0.8-0.4l0.8-0.4l0.8-0.4l0.8-0.4l0.8-0.4l0.8-0.4l0.8-0.4l0.8-0.4
		l0.8-0.4l0.8-0.4l0.8-0.4l0.8-0.4l0.8-0.5l0.8-0.5l0.8-0.5l0.8-0.5l0.8-0.5l0.8-0.5l0.8-0.5l0.8-0.5l0.8-0.5l0.8-0.5l0.8-0.5
		l0.8-0.6l0.8-0.6l0.8-0.6l0.8-0.6l0.8-0.6l0.8-0.6l0.8-0.6l0.8-0.6l0.8-0.6l0.8-0.7l0.8-0.7l0.8-0.7l0.8-0.7l0.8-0.7l0.8-0.7
		l0.8-0.7l0.8-0.8l0.8-0.8l0.8-0.8l0.8-0.8l0.8-0.8l0.8-0.9l0.8-0.9l0.8-0.9l0.8-0.9l0.8-0.9l0.8-1l0.8-1l0.8-1l0.8-1l0.8-1.1
		l0.8-1.1l0.8-1.1l0.8,1.1l0.8,1.1l0.8,1.1l0.8,1l0.8,1l0.8,1l0.8,1l0.8,0.9l0.8,0.9l0.8,0.9l0.8,0.9l0.8,0.9l0.8,0.8l0.8,0.8
		l0.8,0.8l0.8,0.8l0.8,0.8l0.8,0.7l0.8,0.7l0.8,0.7l0.8,0.7l0.8,0.7l0.8,0.7l0.8,0.7l0.8,0.6l0.8,0.6l0.8,0.6l0.8,0.6l0.8,0.6
		l0.8,0.6l0.8,0.6l0.8,0.6l0.8,0.6l0.8,0.5l0.8,0.5l0.8,0.5l0.8,0.5l0.8,0.5l0.8,0.5l0.8,0.5l0.8,0.5l0.8,0.5l0.8,0.5l0.8,0.5
		l0.8,0.4l0.8,0.4l0.8,0.4l0.8,0.4l0.8,0.4l0.8,0.4l0.8,0.4l0.8,0.4l0.8,0.4l0.8,0.4l0.8,0.4l0.8,0.4l0.8,0.4l0.8,0.4l0.8,0.4
		l0.8,0.4l0.8,0.3l0.8,0.3l0.8,0.3l0.8,0.3l0.8,0.3l0.8,0.3l0.8,0.3l0.8,0.3l0.8,0.3l0.8,0.3l0.8,0.3l0.8,0.3l0.8,0.3l0.8,0.3
		l0.8,0.3l0.8,0.3l0.8,0.3l0.8,0.3l0.8,0.3l0.8,0.3l0.8,0.3l0.8,0.3l0.8,0.3l0.8,0.3l0.8,0.3l0.8,0.2l0.8,0.2l0.8,0.2l0.8,0.2
		l0.8,0.2l0.8,0.2l0.8,0.2l0.8,0.2l0.8,0.2l0.8,0.2l0.8,0.2l0.8,0.2l0.8,0.2l0.8,0.2l0.8,0.2l0.8,0.2l0.8,0.2l0.8,0.2l0.8,0.2
		l0.8,0.2l0.8,0.2l0.8,0.2l0.8,0.2l0.8,0.2l0.8,0.2l0.8,0.2l0.8,0.2l0.8,0.2l0.8,0.2l0.8,0.2l0.8,0.2l0.8,0.2l0.8,0.2l0.8,0.2
		l0.8,0.2l0.8,0.2l0.8,0.2l0.8,0.2l0.8,0.2l0.8,0.2l0.8,0.2l0.8,0.2l0.8,0.2l0.8,0.2l0.8,0.2l0.8,0.2l0.8,0.1l0.8,0.1l0.8,0.1
		l0.8,0.1l0.8,0.1l0.8,0.1l0.8,0.1l0.8,0.1l0.8,0.1l0.8,0.1l0.8,0.1l0.8,0.1l0.8,0.1l0.8,0.1l0.8,0.1l0.8,0.1l0.8,0.1l0.8,0.1"/>
	<path class="st5" d="M0,241.4l0.8-0.6l0.8-0.6l0.8-0.6l0.8-0.6l0.8-0.6l0.8-0.6l0.8-0.6l0.8-0.6l0.8-0.6l0.8-0.6l0.8-0.6l0.8-0.6
		l0.8-0.6l0.8-0.6l0.8-0.6l0.8-0.6l0.8-0.6l0.8-0.6l0.8-0.6l0.8-0.6l0.8-0.6l0.8-0.6l0.8-0.6l0.8-0.6l0.8-0.6l0.8-0.5l0.8-0.5
		l0.8-0.5l0.8-0.5l0.8-0.5l0.8-0.5l0.8-0.5l0.8-0.5l0.8-0.5l0.8-0.5l0.8-0.5l0.8-0.5l0.8-0.5l0.8-0.5l0.8-0.5l0.8-0.5l0.8-0.5
		l0.8-0.5l0.8-0.5l0.8-0.5l0.8-0.5l0.8-0.5l0.8-0.5l0.8-0.5l0.8-0.5l0.8-0.5l0.8-0.5l0.8-0.5l0.8-0.5l0.8-0.5l0.8-0.5l0.8-0.5
		l0.8-0.5l0.8-0.5l0.8-0.5l0.8-0.5l0.8-0.5l0.8-0.5l0.8-0.5l0.8-0.5l0.8-0.5l0.8-0.5l0.8-0.5l0.8-0.4l0.8-0.4l0.8-0.4l0.8-0.4
		l0.8-0.4l0.8-0.4l0.8-0.4l0.8-0.4l0.8-0.4l0.8-0.4l0.8-0.4l0.8-0.4l0.8-0.4l0.8-0.4l0.8-0.4l0.8-0.4l0.8-0.4l0.8-0.4l0.8-0.4
		l0.8-0.4l0.8-0.4l0.8-0.4l0.8-0.4l0.8-0.4l0.8-0.3l0.8-0.3l0.8-0.3l0.8-0.3l0.8-0.3l0.8-0.3l0.8-0.3l0.8-0.3l0.8-0.3l0.8-0.3
		l0.8-0.3L87,192l0.8-0.3l0.8-0.3l0.8-0.3l0.8-0.2l0.8-0.2l0.8-0.2l0.8-0.2l0.8-0.2l0.8-0.2l0.8-0.2l0.8-0.2l0.8-0.2l0.8-0.2
		l0.8-0.2l0.8-0.1l0.8-0.1l0.8-0.1l0.8-0.1l0.8-0.1l0.8-0.1l0.8-0.1l0.8-0.1l0.8-0.1l0.8,0l0.8,0l0.8,0l0.8,0l0.8,0l0.8,0l0.8,0.1
		l0.8,0.1l0.8,0.1l0.8,0.1l0.8,0.1l0.8,0.1l0.8,0.2l0.8,0.2l0.8,0.2l0.8,0.2l0.8,0.3l0.8,0.3l0.8,0.3l0.8,0.3l0.8,0.4l0.8,0.4
		l0.8,0.4l0.8-1.8l0.8-1.8l0.8-1.8l0.8-1.7l0.8-1.7l0.8-1.7l0.8-1.7l0.8-1.6l0.8-1.6l0.8-1.6l0.8-1.6l0.8-1.6l0.8-1.5l0.8-1.5
		l0.8-1.5l0.8-1.5l0.8-1.5l0.8-1.5l0.8-1.4l0.8-1.4l0.8-1.4l0.8-1.4l0.8-1.4l0.8-1.4l0.8-1.4l0.8-1.3l0.8-1.3l0.8-1.3l0.8-1.3
		l0.8-1.3l0.8-1.3l0.8-1.3l0.8-1.3l0.8-1.3l0.8-1.2l0.8-1.2l0.8-1.2l0.8-1.2l0.8-1.2l0.8-1.2l0.8-1.2l0.8-1.2l0.8-1.2l0.8-1.2
		l0.8-1.2l0.8-1.2l0.8-1.1l0.8-1.1l0.8-1.1l0.8-1.1l0.8-1.1l0.8-1.1l0.8-1.1l0.8-1.1l0.8-1.1l0.8-1.1l0.8-1.1l0.8-1.1l0.8-1.1
		l0.8-1.1l0.8-1.1l0.8-1.1l0.8-1l0.8-1l0.8-1l0.8-1l0.8-1l0.8-1l0.8-1l0.8-1l0.8-1l0.8-1l0.8-1l0.8-1l0.8-1l0.8-1l0.8-1l0.8-1l0.8-1
		l0.8-1l0.8-1l0.8-1l0.8-1l0.8-1l0.8-1l0.8-1l0.8-1l0.8-1l0.8-0.9l0.8-0.9l0.8-0.9l0.8-0.9l0.8-0.9l0.8-0.9l0.8-0.9l0.8-0.9l0.8-0.9
		l0.8-0.9l0.8-0.9l0.8-0.9l0.8-0.9l0.8-0.9l0.8-0.9l0.8-0.9l0.8-0.9l0.8-0.9l0.8-0.9l0.8-0.9l0.8-0.9l0.8-0.9l0.8-0.9l0.8-0.9
		l0.8-0.9l0.8-0.9l0.8-0.9l0.8-0.9l0.8-0.9l0.8-0.9l0.8-0.9l0.8-0.9l0.8-0.9l0.8-0.9l0.8-0.9l0.8-0.9l0.8-0.9l0.8-0.9l0.8-0.9
		l0.8-0.9l0.8-0.9l0.8-0.9l0.8-0.9l0.8-0.9l0.8-0.9l0.8-0.9l0.8-0.9l0.8-0.9l0.8-0.9l0.8-0.9l0.8-0.9l0.8-0.8l0.8-0.8l0.8-0.8
		l0.8-0.8l0.8-0.8l0.8-0.8l0.8-0.8l0.8-0.8l0.8-0.8l0.8-0.8"/>
	<line class="st6" x1="179.5" y1="0" x2="179.5" y2="213"/>
</g>
<g transform="translate(1,20)">
	<text transform="matrix(1 0 0 1 0 207)" class="st2 st3">-2</text>
	<text transform="matrix(1 0 0 1 0 153.75)" class="st2 st3">-1</text>
	<text transform="matrix(1 0 0 1 0 100.5)" class="st2 st3">0</text>
	<text transform="matrix(1 0 0 1 0 47.25)" class="st2 st3">1</text>
	<text transform="matrix(1 0 0 1 0 -6)" class="st2 st3">2</text>
</g>
</svg>
