<svg width="253" height="253"><g transform="translate(1,20)"><line x1="125.5" y1="0" x2="125.5" y2="213" stroke-width="1" stroke="#777777"></line><line x1="0" y1="213" x2="251" y2="213" stroke-width="1" stroke="#DDDDDD"></line><line x1="0" y1="159.75" x2="251" y2="159.75" stroke-width="1" stroke="#DDDDDD"></line><line x1="0" y1="106.5" x2="251" y2="106.5" stroke-width="1" stroke="#DDDDDD"></line><line x1="0" y1="53.25" x2="251" y2="53.25" stroke-width="1" stroke="#DDDDDD"></line><line x1="0" y1="0" x2="251" y2="0" stroke-width="1" stroke="#DDDDDD"></line><line x1="0" y1="106.5" x2="251" y2="106.5" stroke-width="1" stroke="#777777"></line><line x1="0" y1="213" x2="251" y2="0" stroke-width="1" stroke="#DDDDDD"></line><line class="timeline" x1="0.5" y1="103.5" x2="0.5" y2="109.5" stroke-width="1" stroke="#777777"></line><line class="timeline" x1="6.5" y1="104.5" x2="6.5" y2="108.5" stroke-width="1" stroke="#777777"></line><line class="timeline" x1="12.5" y1="104.5" x2="12.5" y2="108.5" stroke-width="1" stroke="#777777"></line><line class="timeline" x1="18.5" y1="104.5" x2="18.5" y2="108.5" stroke-width="1" stroke="#777777"></line><line class="timeline" x1="25.5" y1="104.5" x2="25.5" y2="108.5" stroke-width="1" stroke="#777777"></line><line class="timeline" x1="31.5" y1="104.5" x2="31.5" y2="108.5" stroke-width="1" stroke="#777777"></line><line class="timeline" x1="37.5" y1="104.5" x2="37.5" y2="108.5" stroke-width="1" stroke="#777777"></line><line class="timeline" x1="43.5" y1="104.5" x2="43.5" y2="108.5" stroke-width="1" stroke="#777777"></line><line class="timeline" x1="50.5" y1="104.5" x2="50.5" y2="108.5" stroke-width="1" stroke="#777777"></line><line class="timeline" x1="56.5" y1="104.5" x2="56.5" y2="108.5" stroke-width="1" stroke="#777777"></line><line class="timeline" x1="62.5" y1="103.5" x2="62.5" y2="109.5" stroke-width="1" stroke="#777777"></line><line class="timeline" x1="69.5" y1="104.5" x2="69.5" y2="108.5" stroke-width="1" stroke="#777777"></line><line class="timeline" x1="75.5" y1="104.5" x2="75.5" y2="108.5" stroke-width="1" stroke="#777777"></line><line class="timeline" x1="81.5" y1="104.5" x2="81.5" y2="108.5" stroke-width="1" stroke="#777777"></line><line class="timeline" x1="87.5" y1="104.5" x2="87.5" y2="108.5" stroke-width="1" stroke="#777777"></line><line class="timeline" x1="94.5" y1="104.5" x2="94.5" y2="108.5" stroke-width="1" stroke="#777777"></line><line class="timeline" x1="100.5" y1="104.5" x2="100.5" y2="108.5" stroke-width="1" stroke="#777777"></line><line class="timeline" x1="106.5" y1="104.5" x2="106.5" y2="108.5" stroke-width="1" stroke="#777777"></line><line class="timeline" x1="112.5" y1="104.5" x2="112.5" y2="108.5" stroke-width="1" stroke="#777777"></line><line class="timeline" x1="119.5" y1="104.5" x2="119.5" y2="108.5" stroke-width="1" stroke="#777777"></line><line class="timeline" x1="125.5" y1="103.5" x2="125.5" y2="109.5" stroke-width="1" stroke="#777777"></line><line class="timeline" x1="131.5" y1="104.5" x2="131.5" y2="108.5" stroke-width="1" stroke="#777777"></line><line class="timeline" x1="138.5" y1="104.5" x2="138.5" y2="108.5" stroke-width="1" stroke="#777777"></line><line class="timeline" x1="144.5" y1="104.5" x2="144.5" y2="108.5" stroke-width="1" stroke="#777777"></line><line class="timeline" x1="150.5" y1="104.5" x2="150.5" y2="108.5" stroke-width="1" stroke="#777777"></line><line class="timeline" x1="156.5" y1="104.5" x2="156.5" y2="108.5" stroke-width="1" stroke="#777777"></line><line class="timeline" x1="163.5" y1="104.5" x2="163.5" y2="108.5" stroke-width="1" stroke="#777777"></line><line class="timeline" x1="169.5" y1="104.5" x2="169.5" y2="108.5" stroke-width="1" stroke="#777777"></line><line class="timeline" x1="175.5" y1="104.5" x2="175.5" y2="108.5" stroke-width="1" stroke="#777777"></line><line class="timeline" x1="181.5" y1="104.5" x2="181.5" y2="108.5" stroke-width="1" stroke="#777777"></line><line class="timeline" x1="188.5" y1="103.5" x2="188.5" y2="109.5" stroke-width="1" stroke="#777777"></line><line class="timeline" x1="194.5" y1="104.5" x2="194.5" y2="108.5" stroke-width="1" stroke="#777777"></line><line class="timeline" x1="200.5" y1="104.5" x2="200.5" y2="108.5" stroke-width="1" stroke="#777777"></line><line class="timeline" x1="207.5" y1="104.5" x2="207.5" y2="108.5" stroke-width="1" stroke="#777777"></line><line class="timeline" x1="213.5" y1="104.5" x2="213.5" y2="108.5" stroke-width="1" stroke="#777777"></line><line class="timeline" x1="219.5" y1="104.5" x2="219.5" y2="108.5" stroke-width="1" stroke="#777777"></line><line class="timeline" x1="225.5" y1="104.5" x2="225.5" y2="108.5" stroke-width="1" stroke="#777777"></line><line class="timeline" x1="232.5" y1="104.5" x2="232.5" y2="108.5" stroke-width="1" stroke="#777777"></line><line class="timeline" x1="238.5" y1="104.5" x2="238.5" y2="108.5" stroke-width="1" stroke="#777777"></line><line class="timeline" x1="244.5" y1="104.5" x2="244.5" y2="108.5" stroke-width="1" stroke="#777777"></line><line class="timeline" x1="251.5" y1="103.5" x2="251.5" y2="109.5" stroke-width="1" stroke="#777777"></line></g><g transform="translate(1,20)"><path fill="transparent" stroke="#49e2a3" stroke-width="4" opacity="1" d="M0,186.5626016260162L0.502,186.47533389167168L1.004,186.38699272932834L1.506,186.2975676554315L2.008,186.20704806603965L2.51,186.11542323516056L3.012,186.02268231306L3.5140000000000002,185.92881432454266L4.016,185.83380816720506L4.518,185.73765260965908L5.02,185.6403362897265L5.522,185.54184771260327L6.024,185.44217524899335L6.526,185.3413071332114L7.0280000000000005,185.23923146125338L7.53,185.13593618883516L8.032,185.03140912939799L8.534,184.92563795207997L9.036,184.81861017965372L9.538,184.71031318642864L10.04,184.6007341961174L10.542,184.4898602796665L11.044,184.37767835304913L11.546,184.2641751750204L12.048,184.14933734483407L12.55,184.03315129991955L13.052,183.91560331351883L13.554,183.7966794922826L14.056000000000001,183.6763657738242L14.558,183.55464792423092L15.06,183.43151153553214L15.562,183.30694202312225L16.064,183.18092462313916L16.566,183.05344438979546L17.068,182.92448619266338L17.57,182.79403471391078L18.072,182.66207444548826L18.574,182.5285896862659L19.076,182.39356453911884L19.578,182.25698290796035L20.08,182.11882849472144L20.582,181.9790847962763L21.084,181.83773510131132L21.586,181.6947624871379L22.088,181.5501498164465L22.59,181.40387973400195L23.092,181.25593466327786L23.594,181.10629680302904L24.096,180.9549481238008L24.598,180.8018703643738L25.1,180.64704502814251L25.602,180.49045337942692L26.104,180.33207643971443L26.606,180.17189498383254L27.108,180.00988953604826L27.61,179.8460403660956L28.112000000000002,179.68032748512613L28.614,179.5127306415849L29.116,179.34322931700547L29.618,179.1718027217273L30.12,178.99842979052883L30.622,178.8230891781786L31.124,178.6457592548993L31.626,178.4664181017451L32.128,178.28504350588886L32.63,178.10161295581813L33.132,177.91610363643701L33.634,177.7284924240726L34.136,177.5387558813831L34.638,177.3468702521659L35.14,177.15281145606266L35.642,176.95655508316042L36.144,176.75807638848403L36.646,176.55735028637974L37.148,176.35435134478595L37.65,176.14905377938908L38.152,175.9414314476615L38.654,175.7314578427792L39.156,175.51910608741588L39.658,175.30434892741113L40.16,175.0871587253086L40.662,174.86750745376304L41.164,174.64536668881036L41.666,174.42070760300018L42.168,174.19350095838547L42.67,173.96371709936707L43.172,173.73132594538896L43.674,173.4962969834808L44.176,173.2585992606441L44.678,173.01820137607828L45.18,172.77507147324215L45.682,172.52917723174752L46.184,172.28048585908013L46.686,172.0289640821441L47.188,171.774578138625L47.69,171.51729376816752L48.192,171.25707620336257L48.694,170.99389016053988L49.196,170.7276998303594L49.698,170.45846886819908L50.2,170.18616038433106L50.702,169.91073693388273L51.204,169.6321605065765L51.706,169.3503925162425L52.208,169.06539379009854L52.71,168.77712455779115L53.212,168.4855444401915L53.714,168.19061243793996L54.216,167.89228691973264L54.718,167.5905256103426L55.22,167.28528557836984L55.722,166.97652322371147L56.224000000000004,166.66419426474602L56.726,166.34825372522312L57.228,166.0286559208512L57.73,165.70535444557504L58.232,165.37830215753453L58.734,165.04745116469633L59.236,164.7127528101493L59.738,164.37415765705452L60.24,164.03161547324024L60.742,163.68507521543256L61.244,163.3344850131111L61.746,162.97979215197952L62.248,162.62094305704005L62.75,162.25788327526126L63.252,161.89055745782701L63.754,161.5189093419554L64.256,161.14288173227527L64.758,160.76241648174715L65.26,160.37745447211677L65.762,159.9879355938867L66.264,159.59379872579228L66.766,159.19498171376873L67.268,158.79142134939258L67.77,158.38305334778414L68.272,157.96981232495375L68.774,157.55163177457618L69.276,157.12844404417632L69.778,156.70018031070794L70.28,156.26677055550857L70.782,155.82814353861048L71.284,155.38422677239015L71.786,154.93494649453416L72.288,154.48022764030281L72.79,154.01999381406853L73.292,153.55416726010776L73.794,153.08266883262323L74.296,152.60541796497256L74.798,152.12233263807911L75.3,151.63332934799928L75.802,151.1383230726197L76.304,150.6372272374576L76.806,150.12995368053566L77.308,149.61641261630191L77.81,149.09651259856457L78.312,148.57016048241047L78.81400000000001,148.0372613850734L79.316,147.49771864572025L79.818,146.95143378411828L80.32,146.39830645814757L80.822,145.83823442012135L81.324,145.27111347187451L81.826,144.69683741857955L82.328,144.11529802124812L82.83,143.5263849478742L83.332,142.92998572317308L83.834,142.32598567686918L84.336,141.71426789048405L84.838,141.0947131425723L85.34,140.46719985235404L85.842,139.83160402168744L86.344,139.1877991753252L86.846,138.5356562993943L87.348,137.87504377803884L87.85,137.20582732815956L88.352,136.52786993218515L88.854,135.84103176880376L89.356,135.14517014158426L89.858,134.4401394054101L90.36,133.7257908906481L90.862,133.0019728249706L91.364,132.26853025274548L91.866,131.52530495190484L92.368,130.77213534820132L92.87,130.00885642675433L93.372,129.2352996407874L93.874,128.4512928174494L94.376,127.65666006061414L94.878,126.85122165054128L95.38,126.03479394028167L95.882,125.20718924870253L96.384,124.36821575000359L96.886,123.51767735958838L97.388,122.65537361615124L97.89,121.78109955983096L98.392,120.8946456062784L98.894,119.99579741647764L99.396,119.08433576215165L99.898,118.16003638657737L100.4,117.22266986062714L100.902,116.27200143384292L101.404,115.30779088034477L101.906,114.32979233935956L102.408,113.33775415015447L102.91,112.33141868114015L103.412,111.31052215290526L103.914,110.27479445492858L104.416,109.22395895570273L104.918,108.15773230599304L105.42,107.07582423493963L105.922,105.97793733869703L106.424,104.86376686129127L106.926,103.73300046735814L107.428,102.58531800640884L107.93,101.42039126825381L108.432,100.23788372919343L108.934,99.03745028856875L109.436,97.81873699524043L109.938,96.58138076354534L110.44,95.32500907825448L110.94200000000001,94.04923968803348L111.444,92.75368028687843L111.946,91.4379281829738L112.44800000000001,90.10156995439L112.95,88.74418109100436L113.452,87.36532562200127L113.954,85.96455572826625L114.456,84.54141133895732L114.958,83.09541971149278L115.46,81.62609499415626L115.962,80.132937770474L116.464,78.61543458447034L116.966,77.07305744586117L117.468,75.50526331418794L117.97,73.91149356083895L118.472,72.29117340784501L118.974,70.64371134227179L119.476,68.96849850496034L119.978,67.2649080522965L120.48,65.5322944896115L120.982,63.76999297472909L121.484,61.977318590091215L121.986,60.153565581793345L122.488,58.298006563762414L122.99,56.40989168520056L123.492,54.488447759300215L123.994,52.53287735111374L124.496,50.54235782232587L124.998,48.51604033053354L125.5,46.453048780487734L126.002,48.51604033053354L126.504,50.54235782232587L127.006,52.53287735111374L127.508,54.488447759300215L128.01,56.40989168520056L128.512,58.298006563762414L129.014,60.153565581793345L129.516,61.977318590091215L130.018,63.76999297472909L130.52,65.5322944896115L131.022,67.2649080522965L131.524,68.96849850496034L132.026,70.64371134227179L132.528,72.29117340784501L133.03,73.91149356083895L133.532,75.505263314188L134.034,77.0730574458612L134.536,78.61543458447039L135.038,80.13293777047406L135.54,81.62609499415632L136.042,83.09541971149281L136.544,84.54141133895743L137.046,85.96455572826629L137.548,87.36532562200127L138.05,88.74418109100442L138.552,90.10156995439004L139.054,91.4379281829739L139.556,92.75368028687843L140.058,94.04923968803352L140.56,95.32500907825452L141.062,96.5813807635454L141.564,97.81873699524039L142.066,99.03745028856869L142.568,100.23788372919338L143.07,101.42039126825375L143.572,102.58531800640884L144.074,103.7330004673581L144.576,104.86376686129132L145.078,105.97793733869699L145.58,107.07582423493963L146.082,108.15773230599304L146.584,109.22395895570273L147.086,110.27479445492853L147.588,111.31052215290521L148.09,112.33141868114011L148.592,113.33775415015452L149.094,114.32979233935956L149.596,115.30779088034477L150.098,116.27200143384292L150.6,117.22266986062714L151.102,118.16003638657737L151.604,119.08433576215165L152.106,119.99579741647764L152.608,120.8946456062784L153.11,121.78109955983096L153.612,122.65537361615124L154.114,123.51767735958838L154.616,124.36821575000359L155.118,125.20718924870253L155.62,126.03479394028167L156.122,126.85122165054128L156.624,127.65666006061414L157.126,128.4512928174494L157.62800000000001,129.2352996407874L158.13,130.00885642675433L158.632,130.77213534820132L159.13400000000001,131.52530495190484L159.636,132.26853025274548L160.138,133.0019728249706L160.64,133.7257908906481L161.142,134.4401394054101L161.644,135.14517014158426L162.146,135.84103176880376L162.648,136.52786993218515L163.15,137.20582732815956L163.652,137.87504377803884L164.154,138.5356562993943L164.656,139.1877991753252L165.158,139.83160402168744L165.66,140.46719985235404L166.162,141.0947131425723L166.664,141.71426789048405L167.166,142.32598567686918L167.668,142.9299857231731L168.17,143.5263849478742L168.672,144.11529802124818L169.174,144.69683741857955L169.676,145.27111347187454L170.178,145.83823442012135L170.68,146.3983064581476L171.182,146.95143378411828L171.684,147.49771864572028L172.186,148.0372613850734L172.688,148.57016048241047L173.19,149.09651259856457L173.692,149.6164126163019L174.194,150.12995368053566L174.696,150.63722723745758L175.198,151.1383230726197L175.7,151.63332934799928L176.202,152.12233263807911L176.704,152.60541796497253L177.206,153.0826688326232L177.708,153.5541672601077L178.21,154.01999381406847L178.712,154.48022764030281L179.214,154.93494649453413L179.716,155.38422677239012L180.218,155.82814353861048L180.72,156.26677055550857L181.222,156.70018031070794L181.724,157.12844404417632L182.226,157.55163177457618L182.728,157.96981232495375L183.23,158.38305334778414L183.732,158.79142134939258L184.234,159.19498171376873L184.736,159.59379872579228L185.238,159.9879355938867L185.74,160.37745447211677L186.242,160.76241648174715L186.744,161.14288173227527L187.246,161.5189093419554L187.748,161.89055745782701L188.25,162.25788327526126L188.752,162.62094305704005L189.254,162.97979215197952L189.756,163.3344850131111L190.258,163.68507521543256L190.76,164.03161547324024L191.262,164.37415765705452L191.764,164.7127528101493L192.266,165.04745116469633L192.768,165.37830215753453L193.27,165.70535444557504L193.772,166.0286559208512L194.274,166.34825372522312L194.776,166.66419426474602L195.278,166.97652322371147L195.78,167.28528557836984L196.282,167.5905256103426L196.784,167.89228691973264L197.286,168.19061243793996L197.788,168.4855444401915L198.29,168.77712455779115L198.792,169.06539379009854L199.294,169.3503925162425L199.796,169.6321605065765L200.298,169.91073693388273L200.8,170.18616038433106L201.302,170.45846886819908L201.804,170.7276998303594L202.306,170.99389016053988L202.808,171.25707620336257L203.31,171.51729376816752L203.812,171.774578138625L204.314,172.02896408214409L204.816,172.28048585908013L205.318,172.52917723174752L205.82,172.77507147324212L206.322,173.01820137607828L206.824,173.2585992606441L207.326,173.4962969834808L207.828,173.73132594538893L208.33,173.96371709936707L208.832,174.19350095838547L209.334,174.42070760300018L209.836,174.64536668881036L210.338,174.86750745376304L210.84,175.0871587253086L211.342,175.30434892741113L211.844,175.51910608741588L212.346,175.7314578427792L212.848,175.9414314476615L213.35,176.14905377938908L213.852,176.35435134478595L214.354,176.55735028637974L214.856,176.75807638848403L215.358,176.95655508316042L215.86,177.15281145606266L216.362,177.3468702521659L216.864,177.5387558813831L217.366,177.7284924240726L217.868,177.91610363643701L218.37,178.10161295581813L218.872,178.28504350588886L219.374,178.4664181017451L219.876,178.6457592548993L220.37800000000001,178.8230891781786L220.88,178.99842979052883L221.382,179.1718027217273L221.88400000000001,179.34322931700547L222.386,179.5127306415849L222.888,179.68032748512613L223.39000000000001,179.8460403660956L223.892,180.00988953604826L224.394,180.17189498383254L224.89600000000002,180.33207643971443L225.398,180.49045337942692L225.9,180.64704502814251L226.402,180.8018703643738L226.904,180.9549481238008L227.406,181.10629680302904L227.908,181.25593466327786L228.41,181.40387973400195L228.912,181.5501498164465L229.414,181.6947624871379L229.916,181.83773510131132L230.418,181.97908479627634L230.92,182.11882849472144L231.422,182.25698290796038L231.924,182.39356453911884L232.426,182.52858968626592L232.928,182.66207444548826L233.43,182.7940347139108L233.932,182.92448619266335L234.434,183.05344438979546L234.936,183.18092462313916L235.438,183.30694202312225L235.94,183.43151153553214L236.442,183.55464792423092L236.944,183.6763657738242L237.446,183.7966794922826L237.948,183.91560331351883L238.45,184.03315129991955L238.952,184.14933734483407L239.454,184.2641751750204L239.956,184.37767835304913L240.458,184.4898602796665L240.96,184.6007341961174L241.462,184.71031318642864L241.964,184.81861017965372L242.466,184.92563795207997L242.968,185.03140912939799L243.47,185.13593618883516L243.972,185.23923146125338L244.474,185.3413071332114L244.976,185.44217524899335L245.478,185.54184771260327L245.98,185.6403362897265L246.482,185.73765260965908L246.984,185.83380816720506L247.486,185.92881432454266L247.988,186.02268231306L248.49,186.11542323516056L248.992,186.20704806603965L249.494,186.2975676554315L249.996,186.38699272932834L250.498,186.47533389167168"></path><path fill="transparent" stroke="#4be0d8" stroke-width="4" opacity="0.4" d="M0,132.9373983739838L0.502,132.5986661083283L1.004,132.26100727067166L1.506,131.92443234456852L2.008,131.58895193396035L2.51,131.25457676483944L3.012,130.92131768694L3.5140000000000002,130.58918567545732L4.016,130.25819183279495L4.518,129.9283473903409L5.02,129.59966371027352L5.522,129.27215228739675L6.024,128.94582475100663L6.526,128.6206928667886L7.0280000000000005,128.29676853874662L7.53,127.97406381116484L8.032,127.652590870602L8.534,127.33236204792001L9.036,127.01338982034628L9.538,126.69568681357137L10.04,126.37926580388262L10.542,126.0641397203335L11.044,125.75032164695088L11.546,125.4378248249796L12.048,125.12666265516593L12.55,124.81684870008046L13.052,124.50839668648116L13.554,124.2013205077174L14.056000000000001,123.89563422617583L14.558,123.59135207576908L15.06,123.28848846446786L15.562,122.98705797687775L16.064,122.68707537686085L16.566,122.38855561020455L17.068,122.09151380733663L17.57,121.79596528608921L18.072,121.50192555451173L18.574,121.2094103137341L19.076,120.91843546088116L19.578,120.62901709203965L20.08,120.34117150527855L20.582,120.0549152037237L21.084,119.77026489868867L21.586,119.48723751286212L22.088,119.20585018355352L22.59,118.92612026599805L23.092,118.64806533672214L23.594,118.37170319697096L24.096,118.09705187619923L24.598,117.8241296356262L25.1,117.55295497185749L25.602,117.28354662057309L26.104,117.01592356028559L26.606,116.75010501616747L27.108,116.48611046395173L27.61,116.22395963390441L28.112000000000002,115.96367251487386L28.614,115.7052693584151L29.116,115.44877068299452L29.618,115.19419727827272L30.12,114.94157020947117L30.622,114.69091082182139L31.124,114.4422407451007L31.626,114.19558189825489L32.128,113.95095649411114L32.63,113.70838704418188L33.132,113.467896363563L33.634,113.22950757592739L34.136,112.9932441186169L34.638,112.75912974783411L35.14,112.52718854393734L35.642,112.29744491683955L36.144,112.06992361151597L36.646,111.84464971362026L37.148,111.62164865521403L37.65,111.40094622061092L38.152,111.1825685523385L38.654,110.96654215722079L39.156,110.7528939125841L39.658,110.54165107258888L40.16,110.33284127469139L40.662,110.12649254623696L41.164,109.92263331118963L41.666,109.72129239699981L42.168,109.52249904161452L42.67,109.3262829006329L43.172,109.13267405461104L43.674,108.94170301651921L44.176,108.75340073935591L44.678,108.56779862392172L45.18,108.38492852675785L45.682,108.20482276825248L46.184,108.02751414091986L46.686,107.85303591785589L47.188,107.68142186137499L47.69,107.51270623183248L48.192,107.34692379663741L48.694,107.18410983946012L49.196,107.0243001696406L49.698,106.8675311318009L50.2,106.71383961566896L50.702,106.56326306611727L51.204,106.41583949342352L51.706,106.2716074837575L52.208,106.13060620990146L52.71,105.99287544220886L53.212,105.85845555980852L53.714,105.72738756206004L54.216,105.59971308026736L54.718,105.4754743896574L55.22,105.35471442163018L55.722,105.23747677628855L56.224000000000004,105.123805735254L56.726,105.0137462747769L57.228,104.9073440791488L57.73,104.80464555442495L58.232,104.70569784246547L58.734,104.61054883530366L59.236,104.51924718985069L59.738,104.4318423429455L60.24,104.34838452675976L60.742,104.26892478456745L61.244,104.19351498688889L61.746,104.12220784802048L62.248,104.05505694295994L62.75,103.99211672473874L63.252,103.933442542173L63.754,103.87909065804459L64.256,103.82911826772471L64.758,103.78358351825285L65.26,103.74254552788322L65.762,103.7060644061133L66.264,103.67420127420772L66.766,103.64701828623127L67.268,103.62457865060743L67.77,103.60694665221587L68.272,103.59418767504626L68.774,103.58636822542383L69.276,103.58355595582366L69.778,103.58581968929204L70.28,103.59322944449143L70.782,103.60585646138951L71.284,103.62377322760985L71.786,103.64705350546583L72.288,103.67577235969718L72.79,103.7100061859315L73.292,103.74983273989224L73.794,103.79533116737676L74.296,103.84658203502744L74.798,103.90366736192087L75.3,103.96667065200074L75.802,104.03567692738028L76.304,104.1107727625424L76.806,104.19204631946434L77.308,104.27958738369807L77.81,104.37348740143544L78.312,104.47383951758955L78.81400000000001,104.58073861492662L79.316,104.69428135427977L79.818,104.81456621588173L80.32,104.94169354185242L80.822,105.07576557987865L81.324,105.21688652812546L81.826,105.36516258142044L82.328,105.52070197875186L82.83,105.6836150521258L83.332,105.85401427682692L83.834,106.03201432313084L84.336,106.21773210951596L84.838,106.41128685742774L85.34,106.61280014764596L85.842,106.82239597831256L86.344,107.04020082467478L86.846,107.2663437006057L87.348,107.50095622196118L87.85,107.74417267184043L88.352,107.99613006781485L88.854,108.25696823119624L89.356,108.52682985841575L89.858,108.80586059458993L90.36,109.09420910935191L90.862,109.39202717502938L91.364,109.69946974725453L91.866,110.01669504809516L92.368,110.34386465179868L92.87,110.68114357324566L93.372,111.02870035921262L93.874,111.38670718255061L94.376,111.75533993938586L94.878,112.13477834945873L95.38,112.52520605971833L95.882,112.92681075129745L96.384,113.33978424999641L96.886,113.76432264041162L97.388,114.20062638384876L97.89,114.64890044016904L98.392,115.10935439372159L98.894,115.58220258352235L99.396,116.06766423784835L99.898,116.56596361342262L100.4,117.07733013937285L100.902,117.60199856615708L101.404,118.14020911965522L101.906,118.69220766064043L102.408,119.25824584984554L102.91,119.83858131885985L103.412,120.43347784709475L103.914,121.04320554507143L104.416,121.66804104429728L104.918,122.30826769400696L105.42,122.96417576506038L105.922,123.63606266130296L106.424,124.32423313870873L106.926,125.02899953264186L107.428,125.75068199359116L107.93,126.4896087317462L108.432,127.24611627080657L108.934,128.02054971143127L109.436,128.81326300475956L109.938,129.62461923645466L110.44,130.45499092174552L110.94200000000001,131.3047603119665L111.444,132.17431971312158L111.946,133.0640718170262L112.44800000000001,133.97443004561L112.95,134.90581890899563L113.452,135.85867437799874L113.954,136.83344427173375L114.456,137.83058866104267L114.958,138.85058028850722L115.46,139.89390500584372L115.962,140.961062229526L116.464,142.05256541552967L116.966,143.16894255413882L117.468,144.31073668581206L117.97,145.47850643916104L118.472,146.672826592155L118.974,147.89428865772823L119.476,149.14350149503966L119.978,150.42109194770347L120.48,151.7277055103885L120.982,153.0640070252709L121.484,154.43068140990877L121.986,155.82843441820665L122.488,157.25799343623757L122.99,158.72010831479946L123.492,160.2155522406998L123.994,161.74512264888625L124.496,163.30964217767414L124.998,164.90995966946645L125.5,166.54695121951227L126.002,164.05795966946644L126.504,161.60564217767413L127.006,159.18912264888627L127.508,156.8075522406998L128.01,154.46010831479944L128.512,152.14599343623757L129.014,149.86443441820666L129.516,147.61468140990877L130.018,145.39600702527093L130.52,143.2077055103885L131.022,141.04909194770346L131.524,138.91950149503964L132.026,136.8182886577282L132.528,134.744826592155L133.03,132.69850643916104L133.532,130.678736685812L134.034,128.6849425541388L134.536,126.7165654155296L135.038,124.77306222952593L135.54,122.85390500584367L136.042,120.95858028850716L136.544,119.08658866104257L137.046,117.2374442717337L137.548,115.41067437799872L138.05,113.60581890899557L138.552,111.82243004560995L139.054,110.06007181702608L139.556,108.31831971312155L140.058,106.59676031196646L140.56,104.89499092174546L141.062,103.2126192364546L141.564,101.54926300475964L142.066,99.90454971143132L142.568,98.27811627080663L143.07,96.66960873174625L143.572,95.07868199359118L144.074,93.50499953264192L144.576,91.94823313870869L145.078,90.40806266130302L145.58,88.88417576506038L146.082,87.37626769400697L146.584,85.88404104429728L147.086,84.40720554507146L147.588,82.94547784709479L148.09,81.49858131885989L148.592,80.0662458498455L149.094,78.64820766064045L149.596,77.24420911965524L150.098,75.85399856615709L150.6,74.47733013937287L151.102,73.11396361342264L151.604,71.76366423784836L152.106,70.42620258352235L152.608,69.1013543937216L153.11,67.78890044016904L153.612,66.48862638384875L154.114,65.20032264041163L154.616,63.9237842499964L155.118,62.658810751297466L155.62,61.405206059718324L156.122,60.16277834945873L156.624,58.93133993938585L157.126,57.71070718255061L157.62800000000001,56.50070035921263L158.13,55.30114357324567L158.632,54.11186465179867L159.13400000000001,52.932695048095155L159.636,51.763469747254504L160.138,50.60402717502939L160.64,49.45420910935189L161.142,48.313860594589926L161.644,47.182829858415744L162.146,46.06096823119623L162.648,44.948130067814844L163.15,43.844172671840425L163.652,42.74895622196118L164.154,41.662343700605675L164.656,40.58420082467475L165.158,39.514395978312564L165.66,38.452800147645945L166.162,37.39928685742771L166.664,36.35373210951593L167.166,35.316014323130815L167.668,34.286014276826876L168.17,33.2636150521258L168.672,32.248701978751825L169.174,31.24116258142044L169.676,30.24088652812543L170.178,29.24776557987866L170.68,28.261693541852367L171.182,27.2825662158817L171.684,26.31028135427968L172.186,25.34473861492657L172.688,24.385839517589545L173.19,23.43348740143543L173.692,22.4875873836981L174.194,21.548046319464362L174.696,20.61477276254243L175.198,19.687676927380295L175.7,18.766670652000727L176.202,17.851667361920903L176.704,16.9425820350275L177.206,16.039331167376815L177.708,15.141832739892294L178.21,14.25000618593154L178.712,13.363772359697208L179.214,12.483053505465875L179.716,11.607773227609897L180.218,10.737856461389526L180.72,9.873229444491443L181.222,9.013819689292063L181.724,8.159555955823663L182.226,7.310368225423815L182.728,6.466187675046257L183.23,5.626946652215878L183.732,4.792578650607425L184.234,3.9630182862312893L184.736,3.1382012742077166L185.238,2.318064406113308L185.74,1.5025455278832283L186.242,0.6915835182528554L186.744,-0.11488173227527909L187.246,-0.9169093419553747L187.748,-1.7145574578269702L188.25,-2.5078832752612925L188.752,-3.2969430570400675L189.254,-4.081792151979499L189.756,-4.862485013111126L190.258,-5.639075215432541L190.76,-6.411615473240261L191.262,-7.18015765705448L191.764,-7.944752810149282L192.266,-8.705451164696342L192.768,-9.462302157534566L193.27,-10.21535444557503L193.772,-10.964655920851214L194.274,-11.710253725223083L194.776,-12.452194264745998L195.278,-13.190523223711466L195.78,-13.925285578369795L196.282,-14.65652561034264L196.784,-15.38428691973266L197.286,-16.108612437939968L197.788,-16.829544440191484L198.29,-17.547124557791165L198.792,-18.261393790098566L199.294,-18.972392516242536L199.796,-19.6801605065765L200.298,-20.38473693388272L200.8,-21.086160384331066L201.302,-21.78446886819907L201.804,-22.479699830359408L202.306,-23.171890160539874L202.808,-23.861076203362586L203.31,-24.54729376816752L203.812,-25.23057813862505L204.314,-25.910964082144062L204.816,-26.58848585908015L205.318,-27.263177231747505L205.82,-27.935071473242118L206.322,-28.604201376078265L206.824,-29.270599260644076L207.326,-29.934296983480777L207.828,-30.595325945388964L208.33,-31.253717099367066L208.832,-31.90950095838548L209.334,-32.56270760300018L209.836,-33.21336668881037L210.338,-33.86150745376301L210.84,-34.507158725308585L211.342,-35.15034892741107L211.844,-35.7911060874159L212.346,-36.429457842779215L212.848,-37.065431447661496L213.35,-37.69905377938906L213.852,-38.330351344785925L214.354,-38.9593502863797L214.856,-39.586076388484L215.358,-40.210555083160415L215.86,-40.83281145606264L216.362,-41.452870252165894L216.864,-42.07075588138312L217.366,-42.68649242407261L217.868,-43.30010363643703L218.37,-43.9116129558181L218.872,-44.52104350588888L219.374,-45.128418101745126L219.876,-45.733759254899326L220.37800000000001,-46.337089178178644L220.88,-46.9384297905288L221.382,-47.537802721727246L221.88400000000001,-48.135229317005496L222.386,-48.7307306415849L222.888,-49.32432748512616L223.39000000000001,-49.91604036609556L223.892,-50.5058895360483L224.394,-51.09389498383251L224.89600000000002,-51.68007643971441L225.398,-52.264453379426925L225.9,-52.84704502814253L226.402,-53.4278703643738L226.904,-54.00694812380078L227.406,-54.58429680302902L227.908,-55.15993466327785L228.41,-55.73387973400196L228.912,-56.306149816446464L229.414,-56.87676248713791L229.916,-57.44573510131136L230.418,-58.0130847962763L230.92,-58.57882849472145L231.422,-59.1429829079604L231.924,-59.70556453911888L232.426,-60.266589686265945L232.928,-60.826074445488246L233.43,-61.38403471391081L233.932,-61.94048619266334L234.434,-62.495444389795466L234.936,-63.04892462313916L235.438,-63.60094202312223L235.94,-64.15151153553217L236.442,-64.7006479242309L236.944,-65.24836577382416L237.446,-65.79467949228257L237.948,-66.33960331351881L238.45,-66.88315129991952L238.952,-67.42533734483402L239.454,-67.9661751750204L239.956,-68.50567835304912L240.458,-69.04386027966649L240.96,-69.58073419611736L241.462,-70.11631318642861L241.964,-70.65061017965377L242.466,-71.18363795207995L242.968,-71.71540912939798L243.47,-72.24593618883517L243.972,-72.77523146125338L244.474,-73.30330713321143L244.976,-73.83017524899338L245.478,-74.35584771260329L245.98,-74.88033628972653L246.482,-75.4036526096591L246.984,-75.92580816720505L247.486,-76.44681432454263L247.988,-76.96668231306L248.49,-77.48542323516057L248.992,-78.00304806603964L249.494,-78.5195676554315L249.996,-79.03499272932834L250.498,-79.54933389167167"></path><path fill="transparent" stroke="#f4c237" stroke-width="4" opacity="0.7" d="M132.026,310.8093686993174L132.528,298.46720670595147L133.03,286.07504253658544L133.532,273.6327126072199L134.034,261.1400533338542L134.536,248.5969011324879L135.038,236.00309241912217L135.54,223.35846360975654L136.042,210.6628511203903L136.544,197.9160913670243L137.046,185.118020765659L137.548,172.26847573229315L138.05,159.3672926829271L138.552,146.41430803356104L139.054,133.40935820019513L139.556,120.35227959882953L140.058,107.2429086454636L140.56,94.0810817560977L141.062,80.86663534673167L141.564,67.599405833367L142.066,54.27922963200089L142.568,40.90594315863498L143.07,27.4793828292691L143.572,13.99938505990329L144.074,0.4657862665375774L144.576,-13.121577134828811L145.078,-26.762868728194206L145.58,-40.45825209756023L146.082,-54.207890826926075L146.584,-68.01194850029208L147.086,-81.87058870165743L147.588,-95.78397501502315"></path><path fill="transparent" stroke="#f4c237" stroke-width="4" opacity="0.7" d="M25.602,-105.70363396526943L26.104,-99.58114290263529L26.606,-93.53875347200125L27.108,-87.57630208936706L27.61,-81.6936251707329L28.112000000000002,-75.8905591320987L28.614,-70.1669403894644L29.116,-64.52260535883028L29.618,-58.95739045619604L30.12,-53.471132097561906L30.622,-48.06366669892776L31.124,-42.7348306762936L31.626,-37.48446044565958L32.128,-32.312392423025415L32.63,-27.218463024391184L33.132,-22.202508665757136L33.634,-17.26436576312298L34.136,-12.403870732488855L34.638,-7.62085998985458L35.14,-2.915169951220321L35.642,1.7133629674137296L36.144,6.264902350047777L36.646,10.739611780681997L37.148,15.137654843316085L37.65,19.45919512195033L38.152,23.704396200584455L38.654,27.87342166321838L39.156,31.96643509385271L39.658,35.98360007648682L40.16,39.925080195120955L40.662,43.79103903375531L41.164,47.58164017638941L41.666,51.297047207023525L42.168,54.93742370965771L42.67,58.50293326829197L43.172,61.99373946692589L43.674,65.41000588956007L44.176,68.75189612019417L44.678,72.01957374282824L45.18,75.21320234146242L45.682,78.33294550009663L46.184,81.37896680273064L46.686,84.35142983336488L47.188,87.25049817599917L47.69,90.07633541463322L48.192,92.8291051332674L48.694,95.50897091590157L49.196,98.11609634653573L49.698,100.65064500916985L50.2,103.11278048780397L50.702,105.5026663664381L51.204,107.82046622907225L51.706,110.0663436597063L52.208,112.2404622423405L52.71,114.34298556097454L53.212,116.3740771996088L53.714,118.33390074224305L54.216,120.22261977287715L54.718,122.04039787551133L55.22,123.78739863414559L55.722,125.46378563277965L56.224000000000004,127.06972245541381L56.726,128.6053726860478L57.228,130.07089990868207L57.73,131.4664677073162L58.232,132.79223966595035L58.734,134.04837936858445L59.236,135.2350503992186L59.738,136.35241634185294L60.24,137.40064078048704L60.742,138.37988729912112L61.244,139.29031948175532L61.746,140.1321009123895L62.248,140.90539517502356L62.75,141.61036585365773L63.252,142.24717653229192L63.754,142.815990794926L64.256,143.3169722255601L64.758,143.75028440819437L65.26,144.11609092682846L65.762,144.4145553654626L66.264,144.64584130809675L66.766,144.8101123387309L67.268,144.90753204136507L67.77,144.9382639999993L68.272,144.9024717986334L68.774,144.8003190212675L69.276,144.63196925190167L69.778,144.3975860745358L70.28,144.09733307316995L70.782,143.73137383180415L71.284,143.29987193443827L71.786,142.80299096507247L72.288,142.2408945077065L72.79,141.6137461463407L73.292,140.9217094649748L73.794,140.16494804760896L74.296,139.34362547824318L74.798,138.45790534087735L75.3,137.50795121951143L75.802,136.49392669814557L76.304,135.41599536077973L76.806,134.27432079141386L77.308,133.06906657404807L77.81,131.80039629268222L78.312,130.46847353131636L78.81400000000001,129.07346187395052L79.316,127.61552490458465L79.818,126.09482620721877L80.32,124.511529365853L80.822,122.86579796448711L81.324,121.15779558712129L81.826,119.38768581775541L82.328,117.55563224038956L82.83,115.66179843902367L83.332,113.70634799765789L83.834,111.68944450029204L84.336,109.61125153092615L84.838,107.47193267356032L85.34,105.27165151219447L85.842,103.01057163082855L86.344,100.68885661346276L86.846,98.30667004409702L87.348,95.8641755067311L87.85,93.36153658536526L88.352,90.79891686399942L88.854,88.17647992663353L89.356,85.49438935726764L89.858,82.7528087399019L90.36,79.95190165853606L90.862,77.09183169717014L91.364,74.17276243980427L91.866,71.19485747043842L92.368,68.15828037307253L92.87,65.0631947317068L93.372,61.90976413034093L93.874,58.69815215297504L94.376,55.42852238360916L94.878,52.101038406243305L95.38,48.71586380487747L95.882,45.273162163511586L96.384,41.77309706614574L96.886,38.215832096779934L97.388,34.60153083941404L97.89,30.930356878048173L98.392,27.20247379668234L98.894,23.418045179316493L99.396,19.577234609950636L99.898,15.680205672584776L100.4,11.727121951218948L100.902,7.718147029853043L101.404,3.653444492487239L101.906,-0.4668220768786284L102.408,-4.642489094244354L102.91,-8.873392975610159L103.412,-13.159370136976065L103.914,-17.500256994341925L104.416,-21.89588996370776L104.918,-26.34610546107365L105.42,-30.85073990243947L105.922,-35.409629703805365L106.424,-40.02261128117118L106.926,-44.68952105053705L107.428,-49.41019542790292L107.93,-54.18447082926872L108.432,-59.012183670634556L108.934,-63.89317036800048L109.436,-68.82726733736632L109.938,-73.81431099473218L110.44,-78.854137756098L110.94200000000001,-83.94658403746388L111.444,-89.0914862548297L111.946,-94.28868082419558L112.44800000000001,-99.53800416156145L112.95,-104.83929268292724"></path><line class="v-line" x1="50.953" y1="0" x2="50.953" y2="213" stroke-width="1" stroke="#777777" style="stroke-dasharray: 1, 3;"></line><line class="v-line" x1="85.08900000000001" y1="0" x2="85.08900000000001" y2="213" stroke-width="1" stroke="#777777" style="stroke-dasharray: 1, 3;"></line><line class="v-line" x1="140.30900000000003" y1="0" x2="140.30900000000003" y2="213" stroke-width="1" stroke="#777777" style="stroke-dasharray: 1, 3;"></line></g><g transform="translate(1,20)"><text class="small" x="0" y="207">-2</text><text class="small" x="0" y="153.75">-1</text><text class="small" x="0" y="100.5">0</text><text class="small" x="0" y="47.25">1</text><text class="small" x="0" y="-6">2</text><text class="small timeline" x="0.5" y="121.5" text-anchor="start">-2</text><text class="small timeline" x="62.5" y="121.5" text-anchor="start">-1</text><text class="small timeline" x="125.5" y="121.5" text-anchor="start">0</text><text class="small timeline" x="188.5" y="121.5" text-anchor="start">1</text><text class="small timeline" x="251.5" y="121.5" text-anchor="end">2</text></g></svg>