<svg width="253" height="253"><g transform="translate(1,20)"><line x1="125.5" y1="0" x2="125.5" y2="213" stroke-width="1" stroke="#777777"></line><line x1="0" y1="213" x2="251" y2="213" stroke-width="1" stroke="#DDDDDD"></line><line x1="0" y1="159.75" x2="251" y2="159.75" stroke-width="1" stroke="#DDDDDD"></line><line x1="0" y1="106.5" x2="251" y2="106.5" stroke-width="1" stroke="#DDDDDD"></line><line x1="0" y1="53.25" x2="251" y2="53.25" stroke-width="1" stroke="#DDDDDD"></line><line x1="0" y1="0" x2="251" y2="0" stroke-width="1" stroke="#DDDDDD"></line><line x1="0" y1="106.5" x2="251" y2="106.5" stroke-width="1" stroke="#777777"></line><line x1="0" y1="213" x2="251" y2="0" stroke-width="1" stroke="#DDDDDD"></line><line class="timeline" x1="0.5" y1="103.5" x2="0.5" y2="109.5" stroke-width="1" stroke="#777777"></line><line class="timeline" x1="6.5" y1="104.5" x2="6.5" y2="108.5" stroke-width="1" stroke="#777777"></line><line class="timeline" x1="12.5" y1="104.5" x2="12.5" y2="108.5" stroke-width="1" stroke="#777777"></line><line class="timeline" x1="18.5" y1="104.5" x2="18.5" y2="108.5" stroke-width="1" stroke="#777777"></line><line class="timeline" x1="25.5" y1="104.5" x2="25.5" y2="108.5" stroke-width="1" stroke="#777777"></line><line class="timeline" x1="31.5" y1="104.5" x2="31.5" y2="108.5" stroke-width="1" stroke="#777777"></line><line class="timeline" x1="37.5" y1="104.5" x2="37.5" y2="108.5" stroke-width="1" stroke="#777777"></line><line class="timeline" x1="43.5" y1="104.5" x2="43.5" y2="108.5" stroke-width="1" stroke="#777777"></line><line class="timeline" x1="50.5" y1="104.5" x2="50.5" y2="108.5" stroke-width="1" stroke="#777777"></line><line class="timeline" x1="56.5" y1="104.5" x2="56.5" y2="108.5" stroke-width="1" stroke="#777777"></line><line class="timeline" x1="62.5" y1="103.5" x2="62.5" y2="109.5" stroke-width="1" stroke="#777777"></line><line class="timeline" x1="69.5" y1="104.5" x2="69.5" y2="108.5" stroke-width="1" stroke="#777777"></line><line class="timeline" x1="75.5" y1="104.5" x2="75.5" y2="108.5" stroke-width="1" stroke="#777777"></line><line class="timeline" x1="81.5" y1="104.5" x2="81.5" y2="108.5" stroke-width="1" stroke="#777777"></line><line class="timeline" x1="87.5" y1="104.5" x2="87.5" y2="108.5" stroke-width="1" stroke="#777777"></line><line class="timeline" x1="94.5" y1="104.5" x2="94.5" y2="108.5" stroke-width="1" stroke="#777777"></line><line class="timeline" x1="100.5" y1="104.5" x2="100.5" y2="108.5" stroke-width="1" stroke="#777777"></line><line class="timeline" x1="106.5" y1="104.5" x2="106.5" y2="108.5" stroke-width="1" stroke="#777777"></line><line class="timeline" x1="112.5" y1="104.5" x2="112.5" y2="108.5" stroke-width="1" stroke="#777777"></line><line class="timeline" x1="119.5" y1="104.5" x2="119.5" y2="108.5" stroke-width="1" stroke="#777777"></line><line class="timeline" x1="125.5" y1="103.5" x2="125.5" y2="109.5" stroke-width="1" stroke="#777777"></line><line class="timeline" x1="131.5" y1="104.5" x2="131.5" y2="108.5" stroke-width="1" stroke="#777777"></line><line class="timeline" x1="138.5" y1="104.5" x2="138.5" y2="108.5" stroke-width="1" stroke="#777777"></line><line class="timeline" x1="144.5" y1="104.5" x2="144.5" y2="108.5" stroke-width="1" stroke="#777777"></line><line class="timeline" x1="150.5" y1="104.5" x2="150.5" y2="108.5" stroke-width="1" stroke="#777777"></line><line class="timeline" x1="156.5" y1="104.5" x2="156.5" y2="108.5" stroke-width="1" stroke="#777777"></line><line class="timeline" x1="163.5" y1="104.5" x2="163.5" y2="108.5" stroke-width="1" stroke="#777777"></line><line class="timeline" x1="169.5" y1="104.5" x2="169.5" y2="108.5" stroke-width="1" stroke="#777777"></line><line class="timeline" x1="175.5" y1="104.5" x2="175.5" y2="108.5" stroke-width="1" stroke="#777777"></line><line class="timeline" x1="181.5" y1="104.5" x2="181.5" y2="108.5" stroke-width="1" stroke="#777777"></line><line class="timeline" x1="188.5" y1="103.5" x2="188.5" y2="109.5" stroke-width="1" stroke="#777777"></line><line class="timeline" x1="194.5" y1="104.5" x2="194.5" y2="108.5" stroke-width="1" stroke="#777777"></line><line class="timeline" x1="200.5" y1="104.5" x2="200.5" y2="108.5" stroke-width="1" stroke="#777777"></line><line class="timeline" x1="207.5" y1="104.5" x2="207.5" y2="108.5" stroke-width="1" stroke="#777777"></line><line class="timeline" x1="213.5" y1="104.5" x2="213.5" y2="108.5" stroke-width="1" stroke="#777777"></line><line class="timeline" x1="219.5" y1="104.5" x2="219.5" y2="108.5" stroke-width="1" stroke="#777777"></line><line class="timeline" x1="225.5" y1="104.5" x2="225.5" y2="108.5" stroke-width="1" stroke="#777777"></line><line class="timeline" x1="232.5" y1="104.5" x2="232.5" y2="108.5" stroke-width="1" stroke="#777777"></line><line class="timeline" x1="238.5" y1="104.5" x2="238.5" y2="108.5" stroke-width="1" stroke="#777777"></line><line class="timeline" x1="244.5" y1="104.5" x2="244.5" y2="108.5" stroke-width="1" stroke="#777777"></line><line class="timeline" x1="251.5" y1="103.5" x2="251.5" y2="109.5" stroke-width="1" stroke="#777777"></line></g><g transform="translate(1,20)"><path fill="transparent" stroke="#49e2a3" stroke-width="4" opacity="1" d="M0,81.32727272727274L0.502,81.27697216909326L1.004,81.22652682438206L1.506,81.17593690702088L2.008,81.12520265364378L2.51,81.07432432432432L3.012,81.02330220328224L3.5140000000000002,80.97213659961065L4.016,80.92082784802375L4.518,80.86937630962652L5.02,80.81778237270615L5.522,80.76604645354647L6.024,80.71416899726614L6.526,80.66215047868079L7.0280000000000005,80.60999140319038L7.53,80.55769230769229L8.032,80.50525376152117L8.534,80.45267636741588L9.036,80.39996076251512L9.538,80.34710761938203L10.04,80.29411764705881L10.542,80.24099159215268L11.044,80.18773023995342L11.546,80.13433441558442L12.048,80.08080498518746L12.55,80.02714285714288L13.052,79.97334898332585L13.554,79.91942436040043L14.056000000000001,79.86537003115191L14.558,79.8111870858593L15.06,79.75687666370894L15.562,79.70243995425085L16.064,79.64787819889858L16.566,79.59319269247501L17.068,79.53838478480426L17.57,79.48345588235296L18.072,79.4284074499204L18.574,79.37324101238127L19.076,79.31795815648124L19.578,79.26256053268764L20.08,79.2070498570975L20.582,79.15142791340398L21.084,79.09569655492402L21.586,79.03985770668882L22.088,78.98391336759917L22.59,78.92786561264822L23.092,78.87171659521377L23.594,78.81546854942235L24.096,78.75912379258781L24.598,78.70268472772679L25.1,78.64615384615385L25.602,78.58953373015873L26.104,78.53282705576922L26.606,78.47603659560181L27.108,78.41916522180404L27.61,78.3622159090909L28.112000000000002,78.30519173787948L28.614,78.24809589752468L29.116,78.19093168965969L29.618,78.13370253164558L30.12,78.0764119601329L30.622,78.01906363474015L31.124,77.96166134185302L31.626,77.90420899854863L32.128,77.84671065664955L32.63,77.78917050691246L33.132,77.7315928833558L33.634,77.67398226773227L34.136,77.61634329415097L34.638,77.55868075385496L35.14,77.50099960015996L35.642,77.44330495356036L36.144,77.38560210700874L36.646,77.32789653137499L37.148,77.2701938810929L37.65,77.2125L38.152,77.15482092737938L38.654,77.09716290420991L39.156,77.0395323796339L39.658,76.9819360176503L40.16,76.92438070404174L40.662,76.86687355354513L41.164,76.8094219172753L41.666,76.75203339041096L42.168,76.69471582015439L42.67,76.63747731397461L43.172,76.58032624814632L43.674,76.52327127659575L44.176,76.46632134006597L44.678,76.40948567561472L45.18,76.35277382645805L45.682,76.29619565217394L46.184,76.23976133928056L46.686,76.18348141220483L47.188,76.12736674465702L47.69,76.07142857142858L48.192,76.01567850063074L48.694,75.96012852639237L49.196,75.90479104203635L49.698,75.84967885375494L50.2,75.7948051948052L50.702,75.74018374024666L51.204,75.68582862224483L51.706,75.63175444596445L52.208,75.57797630607885L52.71,75.52450980392157L53.212,75.47137106530872L53.714,75.41857675906184L54.216,75.36614411626186L54.718,75.31409095026723L55.22,75.26243567753002L55.722,75.21119733924613L56.224000000000004,75.1603956238774L56.726,75.11005089058526L57.228,75.06018419361749L57.73,75.01081730769232L58.232,74.96197275442557L58.734,74.91367382984987L59.236,74.8659446330764L59.738,74.81881009615387L60.24,74.77229601518027L60.742,74.72642908272832L61.244,74.68123692164613L61.746,74.63674812030075L62.248,74.59299226933328L62.75,74.55000000000001L63.252,74.50780302417724L63.754,74.46643417611159L64.256,74.42592745600265L64.758,74.38631807550954L65.26,74.34764250527797L65.762,74.30993852459017L66.264,74.27324527324527L66.766,74.23760330578511L67.268,74.20305464818577L67.77,74.16964285714289L68.272,74.13741308208662L68.774,74.10641213006943L69.276,74.0766885336783L69.778,74.0482926221336L70.28,74.0212765957447L70.782,73.99569460390356L71.284,73.97160282680952L71.786,73.94905956112854L72.288,73.9281253098047L72.79,73.9088628762542L73.292,73.89133746318677L73.794,73.87561677631578L74.296,73.8617711332339L74.798,73.84987357774969L75.3,73.84L75.802,73.83222926267283L76.304,73.82664333369792L76.806,73.82332742578646L77.308,73.82237014322575L77.81,73.82386363636363L78.312,73.82790376424543L78.81400000000001,73.83459026589955L79.316,73.84402694080114L79.818,73.85632183908046L80.32,73.87158746208291L80.822,73.88994097393018L81.324,73.91150442477877L81.826,73.93640498652292L82.328,73.96477520174204L82.83,73.99675324675323L83.332,74.03248320969229L83.834,74.07211538461542L84.336,74.11580658268997L84.838,74.16372046162303L85.34,74.21602787456447L85.842,74.27290723981903L86.344,74.33454493280405L86.846,74.40113570180549L87.348,74.47288310920644L87.85,74.54999999999998L88.352,74.63270899954318L88.854,74.72124304267163L89.356,74.81584593646974L89.858,74.9167729591837L90.36,75.0242914979757L90.862,75.13868172844923L91.364,75.26023733912754L91.866,75.38926630434784L92.368,75.5260917093378L92.87,75.67105263157896L93.372,75.82450508293206L93.874,75.98682301740814L94.376,76.15839940992072L94.878,76.33964741185298L95.38,76.53100158982514L95.882,76.73291925465838L96.384,76.94588188820859L96.886,77.17039667649428L97.388,77.4069981583794L97.89,77.65625000000003L98.392,77.91874690615938L98.894,78.19511668107174L99.396,78.48602245212416L99.898,78.79216507177034L100.4,79.11428571428573L100.902,79.45316868592732L101.404,79.8096444690791L101.906,80.18459302325584L102.408,80.57894736842104L102.91,80.9936974789916L103.412,81.42989452019555L103.914,81.88865546218489L104.416,82.37116811153814L104.918,82.87869660460024L105.42,83.41258741258741L105.922,83.97427591463415L106.424,84.56529360210342L106.926,85.18727598566309L107.428,85.84197128601974L107.93,86.53125L108.432,87.25711544611448L108.934,88.02171540811874L109.436,88.82735501173316L109.938,89.676510989011L110.44,90.5718475073314L110.94200000000001,91.51623376623378L111.444,92.51276359600446L111.946,93.56477732793522L112.44800000000001,94.67588624853917L112.95,95.85000000000004L113.452,97.09135734830848L113.954,98.40456081081085L114.456,99.7946157186279L114.958,101.26697438951757L115.46,102.82758620689657L115.962,104.48295454545459L116.464,106.24020165880634L116.966,108.1071428571429L117.468,110.09237156201353L117.97,112.2053571428571L118.472,114.45655783065853L118.974,116.85755148741416L119.476,119.42118761096863L119.978,122.16176470588235L120.48,125.09523809523807L120.982,128.2394644424934L121.484,131.6144907723855L121.986,135.24289772727272L122.488,139.15020930805218L122.99,143.36538461538464L123.492,147.9214113873296L123.994,152.85602678571428L124.496,158.21259842519686L124.998,164.04120879120876L125.5,170.4L126.002,164.04120879120876L126.504,158.21259842519686L127.006,152.85602678571428L127.508,147.9214113873296L128.01,143.36538461538464L128.512,139.15020930805218L129.014,135.24289772727272L129.516,131.6144907723855L130.018,128.2394644424934L130.52,125.09523809523807L131.022,122.16176470588235L131.524,119.42118761096863L132.026,116.85755148741416L132.528,114.45655783065853L133.03,112.2053571428571L133.532,110.09237156201345L134.034,108.10714285714282L134.536,106.2402016588063L135.038,104.48295454545453L135.54,102.82758620689653L136.042,101.26697438951754L136.544,99.79461571862787L137.046,98.4045608108108L137.548,97.09135734830843L138.05,95.84999999999997L138.552,94.67588624853913L139.054,93.56477732793522L139.556,92.51276359600442L140.058,91.51623376623375L140.56,90.57184750733137L141.062,89.676510989011L141.564,88.82735501173318L142.066,88.02171540811877L142.568,87.25711544611453L143.07,86.53125000000003L143.572,85.8419712860198L144.074,85.18727598566309L144.576,84.56529360210342L145.078,83.97427591463415L145.58,83.41258741258741L146.082,82.87869660460024L146.584,82.37116811153814L147.086,81.88865546218489L147.588,81.42989452019555L148.09,80.9936974789916L148.592,80.5789473684211L149.094,80.18459302325584L149.596,79.8096444690791L150.098,79.45316868592732L150.6,79.11428571428573L151.102,78.79216507177034L151.604,78.48602245212416L152.106,78.19511668107174L152.608,77.91874690615938L153.11,77.65625000000003L153.612,77.4069981583794L154.114,77.17039667649428L154.616,76.94588188820859L155.118,76.73291925465838L155.62,76.53100158982514L156.122,76.33964741185298L156.624,76.15839940992072L157.126,75.98682301740814L157.62800000000001,75.82450508293206L158.13,75.67105263157896L158.632,75.5260917093378L159.13400000000001,75.38926630434784L159.636,75.26023733912754L160.138,75.13868172844923L160.64,75.0242914979757L161.142,74.9167729591837L161.644,74.81584593646974L162.146,74.72124304267163L162.648,74.63270899954318L163.15,74.54999999999998L163.652,74.47288310920644L164.154,74.40113570180549L164.656,74.33454493280405L165.158,74.272907239819L165.66,74.21602787456447L166.162,74.16372046162303L166.664,74.11580658268997L167.166,74.07211538461539L167.668,74.03248320969229L168.17,73.99675324675323L168.672,73.96477520174204L169.174,73.93640498652292L169.676,73.91150442477877L170.178,73.88994097393018L170.68,73.87158746208291L171.182,73.85632183908046L171.684,73.84402694080114L172.186,73.83459026589955L172.688,73.82790376424543L173.19,73.82386363636365L173.692,73.82237014322575L174.194,73.82332742578646L174.696,73.82664333369792L175.198,73.83222926267285L175.7,73.84000000000003L176.202,73.84987357774969L176.704,73.8617711332339L177.206,73.87561677631578L177.708,73.89133746318674L178.21,73.90886287625418L178.712,73.9281253098047L179.214,73.94905956112854L179.716,73.97160282680952L180.218,73.99569460390359L180.72,74.0212765957447L181.222,74.0482926221336L181.724,74.0766885336783L182.226,74.10641213006943L182.728,74.13741308208662L183.23,74.16964285714289L183.732,74.20305464818577L184.234,74.23760330578511L184.736,74.27324527324527L185.238,74.30993852459017L185.74,74.34764250527797L186.242,74.38631807550954L186.744,74.42592745600265L187.246,74.46643417611159L187.748,74.50780302417724L188.25,74.55000000000001L188.752,74.59299226933328L189.254,74.63674812030075L189.756,74.68123692164613L190.258,74.72642908272832L190.76,74.77229601518027L191.262,74.81881009615387L191.764,74.8659446330764L192.266,74.91367382984987L192.768,74.96197275442557L193.27,75.01081730769232L193.772,75.06018419361749L194.274,75.11005089058526L194.776,75.1603956238774L195.278,75.21119733924613L195.78,75.26243567753002L196.282,75.31409095026723L196.784,75.36614411626186L197.286,75.41857675906184L197.788,75.47137106530872L198.29,75.52450980392157L198.792,75.57797630607885L199.294,75.63175444596445L199.796,75.68582862224483L200.298,75.74018374024666L200.8,75.7948051948052L201.302,75.84967885375494L201.804,75.90479104203635L202.306,75.96012852639237L202.808,76.01567850063074L203.31,76.07142857142858L203.812,76.12736674465702L204.314,76.18348141220483L204.816,76.23976133928056L205.318,76.29619565217394L205.82,76.35277382645805L206.322,76.40948567561472L206.824,76.46632134006595L207.326,76.52327127659575L207.828,76.58032624814632L208.33,76.63747731397461L208.832,76.69471582015439L209.334,76.75203339041096L209.836,76.8094219172753L210.338,76.86687355354513L210.84,76.92438070404174L211.342,76.9819360176503L211.844,77.0395323796339L212.346,77.09716290420991L212.848,77.15482092737938L213.35,77.2125L213.852,77.2701938810929L214.354,77.32789653137499L214.856,77.38560210700874L215.358,77.44330495356036L215.86,77.50099960015996L216.362,77.55868075385496L216.864,77.61634329415097L217.366,77.67398226773227L217.868,77.7315928833558L218.37,77.78917050691246L218.872,77.84671065664955L219.374,77.90420899854863L219.876,77.96166134185302L220.37800000000001,78.01906363474015L220.88,78.0764119601329L221.382,78.13370253164558L221.88400000000001,78.19093168965969L222.386,78.24809589752468L222.888,78.30519173787948L223.39000000000001,78.3622159090909L223.892,78.41916522180404L224.394,78.47603659560181L224.89600000000002,78.53282705576922L225.398,78.58953373015873L225.9,78.64615384615385L226.402,78.70268472772679L226.904,78.75912379258781L227.406,78.81546854942235L227.908,78.87171659521377L228.41,78.92786561264822L228.912,78.98391336759917L229.414,79.03985770668882L229.916,79.09569655492402L230.418,79.15142791340398L230.92,79.2070498570975L231.422,79.26256053268764L231.924,79.31795815648124L232.426,79.37324101238127L232.928,79.4284074499204L233.43,79.48345588235296L233.932,79.5383847848043L234.434,79.59319269247501L234.936,79.64787819889861L235.438,79.70243995425085L235.94,79.75687666370897L236.442,79.8111870858593L236.944,79.86537003115191L237.446,79.91942436040046L237.948,79.97334898332585L238.45,80.02714285714288L238.952,80.08080498518746L239.454,80.13433441558442L239.956,80.18773023995342L240.458,80.24099159215268L240.96,80.29411764705881L241.462,80.34710761938203L241.964,80.39996076251512L242.466,80.45267636741588L242.968,80.50525376152117L243.47,80.55769230769229L243.972,80.60999140319038L244.474,80.66215047868079L244.976,80.71416899726614L245.478,80.76604645354647L245.98,80.81778237270615L246.482,80.86937630962652L246.984,80.92082784802375L247.486,80.97213659961065L247.988,81.02330220328224L248.49,81.07432432432432L248.992,81.12520265364378L249.494,81.17593690702088L249.996,81.22652682438206L250.498,81.27697216909326"></path><path fill="transparent" stroke="#49e2a3" stroke-width="4" opacity="0.2" d="M0,238.17272727272726L0.502,237.79702783090676L1.004,237.42147317561793L1.506,237.04606309297913L2.008,236.6707973463562L2.51,236.29567567567568L3.012,235.92069779671775L3.5140000000000002,235.54586340038935L4.016,235.17117215197624L4.518,234.79662369037348L5.02,234.42221762729386L5.522,234.04795354645353L6.024,233.67383100273386L6.526,233.2998495213192L7.0280000000000005,232.92600859680962L7.53,232.5523076923077L8.032,232.17874623847882L8.534,231.80532363258413L9.036,231.43203923748487L9.538,231.05889238061798L10.04,230.68588235294118L10.542,230.31300840784732L11.044,229.9402697600466L11.546,229.56766558441558L12.048,229.19519501481255L12.55,228.82285714285715L13.052,228.45065101667413L13.554,228.07857563959956L14.056000000000001,227.70662996884806L14.558,227.33481291414068L15.06,226.96312333629103L15.562,226.59156004574916L16.064,226.2201218011014L16.566,225.84880730752502L17.068,225.47761521519573L17.57,225.10654411764708L18.072,224.7355925500796L18.574,224.3647589876187L19.076,223.99404184351877L19.578,223.62343946731232L20.08,223.2529501429025L20.582,222.88257208659604L21.084,222.512303445076L21.586,222.14214229331117L22.088,221.77208663240083L22.59,221.40213438735177L23.092,221.03228340478626L23.594,220.66253145057766L24.096,220.2928762074122L24.598,219.92331527227321L25.1,219.55384615384617L25.602,219.18446626984127L26.104,218.8151729442308L26.606,218.44596340439819L27.108,218.07683477819594L27.61,217.7077840909091L28.112000000000002,217.3388082621205L28.614,216.9699041024753L29.116,216.60106831034034L29.618,216.23229746835443L30.12,215.8635880398671L30.622,215.49493636525983L31.124,215.12633865814695L31.626,214.75779100145135L32.128,214.38928934335044L32.63,214.02082949308758L33.132,213.6524071166442L33.634,213.28401773226773L34.136,212.91565670584902L34.638,212.54731924614504L35.14,212.17900039984005L35.642,211.81069504643963L36.144,211.44239789299127L36.646,211.074103468625L37.148,210.7058061189071L37.65,210.33749999999998L38.152,209.96917907262062L38.654,209.6008370957901L39.156,209.2324676203661L39.658,208.86406398234968L40.16,208.49561929595825L40.662,208.12712644645487L41.164,207.7585780827247L41.666,207.38996660958904L42.168,207.02128417984562L42.67,206.6525226860254L43.172,206.28367375185368L43.674,205.91472872340424L44.176,205.54567865993403L44.678,205.1765143243853L45.18,204.80722617354198L45.682,204.43780434782607L46.184,204.06823866071946L46.686,203.69851858779518L47.188,203.328633255343L47.69,202.95857142857142L48.192,202.58832149936924L48.694,202.21787147360763L49.196,201.84720895796366L49.698,201.47632114624506L50.2,201.1051948051948L50.702,200.73381625975333L51.204,200.3621713777552L51.706,199.99024555403557L52.208,199.61802369392115L52.71,199.24549019607844L53.212,198.87262893469128L53.714,198.49942324093817L54.216,198.12585588373815L54.718,197.75190904973277L55.22,197.37756432246996L55.722,197.00280266075387L56.224000000000004,196.62760437612258L56.726,196.25194910941477L57.228,195.87581580638252L57.73,195.4991826923077L58.232,195.12202724557443L58.734,194.74432617015015L59.236,194.36605536692358L59.738,193.98718990384614L60.24,193.60770398481972L60.742,193.2275709172717L61.244,192.84676307835386L61.746,192.46525187969922L62.248,192.08300773066674L62.75,191.7L63.252,191.31619697582275L63.754,190.9315658238884L64.256,190.54607254399733L64.758,190.15968192449049L65.26,189.77235749472203L65.762,189.38406147540982L66.264,188.9947547267547L66.766,188.60439669421487L67.268,188.21294535181423L67.77,187.82035714285712L68.272,187.42658691791337L68.774,187.03158786993055L69.276,186.6353114663217L69.778,186.2377073778664L70.28,185.8387234042553L70.782,185.43830539609644L71.284,185.0363971731905L71.786,184.63294043887146L72.288,184.2278746901953L72.79,183.8211371237458L73.292,183.41266253681323L73.794,183.0023832236842L74.296,182.5902288667661L74.798,182.1761264222503L75.3,181.76L75.802,181.34177073732718L76.304,180.92135666630207L76.806,180.49867257421357L77.308,180.07362985677423L77.81,179.64613636363637L78.312,179.21609623575458L78.81400000000001,178.78340973410045L79.316,178.34797305919886L79.818,177.90967816091953L80.32,177.4684125379171L80.822,177.02405902606984L81.324,176.57649557522123L81.826,176.1255950134771L82.328,175.67122479825798L82.83,175.21324675324675L83.332,174.7515167903077L83.834,174.2858846153846L84.336,173.81619341731002L84.838,173.34227953837697L85.34,172.8639721254355L85.842,172.381092760181L86.344,171.89345506719593L86.846,171.40086429819453L87.348,170.90311689079357L87.85,170.4L88.352,169.89129100045682L88.854,169.37675695732838L89.356,168.85615406353025L89.858,168.3292270408163L90.36,167.7957085020243L90.862,167.25531827155078L91.364,166.70776266087245L91.866,166.15273369565216L92.368,165.5899082906622L92.87,165.01894736842104L93.372,164.43949491706795L93.874,163.85117698259188L94.376,163.2536005900793L94.878,162.646352588147L95.38,162.02899841017486L95.882,161.4010807453416L96.384,160.7621181117914L96.886,160.11160332350573L97.388,159.4490018416206L97.89,158.77374999999998L98.392,158.08525309384058L98.894,157.38288331892824L99.396,156.66597754787583L99.898,155.93383492822966L100.4,155.18571428571425L100.902,154.42083131407267L101.404,153.63835553092088L101.906,152.83740697674418L102.408,152.01705263157893L102.91,151.17630252100838L103.412,150.31410547980448L103.914,149.4293445378151L104.416,148.52083188846188L104.918,147.58730339539977L105.42,146.62741258741258L105.922,145.63972408536586L106.424,144.6227063978966L106.926,143.5747240143369L107.428,142.49402871398024L107.93,141.37875L108.432,140.2268845538855L108.934,139.03628459188127L109.436,137.80464498826683L109.938,136.529489010989L110.44,135.2081524926686L110.94200000000001,133.83776623376622L111.444,132.41523640399555L111.946,130.93722267206476L112.44800000000001,129.40011375146082L112.95,127.79999999999997L113.452,126.13264265169151L113.954,124.39343918918917L114.456,122.5773842813721L114.958,120.67902561048243L115.46,118.69241379310343L115.962,116.61104545454542L116.464,114.42779834119365L116.966,112.13485714285709L117.468,109.72362843798646L117.97,107.1846428571429L118.472,104.50744216934149L118.974,101.68044851258584L119.476,98.69081238903136L119.978,95.52423529411766L120.48,92.16476190476193L120.982,88.5945355575066L121.484,84.79350922761452L121.986,80.73910227272728L122.488,76.4057906919478L122.99,71.76461538461538L123.492,66.7825886126704L123.994,61.42197321428574L124.496,55.639401574803145L124.998,49.38479120879123L125.5,42.599999999999994L126.002,48.532791208791224L126.504,53.935401574803166L127.006,58.86597321428573L127.508,63.37458861267038L128.01,67.50461538461536L128.512,71.2937906919478L129.014,74.77510227272728L129.516,77.97750922761449L130.018,80.92653555750661L130.52,83.6447619047619L131.022,86.15223529411765L131.524,88.46681238903136L132.026,90.60444851258583L132.528,92.57944216934148L133.03,94.40464285714289L133.532,96.09162843798654L134.034,97.65085714285718L134.536,99.0917983411937L135.038,100.42304545454546L135.54,101.65241379310348L136.042,102.78702561048244L136.544,103.83338428137212L137.046,104.79743918918919L137.548,105.68464265169156L138.05,106.50000000000003L138.552,107.24811375146086L139.054,107.93322267206479L139.556,108.55923640399558L140.058,109.12976623376625L140.56,109.64815249266861L141.062,110.117489010989L141.564,110.54064498826683L142.066,110.92028459188126L142.568,111.2588845538855L143.07,111.55874999999999L143.572,111.82202871398023L144.074,112.05072401433691L144.576,112.24670639789657L145.078,112.41172408536585L145.58,112.54741258741257L146.082,112.65530339539976L146.584,112.73683188846186L147.086,112.79334453781512L147.588,112.82610547980447L148.09,112.83630252100839L148.592,112.82505263157891L149.094,112.79340697674418L149.596,112.74235553092089L150.098,112.67283131407268L150.6,112.58571428571426L151.102,112.48183492822966L151.604,112.36197754787584L152.106,112.22688331892826L152.608,112.0772530938406L153.11,111.91374999999998L153.612,111.73700184162061L154.114,111.54760332350574L154.616,111.34611811179141L155.118,111.1330807453416L155.62,110.90899841017486L156.122,110.67435258814703L156.624,110.42960059007929L157.126,110.17517698259186L157.62800000000001,109.91149491706794L158.13,109.63894736842106L158.632,109.3579082906622L159.13400000000001,109.06873369565216L159.636,108.77176266087245L160.138,108.46731827155075L160.64,108.1557085020243L161.142,107.8372270408163L161.644,107.51215406353026L162.146,107.18075695732836L162.648,106.84329100045682L163.15,106.5L163.652,106.15111689079355L164.154,105.79686429819452L164.656,105.43745506719591L165.158,105.073092760181L165.66,104.70397212543553L166.162,104.33027953837697L166.664,103.95219341731003L167.166,103.56988461538461L167.668,103.18351679030768L168.17,102.79324675324675L168.672,102.39922479825796L169.174,102.00159501347706L169.676,101.6004955752212L170.178,101.19605902606982L170.68,100.78841253791707L171.182,100.37767816091952L171.684,99.96397305919885L172.186,99.54740973410044L172.688,99.12809623575457L173.19,98.70613636363636L173.692,98.28162985677425L174.194,97.85467257421355L174.696,97.42535666630208L175.198,96.99377073732717L175.7,96.55999999999999L176.202,96.12412642225031L176.704,95.68622886676611L177.206,95.24638322368422L177.708,94.80466253681325L178.21,94.36113712374583L178.712,93.91587469019531L179.214,93.46894043887147L179.716,93.02039717319047L180.218,92.57030539609642L180.72,92.1187234042553L181.222,91.6657073778664L181.724,91.21131146632172L182.226,90.75558786993057L182.728,90.29858691791337L183.23,89.84035714285713L183.732,89.38094535181423L184.234,88.92039669421489L184.736,88.45875472675472L185.238,87.99606147540983L185.74,87.53235749472204L186.242,87.06768192449047L186.744,86.60207254399734L187.246,86.13556582388841L187.748,85.66819697582275L188.25,85.19999999999997L188.752,84.73100773066673L189.254,84.26125187969924L189.756,83.79076307835385L190.258,83.3195709172717L190.76,82.84770398481973L191.262,82.37518990384615L191.764,81.90205536692358L192.266,81.42832617015011L192.768,80.95402724557442L193.27,80.47918269230769L193.772,80.0038158063825L194.274,79.52794910941475L194.776,79.05160437612258L195.278,78.57480266075387L195.78,78.09756432246996L196.282,77.61990904973277L196.784,77.14185588373815L197.286,76.66342324093816L197.788,76.18462893469126L198.29,75.70549019607842L198.792,75.22602369392112L199.294,74.74624555403554L199.796,74.26617137775517L200.298,73.78581625975332L200.8,73.30519480519479L201.302,72.82432114624504L201.804,72.34320895796364L202.306,71.86187147360761L202.808,71.38032149936924L203.31,70.89857142857142L203.812,70.41663325534299L204.314,69.9345185877952L204.816,69.45223866071947L205.318,68.96980434782608L205.82,68.48722617354196L206.322,68.00451432438533L206.824,67.52167865993403L207.326,67.03872872340426L207.828,66.55567375185367L208.33,66.07252268602542L208.832,65.58928417984563L209.334,65.10596660958902L209.836,64.62257808272471L210.338,64.1391264464549L210.84,63.655619295958275L211.342,63.1720639823497L211.844,62.68846762036611L212.346,62.20483709579011L212.848,61.72117907262063L213.35,61.23749999999998L213.852,60.753806118907136L214.354,60.270103468624995L214.856,59.78639789299126L215.358,59.302695046439624L215.86,58.819000399840064L216.362,58.33531924614505L216.864,57.851656705849024L217.366,57.36801773226773L217.868,56.88440711664424L218.37,56.40082949308757L218.872,55.91728934335046L219.374,55.43379100145137L219.876,54.95033865814696L220.37800000000001,54.46693636525984L220.88,53.9835880398671L221.382,53.50029746835443L221.88400000000001,53.017068310340335L222.386,52.53390410247533L222.888,52.05080826212048L223.39000000000001,51.56778409090907L223.892,51.084834778195955L224.394,50.60196340439819L224.89600000000002,50.11917294423077L225.398,49.636466269841264L225.9,49.15384615384613L226.402,48.671315272273205L226.904,48.18887620741219L227.406,47.70653145057764L227.908,47.224283404786235L228.41,46.74213438735177L228.912,46.2600866324008L229.414,45.77814229331116L229.916,45.29630344507595L230.418,44.81457208659603L230.92,44.33295014290249L231.422,43.85143946731233L231.924,43.37004184351875L232.426,42.8887589876187L232.928,42.40759255007961L233.43,41.92654411764704L233.932,41.445615215195716L234.434,40.96480730752498L234.936,40.48412180110137L235.438,40.00356004574914L235.94,39.523123336291036L236.442,39.04281291414071L236.944,38.562629968848086L237.446,38.08257563959958L237.948,37.602651016674145L238.45,37.12285714285713L238.952,36.64319501481256L239.454,36.16366558441561L239.956,35.68426976004656L240.458,35.205008407847345L240.96,34.7258823529412L241.462,34.24689238061799L241.964,33.768039237484885L242.466,33.289323632584114L242.968,32.81074623847883L243.47,32.332307692307694L243.972,31.85400859680962L244.474,31.375849521319225L244.976,30.89783100273388L245.478,30.41995354645354L245.98,29.94221762729387L246.482,29.464623690373486L246.984,28.98717215197624L247.486,28.509863400389378L247.988,28.03269779671774L248.49,27.555675675675673L248.992,27.078797346356225L249.494,26.602063092979137L249.996,26.12547317561794L250.498,25.64902783090676"></path><path fill="transparent" stroke="#f4c237" stroke-width="4" opacity="1" d="M125.5,93.71999999999998L126.002,94.346363136L126.504,94.964383488L127.006,95.573897472L127.508,96.17474150399998L128.01,96.76675199999998L128.512,97.349765376L129.014,97.923618048L129.516,98.48814643200001L130.018,99.043186944L130.52,99.58857599999999L131.022,100.124150016L131.524,100.649745408L132.026,101.165198592L132.528,101.67034598400001L133.03,102.16502400000002L133.532,102.64906905600002L134.034,103.122317568L134.536,103.584605952L135.038,104.03577062400001L135.54,104.475648L136.042,104.904074496L136.544,105.320886528L137.046,105.72592051200002L137.548,106.119012864L138.05,106.50000000000001L138.552,106.86871833600001L139.054,107.22500428800001L139.556,107.568694272L140.058,107.899624704L140.56,108.21763200000001L141.062,108.522552576L141.564,108.81422284799999L142.066,109.09247923199999L142.568,109.35715814399998L143.07,109.60809599999999L143.572,109.84512921599999L144.074,110.06809420799999L144.576,110.27682739199999L145.078,110.47116518399999L145.58,110.650944L146.082,110.81600025599998L146.584,110.966170368L147.086,111.101290752L147.588,111.221197824L148.09,111.32572799999998L148.592,111.41471769599997L149.094,111.48800332799999L149.596,111.54542131199999L150.098,111.58680806399998L150.6,111.61199999999998L151.102,111.620833536L151.604,111.613145088L152.106,111.588771072L152.608,111.54754790399998L153.11,111.48931199999998L153.612,111.413899776L154.114,111.32114764799998L154.616,111.21089203199998L155.118,111.08296934399999L155.62,110.93721599999998L156.122,110.77346841599999L156.624,110.591563008L157.126,110.39133619199998L157.62800000000001,110.17262438399999L158.13,109.935264L158.632,109.67909145599998L159.13400000000001,109.40394316799998L159.636,109.10965555199998L160.138,108.79606502399999L160.64,108.46300799999999L161.142,108.11032089599998L161.644,107.73784012799997L162.146,107.34540211199997L162.648,106.93284326399998L163.15,106.5L163.652,106.04670873599999L164.154,105.57280588799999L164.656,105.07812787199995L165.158,104.562511104L165.66,104.02579199999998L166.162,103.46780697599998L166.664,102.88839244799998L167.166,102.287384832L167.668,101.66462054399997L168.17,101.01993599999999L168.672,100.35316761599998L169.174,99.66415180799997L169.676,98.95272499199997L170.178,98.21872358399996L170.68,97.46198399999997L171.182,96.68234265599996L171.684,95.87963596799997L172.186,95.05370035199996L172.688,94.20437222400001L173.19,93.33148800000002L173.692,92.43488409600005L174.194,91.51439692800001L174.696,90.56986291200002L175.198,89.60111846399998L175.7,88.60799999999999L176.202,87.59034393600001L176.704,86.54798668800001L177.206,85.48076467199999L177.708,84.38851430400004L178.21,83.271072L178.712,82.12827417600002L179.214,80.959957248L179.716,79.76595763200001L180.218,78.546111744L180.72,77.30025599999999L181.222,76.02822681599997L181.724,74.729860608L182.226,73.404993792L182.728,72.053462784L183.23,70.675104L183.732,69.269753856L184.234,67.83724876800002L184.736,66.377425152L185.238,64.89011942399998L185.74,63.375168L186.242,61.832407295999985L186.744,60.26167372799998L187.246,58.662803712L187.748,57.03563366400002L188.25,55.37999999999997L188.752,53.695739135999986L189.254,51.98268748800001L189.756,50.24068147199998L190.258,48.469557503999994L190.76,46.66915199999994L191.262,44.83930137599998L191.764,42.979842047999966L192.266,41.09061043199995L192.768,39.17144294399998L193.27,37.22217599999996L193.772,35.24264601599998L194.274,33.23268940799997L194.776,31.192142591999954L195.278,29.120841983999952L195.78,27.01862399999993L196.282,24.885325055999942L196.784,22.72078156799998L197.286,20.524829951999976L197.788,18.297306623999958L198.29,16.038047999999947L198.792,13.746890495999963L199.294,11.423670527999917L199.796,9.068224511999944L200.298,6.680388863999923L200.8,4.2599999999999625L201.302,1.8068943359999423L201.804,-0.6790917120001154L202.306,-3.198121728000075L202.808,-5.750359296000084L203.31,-8.335968000000065L203.812,-10.95511142400008L204.314,-13.607953151999936L204.816,-16.29465676799998L205.318,-19.015385855999966L205.82,-21.77030399999998L206.322,-24.55957478399992L206.824,-27.38336179199996L207.326,-30.241828607999906L207.828,-33.135138815999994L208.33,-36.063455999999945L208.832,-39.02694374399999L209.334,-42.025765631999974L209.836,-45.06008524800001L210.338,-48.130066176000014L210.84,-51.23587199999997L211.342,-54.377666304L211.844,-57.55561267199994L212.346,-60.769874688000016L212.848,-64.02061593599996L213.35,-67.30799999999999L213.852,-70.63219046400002L214.354,-73.99335091199998L214.856,-77.39164492799995L215.358,-80.82723609599992L215.86,-84.30028799999997L216.362,-87.81096422399997L216.864,-91.35942835200001L217.366,-94.94584396799996L217.868,-98.57037465599996L218.37,-102.233184L218.872,-105.93443558400003"></path><path fill="transparent" stroke="#f4c237" stroke-width="4" opacity="0.6" d="M61.746,-104.24003251199997L62.248,-101.09562086400001L62.75,-97.98000000000002L63.252,-94.89300633599998L63.754,-91.83447628800002L64.256,-88.804246272L64.758,-85.80215270399998L65.26,-82.82803199999995L65.762,-79.88172057599996L66.264,-76.96305484799996L66.766,-74.07187123199998L67.268,-71.20800614399997L67.77,-68.37129599999992L68.272,-65.56157721599999L68.774,-62.7786862079999L69.276,-60.02245939199992L69.778,-57.29273318399993L70.28,-54.589343999999926L70.782,-51.91212825600002L71.284,-49.260922368000024L71.786,-46.635562752000055L72.288,-44.03588582400005L72.79,-41.46172800000002L73.292,-38.91292569600003L73.794,-36.38931532800001L74.296,-33.89073331200001L74.798,-31.417016064000023L75.3,-28.968000000000018L75.802,-26.543521535999986L76.304,-24.14341708799998L76.806,-21.76752307199996L77.308,-19.415675903999954L77.81,-17.087711999999982L78.312,-14.78346777599998L78.81400000000001,-12.502779647999972L79.316,-10.24548403199995L79.818,-8.011417343999966L80.32,-5.800415999999984L80.822,-3.6123164159999703L81.324,-1.446955007999975L81.826,0.6958318080000083L82.328,2.816207616000014L82.83,4.914336000000048L83.332,6.990380544000033L83.834,9.04450483200003L84.336,11.076872448000017L84.838,13.08764697600003L85.34,15.076992000000047L85.842,17.045071104000044L86.344,18.992047872L86.846,20.91808588799998L87.348,22.823348735999986L87.85,24.70799999999997L88.352,26.572203263999967L88.854,28.416122111999982L89.356,30.239920127999994L89.858,32.04376089599998L90.36,33.827808000000005L90.862,35.59222502399999L91.364,37.33717555200002L91.866,39.06282316800002L92.368,40.769331456L92.87,42.456863999999996L93.372,44.12558438400001L93.874,45.775656191999985L94.376,47.407243007999995L94.878,49.02050841600001L95.38,50.61561600000002L95.882,52.192729344000014L96.384,53.75201203200001L96.886,55.29362764800001L97.388,56.817739776000025L97.89,58.32451200000003L98.392,59.814107904000025L98.894,61.286691071999996L99.396,62.74242508800003L99.898,64.18147353600003L100.4,65.60400000000001L100.902,67.01016806400003L101.404,68.40014131200004L101.906,69.77408332800002L102.408,71.13215769600001L102.91,72.47452799999996L103.412,73.80135782400001L103.914,75.112810752L104.416,76.40905036799998L104.918,77.69024025599998L105.42,78.95654399999998L105.922,80.20812518400001L106.424,81.445147392L106.926,82.667774208L107.428,83.876169216L107.93,85.07049599999999L108.432,86.250918144L108.934,87.41759923200001L109.436,88.57070284800001L109.938,89.710392576L110.44,90.83683200000002L110.94200000000001,91.95018470400001L111.444,93.05061427200002L111.946,94.13828428800001L112.44800000000001,95.213358336L112.95,96.27600000000001L113.452,97.326372864L113.954,98.36464051200001L114.456,99.390966528L114.958,100.40551449600001L115.46,101.40844800000002L115.962,102.399930624L116.464,103.38012595200001L116.966,104.34919756800002L117.468,105.30730905600002L117.97,106.25462399999999L118.472,107.191305984L118.974,108.11751859199998L119.476,109.03342540799999L119.978,109.939190016L120.48,110.834976L120.982,111.72094694399999L121.484,112.597266432L121.986,113.464098048L122.488,114.321605376L122.99,115.16995200000001L123.492,116.009301504L123.994,116.839817472L124.496,117.661663488L124.998,118.47500313600001"></path><line class="v-line" x1="118.22099999999999" y1="0" x2="118.22099999999999" y2="213" stroke-width="1" stroke="#777777" style="stroke-dasharray: 1, 3;"></line><line class="v-line" x1="137.799" y1="0" x2="137.799" y2="213" stroke-width="1" stroke="#777777" style="stroke-dasharray: 1, 3;"></line><line class="v-line" x1="162.899" y1="0" x2="162.899" y2="213" stroke-width="1" stroke="#777777" style="stroke-dasharray: 1, 3;"></line></g><g transform="translate(1,20)"><text class="small" x="0" y="207">-2</text><text class="small" x="0" y="153.75">-1</text><text class="small" x="0" y="100.5">0</text><text class="small" x="0" y="47.25">1</text><text class="small" x="0" y="-6">2</text><text class="small timeline" x="0.5" y="121.5" text-anchor="start">-2</text><text class="small timeline" x="62.5" y="121.5" text-anchor="start">-1</text><text class="small timeline" x="125.5" y="121.5" text-anchor="start">0</text><text class="small timeline" x="188.5" y="121.5" text-anchor="start">1</text><text class="small timeline" x="251.5" y="121.5" text-anchor="end">2</text></g></svg>