<svg width="254" height="254"><g transform="translate(1,20)"><line x1="0" y1="214" x2="252" y2="214" stroke-width="1" stroke="#DDDDDD"></line><line x1="0" y1="142.66666666666669" x2="252" y2="142.66666666666669" stroke-width="1" stroke="#DDDDDD"></line><line x1="0" y1="71.33333333333334" x2="252" y2="71.33333333333334" stroke-width="1" stroke="#DDDDDD"></line><line x1="0" y1="0" x2="252" y2="0" stroke-width="1" stroke="#DDDDDD"></line><line x1="0" y1="214" x2="252" y2="214" stroke-width="1" stroke="#777777"></line><text class="small timeline" x="0" y="229" text-anchor="start">0</text><line class="timeline" x1="0" y1="211" x2="0" y2="217" stroke-width="1" stroke="#777777"></line><line class="timeline" x1="8.400000000000055" y1="212" x2="8.400000000000055" y2="216" stroke-width="1" stroke="#777777"></line><line class="timeline" x1="16.80000000000011" y1="212" x2="16.80000000000011" y2="216" stroke-width="1" stroke="#777777"></line><line class="timeline" x1="25.20000000000017" y1="212" x2="25.20000000000017" y2="216" stroke-width="1" stroke="#777777"></line><line class="timeline" x1="33.60000000000022" y1="212" x2="33.60000000000022" y2="216" stroke-width="1" stroke="#777777"></line><line class="timeline" x1="42.00000000000028" y1="212" x2="42.00000000000028" y2="216" stroke-width="1" stroke="#777777"></line><line class="timeline" x1="50.40000000000033" y1="212" x2="50.40000000000033" y2="216" stroke-width="1" stroke="#777777"></line><line class="timeline" x1="58.80000000000038" y1="212" x2="58.80000000000038" y2="216" stroke-width="1" stroke="#777777"></line><line class="timeline" x1="67.20000000000044" y1="212" x2="67.20000000000044" y2="216" stroke-width="1" stroke="#777777"></line><line class="timeline" x1="75.60000000000049" y1="212" x2="75.60000000000049" y2="216" stroke-width="1" stroke="#777777"></line><text class="small timeline" x="84" y="229" text-anchor="start">1</text><line class="timeline" x1="84.00000000000054" y1="211" x2="84.00000000000054" y2="217" stroke-width="1" stroke="#777777"></line><line class="timeline" x1="92.4000000000006" y1="212" x2="92.4000000000006" y2="216" stroke-width="1" stroke="#777777"></line><line class="timeline" x1="100.80000000000067" y1="212" x2="100.80000000000067" y2="216" stroke-width="1" stroke="#777777"></line><line class="timeline" x1="109.20000000000073" y1="212" x2="109.20000000000073" y2="216" stroke-width="1" stroke="#777777"></line><line class="timeline" x1="117.60000000000079" y1="212" x2="117.60000000000079" y2="216" stroke-width="1" stroke="#777777"></line><line class="timeline" x1="126.00000000000085" y1="212" x2="126.00000000000085" y2="216" stroke-width="1" stroke="#777777"></line><line class="timeline" x1="134.40000000000092" y1="212" x2="134.40000000000092" y2="216" stroke-width="1" stroke="#777777"></line><line class="timeline" x1="142.80000000000098" y1="212" x2="142.80000000000098" y2="216" stroke-width="1" stroke="#777777"></line><line class="timeline" x1="151.20000000000104" y1="212" x2="151.20000000000104" y2="216" stroke-width="1" stroke="#777777"></line><line class="timeline" x1="159.6000000000011" y1="212" x2="159.6000000000011" y2="216" stroke-width="1" stroke="#777777"></line><text class="small timeline" x="168" y="229" text-anchor="start">2</text><line class="timeline" x1="168.00000000000114" y1="211" x2="168.00000000000114" y2="217" stroke-width="1" stroke="#777777"></line><line class="timeline" x1="176.4000000000012" y1="212" x2="176.4000000000012" y2="216" stroke-width="1" stroke="#777777"></line><line class="timeline" x1="184.80000000000126" y1="212" x2="184.80000000000126" y2="216" stroke-width="1" stroke="#777777"></line><line class="timeline" x1="193.20000000000132" y1="212" x2="193.20000000000132" y2="216" stroke-width="1" stroke="#777777"></line><line class="timeline" x1="201.6000000000014" y1="212" x2="201.6000000000014" y2="216" stroke-width="1" stroke="#777777"></line><line class="timeline" x1="210.00000000000145" y1="212" x2="210.00000000000145" y2="216" stroke-width="1" stroke="#777777"></line><line class="timeline" x1="218.4000000000015" y1="212" x2="218.4000000000015" y2="216" stroke-width="1" stroke="#777777"></line><line class="timeline" x1="226.80000000000157" y1="212" x2="226.80000000000157" y2="216" stroke-width="1" stroke="#777777"></line><line class="timeline" x1="235.20000000000164" y1="212" x2="235.20000000000164" y2="216" stroke-width="1" stroke="#777777"></line><line class="timeline" x1="243.6000000000017" y1="212" x2="243.6000000000017" y2="216" stroke-width="1" stroke="#777777"></line><text class="small timeline" x="252" y="229" text-anchor="end">3</text><line class="timeline" x1="252.00000000000176" y1="211" x2="252.00000000000176" y2="217" stroke-width="1" stroke="#777777"></line></g><g transform="translate(1,20)"><path fill="transparent" stroke="#ed4f80" stroke-width="4" d="M0,99.86666666666667L0.8372093023255814,100.03786666666664L1.6744186046511629,100.20598780586666L2.511627906976744,100.3710907859999L3.3488372093023258,100.53323493163622L4.186046511627907,100.69247822746973L5.023255813953488,100.84887735439713L5.86046511627907,101.00248772443248L6.6976744186046515,101.15336351450253L7.534883720930233,101.30155769916469L8.372093023255815,101.44712208228768L9.209302325581396,101.59010732773368L10.046511627906977,101.73056298907859L10.883720930232558,101.86853753840607L11.72093023255814,102.0040783942089L12.558139534883722,102.13723194843026L13.395348837209303,102.26804359267615L14.232558139534884,102.39655774362862L15.069767441860465,102.52281786768829L15.906976744186048,102.64686650487388L16.74418604651163,102.76874529200488L17.58139534883721,102.88849498519251L18.41860465116279,103.0061554816634L19.255813953488374,103.1217658409392L20.093023255813954,103.2353643053943L20.930232558139537,103.34698832021319L21.767441860465116,103.45667455276826L22.6046511627907,103.56445891143734L23.44186046511628,103.67037656388057L24.27906976744186,103.77446195479446L25.116279069767444,103.87674882316085L25.953488372093023,103.97727021900769L26.790697674418606,104.07605851969775L27.62790697674419,104.17314544576118L28.46511627906977,104.26856207628651L29.30232558139535,104.36233886388506L30.13953488372093,104.45450564924211L30.976744186046513,104.54509167526884L31.813953488372096,104.63412560086739L32.651162790697676,104.72163551432179L33.48837209302326,104.80764894632678L34.32558139534884,104.8921928826656L35.16279069767442,104.97529377654844L36,105.05697756062175L36.83720930232558,105.13726965865914L37.674418604651166,105.21619499694337L38.51162790697675,105.29377801534947L39.348837209302324,105.37004267813775L40.18604651162791,105.4450124844662L41.02325581395349,105.51871047863021L41.86046511627907,105.59115926003844L42.697674418604656,105.66238099293265L43.53488372093023,105.7323974158591L44.372093023255815,105.80122985089906L45.2093023255814,105.86889921266582L46.04651162790698,105.93542601707487L46.88372093023256,106.00083038989399L47.72093023255814,106.06513207507994L48.55813953488372,106.12835044290789L49.395348837209305,106.19050449789943L50.23255813953489,106.25161288655553L51.06976744186047,106.31169390489947L51.906976744186046,106.37076550583573L52.74418604651163,106.42884530632972L53.58139534883721,106.48595059441382L54.418604651162795,106.54209833602428L55.25581395348838,106.59730518167419L56.093023255813954,106.65158747296664L56.93023255813954,106.70496124895303L57.76744186046512,106.75744225234048L58.6046511627907,106.80904593555275L59.441860465116285,106.85978746664861L60.27906976744186,106.90968173510157L61.116279069767444,106.9587433574449L61.95348837209303,107.00698668278547L62.79069767441861,107.05442579818997L63.62790697674419,107.10107453394711L64.46511627906978,107.14694646870896L65.30232558139535,107.19205493451481L66.13953488372093,107.23641302170054L66.97674418604652,107.28003358369662L67.81395348837209,107.32292924171779L68.65116279069768,107.36511238934706L69.48837209302326,107.40659519701694L70.32558139534883,107.44738961639052L71.16279069767442,107.48750738464507L72,107.5269600286606L72.83720930232559,107.5657588691159L73.67441860465117,107.60391502449443L74.51162790697674,107.64143941500218L75.34883720930233,107.6783427664002L76.18604651162791,107.71463561375333L77.0232558139535,107.75032830509778L77.86046511627907,107.78543100502932L78.69767441860465,107.81995369821416L79.53488372093024,107.85390619282447L80.37209302325581,107.88729812390018L81.2093023255814,107.92013895663939L82.04651162790698,107.95243798961852L82.88372093023256,107.98420435794435L83.72093023255815,108.01544703633961L84.55813953488372,108.04617484216334L85.39534883720931,108.07639643836823L86.23255813953489,108.10612033639578L87.06976744186046,108.13535489901128L87.90697674418605,108.16410834307989L88.74418604651163,108.19238874228516L89.58139534883722,108.22020402979136L90.4186046511628,108.24756200085109L91.25581395348837,108.27447031535938L92.09302325581396,108.30093650035535L92.93023255813954,108.326967952473L93.76744186046513,108.35257194034219L94.6046511627907,108.37775560694067L95.44186046511628,108.40252597189884L96.27906976744187,108.42688993375782L97.11627906976744,108.45085427218218L97.95348837209303,108.4744256501284L98.79069767441861,108.49761061596976L99.62790697674419,108.52041560557913L100.46511627906978,108.54284694437008L101.30232558139535,108.5649108492977L102.13953488372094,108.58661343081975L102.97674418604652,108.60796069481917L103.81395348837209,108.62895854448875L104.65116279069768,108.6496127821788L105.48837209302326,108.66992911120876L106.32558139534885,108.6899131376432L107.16279069767442,108.70957037203362L108,108.72890623112603L108.83720930232559,108.74792603953566L109.67441860465117,108.76663503138927L110.51162790697676,108.78503835193575L111.34883720930233,108.80314105912583L112.18604651162791,108.82094812516131L113.0232558139535,108.83846443801474L113.86046511627907,108.8556948029202L114.69767441860466,108.87264394383533L115.53488372093024,108.8893165048759L116.37209302325581,108.905717051723L117.2093023255814,108.92185007300353L118.04651162790698,108.93771998164483L118.88372093023257,108.95333111620356L119.72093023255815,108.96868774216969L120.55813953488372,108.98379405324604L121.39534883720931,108.99865417260379L122.23255813953489,109.01327215411456L123.06976744186048,109.02765198355947L123.90697674418605,109.0417975798158L124.74418604651163,109.05571279602151L125.58139534883722,109.06940142071812L126.4186046511628,109.08286717897262L127.25581395348838,109.0961137334785L128.09302325581396,109.10914468563655L128.93023255813955,109.12196357661576L129.7674418604651,109.13457388839474L130.6046511627907,109.14697904478405L131.4418604651163,109.15918241242984L132.27906976744185,109.17118730179912L133.11627906976744,109.18299696814708L133.95348837209303,109.19461461246681L134.79069767441862,109.2060433824218L135.62790697674419,109.21728637326144L136.46511627906978,109.22834662872008L137.30232558139537,109.23922714189955L138.13953488372093,109.24993085613617L138.97674418604652,109.26046066585184L139.8139534883721,109.27081941738979L140.65116279069767,109.28100990983555L141.48837209302326,109.291034895823L142.32558139534885,109.30089708232612L143.16279069767444,109.31059913143638L144,109.32014366112651L144.8372093023256,109.32953324600051L145.67441860465118,109.3387704180303L146.51162790697674,109.34785766727924L147.34883720930233,109.35679744261309L148.18604651162792,109.3655921523979L149.02325581395348,109.37424416518589L149.86046511627907,109.38275581038921L150.69767441860466,109.39112937894159L151.53488372093025,109.39936712394844L152.37209302325581,109.40747126132563L153.2093023255814,109.41544397042676L154.046511627907,109.42328739465972L154.88372093023256,109.43100364209216L155.72093023255815,109.43859478604661L156.55813953488374,109.44606286568492L157.3953488372093,109.45340988658276L158.2325581395349,109.46063782129386L159.06976744186048,109.46774860990459L159.90697674418607,109.47474416057871L160.74418604651163,109.48162635009287L161.58139534883722,109.4883970243626L162.4186046511628,109.49505799895923L163.25581395348837,109.50161105961794L164.09302325581396,109.5080579627369L164.93023255813955,109.51440043586783L165.7674418604651,109.52064017819804L166.6046511627907,109.52677886102424L167.4418604651163,109.5328181282181L168.27906976744188,109.53875959668379L169.11627906976744,109.54460485680767L169.95348837209303,109.55035547290029L170.79069767441862,109.5560129836307L171.62790697674419,109.56157890245338L172.46511627906978,109.56705471802788L173.30232558139537,109.57244189463113L174.13953488372093,109.57774187256288L174.97674418604652,109.58295606854409L175.8139534883721,109.58808587610854L176.6511627906977,109.59313266598771L177.48837209302326,109.59809778648928L178.32558139534885,109.6029825638689L179.16279069767444,109.60778830269591L180,109.61251628621262L180.8372093023256,109.61716777668761L181.67441860465118,109.62174401576299L182.51162790697674,109.62624622479578L183.34883720930233,109.6306756051935L184.18604651162792,109.6350333387441L185.0232558139535,109.63932058794018L185.86046511627907,109.6435384962979L186.69767441860466,109.64768818867043L187.53488372093025,109.65177077155603L188.37209302325581,109.65578733340107L189.2093023255814,109.65973894489778L190.046511627907,109.66362665927714L190.88372093023256,109.66745151259677L191.72093023255815,109.6712145240239L192.55813953488374,109.67491669611363L193.39534883720933,109.67855901508266L194.2325581395349,109.68214245107816L195.06976744186048,109.68566795844235L195.90697674418607,109.68913647597245L196.74418604651163,109.69254892717639L197.58139534883722,109.69590622052436L198.4186046511628,109.69920924969577L199.25581395348837,109.70245889382247L200.09302325581396,109.70565601772765L200.93023255813955,109.70880147216091L201.76744186046514,109.71189609402926L202.6046511627907,109.71494070662435L203.4418604651163,109.71793611984586L204.27906976744188,109.72088313042127L205.11627906976744,109.72378252212178L205.95348837209303,109.72663506597479L206.79069767441862,109.72944152047278L207.62790697674419,109.73220263177876L208.46511627906978,109.73491913392813L209.30232558139537,109.73759174902747L210.13953488372096,109.74022118744979L210.97674418604652,109.74280814802663L211.8139534883721,109.74535331823688L212.6511627906977,109.74785737439274L213.48837209302326,109.75032098182211L214.32558139534885,109.75274479504851L215.16279069767444,109.75512945796758L216,109.7574756040209L216.8372093023256,109.75978385636677L217.67441860465118,109.76205482804835L218.51162790697674,109.76428912215884L219.34883720930233,109.76648733200403L220.18604651162792,109.76865004126215L221.0232558139535,109.770777824141L221.86046511627907,109.77287124553258L222.69767441860466,109.77493086116519L223.53488372093025,109.7769572177528L224.37209302325581,109.7789508531423L225.2093023255814,109.78091229645804L226.046511627907,109.78284206824402L226.88372093023256,109.78474068060393L227.72093023255815,109.78660863733866L228.55813953488374,109.78844643408165L229.39534883720933,109.79025455843203L230.2325581395349,109.79203349008544L231.06976744186048,109.79378370096292L231.90697674418607,109.79550565533744L232.74418604651163,109.79719980995846L233.58139534883722,109.79886661417454L234.4186046511628,109.80050651005374L235.25581395348837,109.80211993250211L236.09302325581396,109.8037073093804L236.93023255813955,109.80526906161855L237.76744186046514,109.80680560332856L238.6046511627907,109.80831734191538L239.4418604651163,109.80980467818603L240.27906976744188,109.81126800645681L241.11627906976744,109.81270771465904L241.95348837209303,109.81412418444269L242.79069767441862,109.81551779127861L243.62790697674419,109.81688890455891L244.46511627906978,109.81823788769587L245.30232558139537,109.81956509821894L246.13953488372096,109.82087088787051L246.97674418604652,109.82215560269984L247.8139534883721,109.82341958315548L248.6511627906977,109.82466316417644L249.48837209302326,109.8258866752815L250.32558139534885,109.82709044065727L251.16279069767444,109.82827477924484"></path><path fill="transparent" stroke="#40a1dd" stroke-width="4" d="M0,185.46666666666667L0.8372093023255814,185.29546666666667L1.6744186046511629,185.12734552746667L2.511627906976744,184.96224254733343L3.3488372093023258,184.8000984016971L4.186046511627907,184.64085510586358L5.023255813953488,184.48445597893618L5.86046511627907,184.33084560890083L6.6976744186046515,184.17996981883078L7.534883720930233,184.03177563416864L8.372093023255815,183.88621125104564L9.209302325581396,183.74322600559964L10.046511627906977,183.6027703442547L10.883720930232558,183.46479579492723L11.72093023255814,183.3292549391244L12.558139534883722,183.19610138490307L13.395348837209303,183.06528974065716L14.232558139534884,182.93677558970472L15.069767441860465,182.81051546564504L15.906976744186048,182.68646682845943L16.74418604651163,182.56458804132845L17.58139534883721,182.44483834814082L18.41860465116279,182.32717785166994L19.255813953488374,182.21156749239412L20.093023255813954,182.09796902793903L20.930232558139537,181.98634501312014L21.767441860465116,181.8766587805651L22.6046511627907,181.76887442189602L23.44186046511628,181.66295676945276L24.27906976744186,181.55887137853887L25.116279069767444,181.45658451017246L25.953488372093023,181.35606311432565L26.790697674418606,181.25727481363558L27.62790697674419,181.16018788757216L28.46511627906977,181.0647712570468L29.30232558139535,180.97099446944827L30.13953488372093,180.87882768409122L30.976744186046513,180.78824165806446L31.813953488372096,180.69920773246594L32.651162790697676,180.6116978190115L33.48837209302326,180.52568438700655L34.32558139534884,180.44114045066772L35.16279069767442,180.3580395567849L36,180.27635577271155L36.83720930232558,180.19606367467418L37.674418604651166,180.11713833638993L38.51162790697675,180.03955531798383L39.348837209302324,179.96329065519555L40.18604651162791,179.8883208488671L41.02325581395349,179.8146228547031L41.86046511627907,179.74217407329488L42.697674418604656,179.67095234040065L43.53488372093023,179.6009359174742L44.372093023255815,179.53210348243425L45.2093023255814,179.46443412066748L46.04651162790698,179.39790731625843L46.88372093023256,179.33250294343932L47.72093023255814,179.26820125825336L48.55813953488372,179.2049828904254L49.395348837209305,179.14282883543387L50.23255813953489,179.08172044677778L51.06976744186047,179.02163942843382L51.906976744186046,178.96256782749757L52.74418604651163,178.90448802700357L53.58139534883721,178.8473827389195L54.418604651162795,178.791234997309L55.25581395348838,178.73602815165913L56.093023255813954,178.68174586036665L56.93023255813954,178.62837208438026L57.76744186046512,178.57589108099282L58.6046511627907,178.52428739778054L59.441860465116285,178.47354586668467L60.27906976744186,178.42365159823174L61.116279069767444,178.3745899758884L61.95348837209303,178.32634665054786L62.79069767441861,178.27890753514336L63.62790697674419,178.23225879938622L64.46511627906978,178.18638686462432L65.30232558139535,178.14127839881849L66.13953488372093,178.09692031163277L66.97674418604652,178.0532997496367L67.81395348837209,178.0104040916155L68.65116279069768,177.96822094398624L69.48837209302326,177.92673813631635L70.32558139534883,177.8859437169428L71.16279069767442,177.84582594868823L72,177.8063733046727L72.83720930232559,177.76757446421738L73.67441860465117,177.7294183088389L74.51162790697674,177.69189391833112L75.34883720930233,177.6549905669331L76.18604651162791,177.61869771957996L77.0232558139535,177.5830050282355L77.86046511627907,177.547902328304L78.69767441860465,177.51337963511912L79.53488372093024,177.47942714050885L80.37209302325581,177.44603520943312L81.2093023255814,177.4131943766939L82.04651162790698,177.38089534371477L82.88372093023256,177.34912897538894L83.72093023255815,177.3178862969937L84.55813953488372,177.28715849116992L85.39534883720931,177.25693689496504L86.23255813953489,177.2272129969375L87.06976744186046,177.197978434322L87.90697674418605,177.16922499025338L88.74418604651163,177.14094459104814L89.58139534883722,177.11312930354194L90.4186046511628,177.08577133248218L91.25581395348837,177.05886301797392L92.09302325581396,177.03239683297795L92.93023255813954,177.00636538086027L93.76744186046513,176.98076139299107L94.6046511627907,176.9555777263926L95.44186046511628,176.9308073614344L96.27906976744187,176.90644339957544L97.11627906976744,176.88247906115106L97.95348837209303,176.85890768320488L98.79069767441861,176.83572271736352L99.62790697674419,176.81291772775415L100.46511627906978,176.7904863889632L101.30232558139535,176.76842248403557L102.13953488372094,176.74671990251352L102.97674418604652,176.7253726385141L103.81395348837209,176.70437478884455L104.65116279069768,176.68372055115447L105.48837209302326,176.66340422212454L106.32558139534885,176.64342019569008L107.16279069767442,176.62376296129966L108,176.60442710220724L108.83720930232559,176.58540729379763L109.67441860465117,176.56669830194403L110.51162790697676,176.54829498139753L111.34883720930233,176.53019227420745L112.18604651162791,176.512385208172L113.0232558139535,176.49486889531855L113.86046511627907,176.4776385304131L114.69767441860466,176.46068938949796L115.53488372093024,176.4440168284574L116.37209302325581,176.42761628161028L117.2093023255814,176.41148326032976L118.04651162790698,176.39561335168844L118.88372093023257,176.38000221712974L119.72093023255815,176.3646455911636L120.55813953488372,176.34953928008724L121.39534883720931,176.33467916072948L122.23255813953489,176.32006117921873L123.06976744186048,176.3056813497738L123.90697674418605,176.29153575351748L124.74418604651163,176.2776205373118L125.58139534883722,176.2639319126152L126.4186046511628,176.2504661543607L127.25581395348838,176.23721959985482L128.09302325581396,176.22418864769676L128.93023255813955,176.21136975671757L129.7674418604651,176.1987594449386L130.6046511627907,176.18635428854927L131.4418604651163,176.17415092090346L132.27906976744185,176.16214603153418L133.11627906976744,176.15033636518623L133.95348837209303,176.1387187208665L134.79069767441862,176.12728995091152L135.62790697674419,176.11604696007186L136.46511627906978,176.10498670461322L137.30232558139537,176.09410619143375L138.13953488372093,176.08340247719713L138.97674418604652,176.07287266748145L139.8139534883721,176.0625139159435L140.65116279069767,176.05232342349774L141.48837209302326,176.04229843751028L142.32558139534885,176.03243625100717L143.16279069767444,176.02273420189692L144,176.01318967220678L144.8372093023256,176.00380008733276L145.67441860465118,175.994562915303L146.51162790697674,175.98547566605404L147.34883720930233,175.97653589072019L148.18604651162792,175.9677411809354L149.02325581395348,175.9590891681474L149.86046511627907,175.95057752294406L150.69767441860466,175.94220395439172L151.53488372093025,175.93396620938486L152.37209302325581,175.92586207200767L153.2093023255814,175.91788936290655L154.046511627907,175.9100459386736L154.88372093023256,175.90232969124114L155.72093023255815,175.8947385472867L156.55813953488374,175.8872704676484L157.3953488372093,175.87992344675055L158.2325581395349,175.87269551203946L159.06976744186048,175.86558472342875L159.90697674418607,175.85858917275462L160.74418604651163,175.85170698324043L161.58139534883722,175.84493630897072L162.4186046511628,175.8382753343741L163.25581395348837,175.8317222737154L164.09302325581396,175.82527537059642L164.93023255813955,175.81893289746552L165.7674418604651,175.8126931551353L166.6046511627907,175.80655447230907L167.4418604651163,175.80051520511523L168.27906976744188,175.79457373664954L169.11627906976744,175.78872847652565L169.95348837209303,175.78297786043302L170.79069767441862,175.77732034970262L171.62790697674419,175.77175443087992L172.46511627906978,175.76627861530545L173.30232558139537,175.76089143870217L174.13953488372093,175.75559146077043L174.97674418604652,175.75037726478922L175.8139534883721,175.74524745722476L176.6511627906977,175.7402006673456L177.48837209302326,175.73523554684402L178.32558139534885,175.7303507694644L179.16279069767444,175.7255450306374L180,175.7208170471207L180.8372093023256,175.71616555664573L181.67441860465118,175.71158931757034L182.51162790697674,175.70708710853756L183.34883720930233,175.70265772813983L184.18604651162792,175.6982999945892L185.0232558139535,175.69401274539314L185.86046511627907,175.6897948370354L186.69767441860466,175.68564514466289L187.53488372093025,175.6815625617773L188.37209302325581,175.67754599993225L189.2093023255814,175.67359438843553L190.046511627907,175.66970667405616L190.88372093023256,175.66588182073653L191.72093023255815,175.66211880930942L192.55813953488374,175.6584166372197L193.39534883720933,175.65477431825065L194.2325581395349,175.65119088225515L195.06976744186048,175.64766537489095L195.90697674418607,175.64419685736087L196.74418604651163,175.6407844061569L197.58139534883722,175.63742711280895L198.4186046511628,175.63412408363752L199.25581395348837,175.63087443951082L200.09302325581396,175.62767731560564L200.93023255813955,175.6245318611724L201.76744186046514,175.62143723930402L202.6046511627907,175.61839262670895L203.4418604651163,175.61539721348743L204.27906976744188,175.61245020291202L205.11627906976744,175.60955081121153L205.95348837209303,175.60669826735852L206.79069767441862,175.60389181286052L207.62790697674419,175.60113070155455L208.46511627906978,175.59841419940517L209.30232558139537,175.5957415843058L210.13953488372096,175.59311214588348L210.97674418604652,175.59052518530666L211.8139534883721,175.5879800150964L212.6511627906977,175.58547595894055L213.48837209302326,175.58301235151117L214.32558139534885,175.58058853828476L215.16279069767444,175.5782038753657L216,175.5758577293124L216.8372093023256,175.57354947696652L217.67441860465118,175.57127850528494L218.51162790697674,175.56904421117443L219.34883720930233,175.56684600132922L220.18604651162792,175.56468329207112L221.0232558139535,175.56255550919226L221.86046511627907,175.56046208780066L222.69767441860466,175.55840247216807L223.53488372093025,175.55637611558046L224.37209302325581,175.55438248019095L225.2093023255814,175.55242103687522L226.046511627907,175.55049126508925L226.88372093023256,175.54859265272933L227.72093023255815,175.5467246959946L228.55813953488374,175.54488689925162L229.39534883720933,175.54307877490126L230.2325581395349,175.54129984324783L231.06976744186048,175.53954963237038L231.90697674418607,175.53782767799586L232.74418604651163,175.53613352337484L233.58139534883722,175.53446671915876L234.4186046511628,175.53282682327958L235.25581395348837,175.53121340083118L236.09302325581396,175.52962602395291L236.93023255813955,175.52806427171475L237.76744186046514,175.52652773000472L238.6046511627907,175.5250159914179L239.4418604651163,175.5235286551473L240.27906976744188,175.5220653268765L241.11627906976744,175.52062561867425L241.95348837209303,175.5192091488906L242.79069767441862,175.51781554205468L243.62790697674419,175.51644442877438L244.46511627906978,175.51509544563743L245.30232558139537,175.51376823511436L246.13953488372096,175.51246244546277L246.97674418604652,175.51117773063345L247.8139534883721,175.50991375017782L248.6511627906977,175.50867016915686L249.48837209302326,175.5074466580518L250.32558139534885,175.50624289267603L251.16279069767444,175.50505855408846"></path><path fill="transparent" stroke="#444444" stroke-width="4" d="M0,128.39999999999998L0.84,128.74239999999998L1.68,129.07864227839997L2.52,129.40884823866645L3.36,129.7331365299391L4.2,130.05162312160616L5.04,130.36442137546095L5.88,130.67164211553165L6.72,130.97339369567175L7.56,131.26978206499606L8.4,131.56091083124204L9.24,131.84688132213404L10.08,132.1277926448239L10.92,132.40374174347886L11.76,132.6748234550845L12.6,132.9411305635272L13.44,133.202753852019L14.28,133.45978215392392L15.12,133.71230240204324L15.959999999999999,133.96039967641445L16.8,134.20415725067645L17.64,134.44365663705167L18.48,134.67897762999348L19.32,134.91019834854507L20.16,135.13739527745525L21,135.36064330709308L21.84,135.58001577220318L22.68,135.79558448954134L23.52,136.0074197944278L24.36,136.21559057625558L25.2,136.4201643129884L26.04,136.62120710468207L26.88,136.81878370606216L27.72,137.012957558189L28.56,137.2037908192397L29.4,137.39134439443677L30.24,137.57567796515093L31.08,137.75685001720436L31.919999999999998,137.93491786840144L32.76,138.10993769531026L33.6,138.28196455932022L34.44,138.45105243199788L35.28,138.61725421976354L36.12,138.7806217879102L36.96,138.941205983985L37.8,139.09905666055346L38.64,139.25422269736566L39.48,139.40675202294221L40.32,139.55669163559912L41.16,139.70408762392708L42,139.84898518674356L42.839999999999996,139.99142865253202L43.68,140.13146149838488L44.519999999999996,140.2691263684648L45.36,140.40446509199833L46.199999999999996,140.5375187008164L47.04,140.66832744645467L47.879999999999995,140.79693081682657L48.72,140.92336755248243L49.559999999999995,141.04767566246556L50.4,141.16989243977778L51.239999999999995,141.29005447646568L52.08,141.40819767833818L52.919999999999995,141.52435727932618L53.76,141.63856785549433L54.6,141.75086333871528L55.44,141.86127703001506L56.28,141.96984161259996L57.12,142.07658916457277L57.96,142.18155117134768L58.8,142.28475853777223L59.64,142.3862415999639L60.48,142.48603013686983L61.32,142.58415338155652L62.16,142.68064003223765L63,142.77551826304662L63.839999999999996,142.86881573456088L64.67999999999999,142.9605596040846L65.52,143.05077653569634L66.36,143.13949271006777L67.2,143.22673383405993L68.03999999999999,143.31252515010226L68.88,143.39689144536084L69.72,143.47985706070057L70.56,143.56144589944773L71.39999999999999,143.64168143595685L72.24,143.7205867239879L73.08,143.7981844048985L73.92,143.87449671565554L74.75999999999999,143.94954549667108L75.6,144.02335219946713L76.44,144.0959378941734L77.28,144.16732327686225L78.11999999999999,144.23752867672533L78.96,144.306574063095L79.8,144.37447905231562L80.64,144.44126291446707L81.48,144.50694457994547L82.32,144.57154264590372L83.16,144.6350753825554L84,144.69756073934593L84.84,144.75901635099342L85.67999999999999,144.8194595434032L86.52,144.8789073394583L87.36,144.9373764646893L88.2,144.9948833528265L89.03999999999999,145.05144415123704L89.88,145.10707472624944L90.72,145.1617906683689L91.56,145.21560729738547L92.39999999999999,145.2685396673774L93.24,145.32060257161274L94.08,145.37181054735112L94.92,145.42217788054808L95.75999999999999,145.47171861046445L96.6,145.52044653418238L97.44,145.5683752110311L98.28,145.6155179669235L99.11999999999999,145.66188789860627L99.96,145.707497877825L100.8,145.75236055540688L101.64,145.79648836526212L102.47999999999999,145.83989352830622L103.32,145.88258805630505L104.16,145.92458375564422L105,145.96589223102433L105.83999999999999,146.0065248890842L106.67999999999999,146.04649294195312L107.52,146.08580741073396L108.36,146.12447912891878L109.2,146.16251874573803L110.03999999999999,146.19993672944526L110.88,146.23674337053825L111.72,146.27294878491838L112.56,146.3085629169893L113.39999999999999,146.3435955426962L114.24,146.3780562725071L115.08,146.41195455433734L115.92,146.44529967641853L116.75999999999999,146.4781007701127L117.6,146.51036681267377L118.44,146.54210662995638L119.28,146.57332889907383L120.11999999999999,146.6040421510061L120.96,146.63425477315883L121.8,146.6639750118743L122.64,146.69321097489583L123.47999999999999,146.72197063378565L124.32,146.75026182629833L125.16,146.7780922587097L126,146.80546950810293L126.83999999999999,146.83240102461193L127.67999999999999,146.85889413362366L128.51999999999998,146.8849560379398L129.35999999999999,146.9105938198982L130.2,146.93581444345617L131.04,146.96062475623478L131.88,146.9850314915264L132.72,147.00904127026493L133.56,147.03266060296085L134.4,147.0558958916003L135.24,147.07875343151028L136.07999999999998,147.1012394131896L136.92,147.12335992410684L137.76,147.1451209504658L138.6,147.16652837893906L139.44,147.18758799837036L140.28,147.2083055014463L141.12,147.2286864863378L141.96,147.24873645831275L142.79999999999998,147.26846083131892L143.64,147.28786492953947L144.48,147.30695398891976L145.32,147.32573315866773L146.16,147.34420750272727L147,147.36238200122523L147.84,147.3802615518929L148.68,147.3978509714625L149.51999999999998,147.41515499703848L150.35999999999999,147.43217828744514L151.2,147.44892542454988L152.04,147.4654009145636L152.88,147.48160918931794L153.72,147.49755460752021L154.56,147.51324145598613L155.4,147.52867395085102L156.23999999999998,147.5438562387599L157.07999999999998,147.55879239803653L157.92,147.5734864398322L158.76,147.5879423092544L159.6,147.60216388647584L160.44,147.61615498782407L161.28,147.62991936685242L162.12,147.64346071539188L162.96,147.65678266458514L163.79999999999998,147.66988878590257L164.64,147.68278259214048L165.48,147.6954675384023L166.32,147.70794702306273L167.16,147.72022438871514L168,147.73230292310288L168.84,147.74418586003424L169.68,147.75587638028202L170.51999999999998,147.76737761246727L171.35999999999999,147.77869263392807L172.2,147.78982447157347L173.04,147.80077610272244L173.88,147.81155045592897L174.72,147.82215041179245L175.56,147.8325788037549L176.4,147.84283841888376L177.23999999999998,147.85293199864213L178.07999999999998,147.86286223964527L178.92,147.8726317944045L179.76,147.88224327205853L180.6,147.8916992390919L181.44,147.90100222004187L182.28,147.91015469819263L183.12,147.91915911625821L183.95999999999998,147.92801787705366L184.79999999999998,147.93673334415487L185.64,147.94530784254704L186.48,147.9537436592625L187.32,147.96204304400754L188.16,147.97020820977878L189,147.97824133346882L189.84,147.98614455646225L190.68,147.993919985221L191.51999999999998,148.00156969186025L192.35999999999999,148.00909571471448L193.2,148.01650005889394L194.04,148.02378469683202L194.88,148.03095156882304L195.72,148.03800258355142L196.56,148.04493961861158L197.4,148.0517645210195L198.23999999999998,148.0584791077154L199.07999999999998,148.06508516605822L199.92,148.07158445431162L200.76,148.077978702122L201.6,148.08426961098854L202.44,148.09045885472523L203.28,148.0965480799154L204.12,148.10253890635846L204.95999999999998,148.10843292750923L205.79999999999998,148.11423171091025L206.64,148.11993679861627L207.48,148.12554970761227L208.32,148.1310719302242L209.16,148.13650493452297L210,148.14185016472163L210.84,148.1471090415663L211.67999999999998,148.15228296271994L212.51999999999998,148.1573733031405L213.35999999999999,148.16238141545216L214.2,148.16730863031094L215.04,148.17215625676374L215.88,148.17692558260188L216.72,148.1816178747085L217.56,148.18623437940025L218.4,148.1907763227634L219.23999999999998,148.1952449109844L220.07999999999998,148.1996413306748L220.92,148.203966749191L221.76,148.20822231494873L222.6,148.21240915773194L223.44,148.21652838899712L224.28,148.22058110217233L225.12,148.22456837295135L225.95999999999998,148.22849125958282L226.79999999999998,148.23235080315476L227.64,148.2361480278746L228.48,148.23988394134403L229.32,148.24355953483004L230.16,148.24717578353076L231,148.2507336468376L231.84,148.25423406859255L232.67999999999998,148.25767797734156L233.51999999999998,148.26106628658363L234.35999999999999,148.2643998950158L235.2,148.26767968677416L236.04,148.2709065316709L236.88,148.27408128542748L237.72,148.2772047899038L238.56,148.28027787332383L239.39999999999998,148.28330135049748L240.23999999999998,148.28627602303874L241.07999999999998,148.28920267958034L241.92,148.29208209598477L242.76,148.2949150355521L243.6,148.2977022492239L244.44,148.30044447578456L245.28,148.30314244205846L246.12,148.3057968631046L246.95999999999998,148.30840844240777L247.79999999999998,148.31097787206636L248.64,148.31350583297768L249.48,148.3159929950196L250.32,148.31844001722968L251.16,148.32084754798123"></path></g><g transform="translate(1,20)"><text class="small" x="0" y="208">0</text><text class="small" x="0" y="136.66666666666669">0.5</text><text class="small" x="0" y="65.33333333333334">1</text><text class="small" x="0" y="-6">1.5</text></g></svg>