<svg width="253" height="253"><g transform="translate(1,20)"><line x1="0" y1="213" x2="251" y2="213" stroke-width="1" stroke="#DDDDDD"></line><line x1="0" y1="142" x2="251" y2="142" stroke-width="1" stroke="#DDDDDD"></line><line x1="0" y1="71" x2="251" y2="71" stroke-width="1" stroke="#DDDDDD"></line><line x1="0" y1="0" x2="251" y2="0" stroke-width="1" stroke="#DDDDDD"></line><line x1="0" y1="213" x2="251" y2="213" stroke-width="1" stroke="#777777"></line><text class="small timeline" x="0" y="228" text-anchor="start">0</text><line class="timeline" x1="0" y1="210" x2="0" y2="216" stroke-width="1" stroke="#777777"></line><line class="timeline" x1="8.366666666666722" y1="211" x2="8.366666666666722" y2="215" stroke-width="1" stroke="#777777"></line><line class="timeline" x1="16.733333333333444" y1="211" x2="16.733333333333444" y2="215" stroke-width="1" stroke="#777777"></line><line class="timeline" x1="25.100000000000172" y1="211" x2="25.100000000000172" y2="215" stroke-width="1" stroke="#777777"></line><line class="timeline" x1="33.46666666666689" y1="211" x2="33.46666666666689" y2="215" stroke-width="1" stroke="#777777"></line><line class="timeline" x1="41.83333333333361" y1="211" x2="41.83333333333361" y2="215" stroke-width="1" stroke="#777777"></line><line class="timeline" x1="50.20000000000034" y1="211" x2="50.20000000000034" y2="215" stroke-width="1" stroke="#777777"></line><line class="timeline" x1="58.566666666667054" y1="211" x2="58.566666666667054" y2="215" stroke-width="1" stroke="#777777"></line><line class="timeline" x1="66.93333333333378" y1="211" x2="66.93333333333378" y2="215" stroke-width="1" stroke="#777777"></line><line class="timeline" x1="75.3000000000005" y1="211" x2="75.3000000000005" y2="215" stroke-width="1" stroke="#777777"></line><text class="small timeline" x="84" y="228" text-anchor="start">1</text><line class="timeline" x1="83.66666666666721" y1="210" x2="83.66666666666721" y2="216" stroke-width="1" stroke="#777777"></line><line class="timeline" x1="92.03333333333394" y1="211" x2="92.03333333333394" y2="215" stroke-width="1" stroke="#777777"></line><line class="timeline" x1="100.40000000000067" y1="211" x2="100.40000000000067" y2="215" stroke-width="1" stroke="#777777"></line><line class="timeline" x1="108.76666666666739" y1="211" x2="108.76666666666739" y2="215" stroke-width="1" stroke="#777777"></line><line class="timeline" x1="117.13333333333412" y1="211" x2="117.13333333333412" y2="215" stroke-width="1" stroke="#777777"></line><line class="timeline" x1="125.50000000000085" y1="211" x2="125.50000000000085" y2="215" stroke-width="1" stroke="#777777"></line><line class="timeline" x1="133.86666666666758" y1="211" x2="133.86666666666758" y2="215" stroke-width="1" stroke="#777777"></line><line class="timeline" x1="142.23333333333431" y1="211" x2="142.23333333333431" y2="215" stroke-width="1" stroke="#777777"></line><line class="timeline" x1="150.60000000000105" y1="211" x2="150.60000000000105" y2="215" stroke-width="1" stroke="#777777"></line><line class="timeline" x1="158.96666666666778" y1="211" x2="158.96666666666778" y2="215" stroke-width="1" stroke="#777777"></line><text class="small timeline" x="167" y="228" text-anchor="start">2</text><line class="timeline" x1="167.33333333333448" y1="210" x2="167.33333333333448" y2="216" stroke-width="1" stroke="#777777"></line><line class="timeline" x1="175.7000000000012" y1="211" x2="175.7000000000012" y2="215" stroke-width="1" stroke="#777777"></line><line class="timeline" x1="184.06666666666794" y1="211" x2="184.06666666666794" y2="215" stroke-width="1" stroke="#777777"></line><line class="timeline" x1="192.43333333333467" y1="211" x2="192.43333333333467" y2="215" stroke-width="1" stroke="#777777"></line><line class="timeline" x1="200.8000000000014" y1="211" x2="200.8000000000014" y2="215" stroke-width="1" stroke="#777777"></line><line class="timeline" x1="209.16666666666814" y1="211" x2="209.16666666666814" y2="215" stroke-width="1" stroke="#777777"></line><line class="timeline" x1="217.53333333333487" y1="211" x2="217.53333333333487" y2="215" stroke-width="1" stroke="#777777"></line><line class="timeline" x1="225.9000000000016" y1="211" x2="225.9000000000016" y2="215" stroke-width="1" stroke="#777777"></line><line class="timeline" x1="234.26666666666833" y1="211" x2="234.26666666666833" y2="215" stroke-width="1" stroke="#777777"></line><line class="timeline" x1="242.63333333333506" y1="211" x2="242.63333333333506" y2="215" stroke-width="1" stroke="#777777"></line><text class="small timeline" x="251" y="228" text-anchor="end">3</text><line class="timeline" x1="251.0000000000018" y1="210" x2="251.0000000000018" y2="216" stroke-width="1" stroke="#777777"></line></g><g transform="translate(1,20)"><path fill="transparent" stroke="#ed4f80" stroke-width="4" d="M0,42.60000000000002L0.8338870431893688,42.713600000000014L1.6677740863787376,42.82515701759999L2.5016611295681064,42.93471133152016L3.335548172757475,43.04230230666204L4.169435215946844,43.14796841885061L5.003322259136213,43.251747278774445L5.837209302325581,43.35367565515301L6.67109634551495,43.45378949716212L7.50498338870432,43.55212395614356L8.338870431893689,43.64871340662705L9.172757475083056,43.74359146668931L10.006644518272426,43.83679101767521L10.840531561461795,43.928344223303725L11.674418604651162,44.01828254818224L12.508305647840531,44.10663677574968L13.3421926910299,44.19343702566982L14.17607973421927,44.2787127706944L15.00996677740864,44.36249285301437L15.843853820598007,44.444805500118804L16.677740863787378,44.525678340177706L17.511627906976745,44.60513841696576L18.345514950166113,44.68321220434362L19.179401993355484,44.75992562031166L20.01328903654485,44.83530404065107L20.84717607973422,44.9093723121664L21.68106312292359,44.98215476554404L22.514950166112957,45.053675227838454L23.348837209302324,45.12395703459987L24.182724252491695,45.1930230416549L25.016611295681063,45.26089563655222L25.850498338870434,45.32759674968423L26.6843853820598,45.393147865095386L27.51827242524917,45.45757003098794L28.35215946843854,45.520883869934636L29.186046511627907,45.58310958880844L30.01993355481728,45.64426698843792L30.853820598006646,45.7043754729977L31.687707641196013,45.76345405914253L32.521594684385384,45.82152138489266L33.355481727574755,45.87859571827914L34.18936877076412,45.93469496575631L35.02325581395349,45.989836680388834L35.85714285714286,46.04403806982069L36.691029900332225,46.09731600403239L37.524916943521596,46.14968702289394L38.35880398671097,46.201167343518534L39.19269102990033,46.25177286742479L40.0265780730897,46.30151918751187L40.86046511627907,46.35042159485431L41.69435215946844,46.39849508532146L42.52823920265781,46.44575436602696L43.36212624584718,46.49221386161369L44.19601328903654,46.53788772037851L45.029900332225914,46.58278982024245L45.863787375415285,46.62693377456995L46.69767441860465,46.67033293784243L47.53156146179402,46.71300041119014L48.36544850498339,46.754949047786226L49.19933554817276,46.79619145810773L50.033222591362126,46.83674001506648L50.8671096345515,46.876606859014345L51.70099667774087,46.91580390262624L52.53488372093023,46.954342835664306L53.3687707641196,46.992235129626636L54.202657807308974,47.02949204228406L55.03654485049834,47.06612462210779L55.87043189368771,47.102143712591584L56.70431893687708,47.1375599564704L57.538205980066444,47.17238379983965L58.372093023255815,47.20662549617677L59.205980066445186,47.24029511026842L60.03986710963456,47.273402522045615L60.87375415282392,47.3059574303295L61.70764119601329,47.33796935649005L62.54152823920266,47.369447648020156L63.37541528239203,47.400401482027235L64.20930232558139,47.43083986864491L65.04318936877077,47.46077165436654L65.87707641196013,47.490205525302855L66.71096345514951,47.51915001036568L67.54485049833887,47.547613484379724L68.37873754152824,47.57560417112441L69.21262458471762,47.603130146307194L70.04651162790698,47.630199340470995L70.88039867109634,47.65681954183614L71.71428571428572,47.682998399080105L72.54817275747509,47.708743424055115L73.38205980066445,47.73406199444645L74.21594684385383,47.7589613563722L75.04983388704319,47.783448626926L75.88372093023256,47.80753079666499L76.71760797342193,47.831214732043065L77.5514950166113,47.854507177792044L78.38538205980066,47.87741475925114L79.21926910299004,47.89994398464677L80.0531561461794,47.922101247323184L80.88704318936877,47.94389282792582L81.72093023255815,47.965324896538135L82.55481727574751,47.98640351477306L83.38870431893687,48.0071346378204L84.22259136212625,48.027524116451076L85.05647840531562,48.04757769897955L85.89036544850498,48.06730103318475L86.72425249169436,48.0866996681913L87.55813953488372,48.105779056311604L88.39202657807309,48.12454455484965L89.22591362126246,48.1430014278678L90.05980066445183,48.16115484791678L90.89368770764119,48.17900989773065L91.72757475083057,48.19657157188689L92.56146179401993,48.21384477843225L93.3953488372093,48.23083434047632L94.22923588039868,48.24754499775193L95.06312292358804,48.26398140814473L95.89700996677742,48.28014814919132L96.73089700996678,48.29604971954768L97.56478405315615,48.31169054042786L98.39867109634552,48.32707495701419L99.23255813953489,48.34220723983913L100.06644518272425,48.35709158613969L100.90033222591363,48.37173212118512L101.734219269103,48.38613289957823L102.56810631229236,48.40029790653114L103.40199335548174,48.41423105911565L104.2358803986711,48.42793620748941L105.06976744186046,48.44141713609807L105.90365448504984,48.454677564853654L106.7375415282392,48.46772115029029L107.57142857142857,48.48055148669738L108.40531561461795,48.49317210723089L109.23920265780731,48.50558648500291L110.07308970099668,48.51779803415056L110.90697674418605,48.52981011088417L111.74086378737542,48.5416260145152L112.57475083056478,48.553248988464645L113.40863787375416,48.56468222125238L114.24252491694352,48.57592884746708L115.07641196013289,48.58699194871832L115.91029900332227,48.5978745545701L116.74418604651163,48.608579643457205L117.578073089701,48.6191101435837L118.41196013289037,48.6294689338049L119.24584717607974,48.639658844492715L120.07973421926911,48.649682658384506L120.91362126245848,48.65954311141627L121.74750830564784,48.66924289354023L122.58139534883722,48.67878464952702L123.41528239202658,48.68817097975318L124.24916943521595,48.6974044409738L125.08305647840533,48.70648754708091L125.91694352159469,48.71542276984792L126.75083056478405,48.724212539660215L127.58471760797343,48.73285924623238L128.41860465116278,48.741365239312074L129.25249169435216,48.749732829371L130.08637873754154,48.757964288283546L130.9202657807309,48.76606184999244L131.75415282392026,48.77402771116269L132.58803986710964,48.78186403182346L133.42192691029902,48.78957293599825L134.25581395348837,48.79715651232351L135.08970099667775,48.804616814656356L135.92358803986713,48.81195586267097L136.75747508305648,48.819175642444264L137.59136212624585,48.826278107031186L138.42524916943523,48.8332651770294L139.25913621262458,48.84013874113404L140.09302325581396,48.84690065668215L140.92691029900334,48.853552750187845L141.7607973421927,48.860096817867486L142.59468438538207,48.866534626155584L143.42857142857144,48.87286791221166L144.2624584717608,48.87909838441777L145.09634551495017,48.885227722867455L145.93023255813955,48.89125757984576L146.7641196013289,48.8971895803009L147.59800664451828,48.903025322307656L148.43189368770766,48.90876637752214L149.265780730897,48.91441429162899L150.09966777408638,48.91997058478057L150.93355481727576,48.925436752028105L151.7674418604651,48.930814263745674L152.6013289036545,48.936104566046396L153.43521594684387,48.94130908119166L154.26910299003322,48.94642920799262L155.1029900332226,48.95146632220539L155.93687707641197,48.95642177691863L156.77076411960132,48.961296902934976L157.6046511627907,48.96609300914517L158.43853820598008,48.97081138289619L159.27242524916943,48.975453290352846L160.1063122923588,48.9800199768529L160.9401993355482,48.98451266725618L161.77408637873754,48.98893256628756L162.6079734219269,48.993280858874215L163.4418604651163,48.99755871047648L164.27574750830564,49.00176726741384L165.10963455149502,49.005907657184366L165.9435215946844,49.00998098877932L166.77740863787375,49.01398835299207L167.61129568106313,49.01793082272164L168.4451827242525,49.021809453271146L169.27906976744185,49.025625282641016L170.11295681063123,49.02937933181727L170.9468438538206,49.03307260505477L171.78073089700996,49.036706090155576L172.61461794019934,49.040280758742796L173.44850498338872,49.04379756652929L174.28239202657807,49.04725745358223L175.11627906976744,49.05066134458295L175.95016611295682,49.05401014908222L176.78405315614617,49.05730476175148L177.61794019933555,49.060546062629555L178.45182724252493,49.06373491736525L179.28571428571428,49.066872177455764L180.11960132890366,49.06995868048122L180.95348837209303,49.07299525033497L181.78737541528238,49.0759826974502L182.62126245847176,49.0789218190225L183.45514950166114,49.08181339922896L184.2890365448505,49.084658209443205L185.12292358803987,49.087457008446904L185.95681063122925,49.09021054263803L186.7906976744186,49.09291954623501L187.62458471760797,49.09558474147798L188.45847176079735,49.09820683882626L189.29235880398673,49.10078653715277L190.12624584717608,49.10332452393496L190.96013289036546,49.10582147544264L191.79401993355484,49.10827805692276L192.62790697674419,49.11069492278071L193.46179401993356,49.113072716759035L194.29568106312294,49.11541207211283L195.1295681063123,49.11771361178231L195.96345514950167,49.11997794856251L196.79734219269105,49.12220568527002L197.6312292358804,49.12439741490715L198.46511627906978,49.12655372082298L199.29900332225915,49.128675176872235L200.1328903654485,49.13076234757091L200.96677740863788,49.1328157882499L201.80066445182726,49.13483604520553L202.6345514950166,49.13682365584782L203.468438538206,49.13877914884648L204.30232558139537,49.14070304427392L205.13621262458472,49.14259585374646L205.9700996677741,49.144458080562885L206.80398671096347,49.146290219840694L207.63787375415282,49.14809275865008L208.4717607973422,49.14986617614588L209.30564784053158,49.151610943697136L210.13953488372093,49.153327525014504L210.9734219269103,49.15501637627551L211.80730897009968,49.156677946248095L212.64119601328903,49.158312676411526L213.4750830564784,49.15992100107576L214.3089700996678,49.161503347498694L215.14285714285714,49.16306013600135L215.97674418604652,49.16459178008134L216.8106312292359,49.166098686524265L217.64451827242524,49.16758125551348L218.47840531561462,49.16903988073784L219.312292358804,49.1704749494979L220.14617940199335,49.17188684281004L220.98006644518273,49.17327593550914L221.8139534883721,49.17464259634946L222.64784053156146,49.175987188103846L223.48172757475083,49.17731006766135L224.3156146179402,49.178611586123196L225.14950166112956,49.17989208889705L225.98338870431894,49.18115191579008L226.81727574750832,49.18239140110006L227.65116279069767,49.18361087370522L228.48504983388705,49.18481065715267L229.31893687707642,49.18599106974514L230.15282392026577,49.18715242462645L230.98671096345515,49.1882950298656L231.82059800664453,49.189419188539375L232.65448504983388,49.19052519881362L233.48837209302326,49.19161335402316L234.32225913621264,49.19268394275059L235.156146179402,49.19373724890346L235.99003322259136,49.19477355179043L236.82392026578074,49.19579312619615L237.6578073089701,49.19679624245475L238.49169435215947,49.19778316652216L239.32558139534885,49.198754160047656L240.15946843853823,49.199709480443545L240.99335548172758,49.20064938095419L241.82724252491695,49.20157411072381L242.66112956810633,49.20248391486308L243.49501661129568,49.20337903451471L244.32890365448506,49.20425970691787L245.16279069767444,49.20512616547174L245.9966777408638,49.205978639797735L246.83056478405317,49.206817355801036L247.66445182724254,49.20764253573083L248.4983388704319,49.20845439823978L249.33222591362127,49.20925315844241L250.16611295681065,49.21003902797244"></path><path fill="transparent" stroke="#40a1dd" stroke-width="4" d="M0,99.4L0.8338870431893688,99.28639999999999L1.6677740863787376,99.17484298239998L2.5016611295681064,99.06528866847981L3.335548172757475,98.95769769333796L4.169435215946844,98.85203158114936L5.003322259136213,98.74825272122558L5.837209302325581,98.64632434484696L6.67109634551495,98.54621050283787L7.50498338870432,98.44787604385644L8.338870431893689,98.35128659337298L9.172757475083056,98.25640853331068L10.006644518272426,98.16320898232479L10.840531561461795,98.07165577669625L11.674418604651162,97.98171745181774L12.508305647840531,97.89336322425032L13.3421926910299,97.80656297433013L14.17607973421927,97.72128722930563L15.00996677740864,97.63750714698566L15.843853820598007,97.5551944998812L16.677740863787378,97.47432165982231L17.511627906976745,97.39486158303426L18.345514950166113,97.31678779565638L19.179401993355484,97.24007437968832L20.01328903654485,97.16469595934896L20.84717607973422,97.09062768783363L21.68106312292359,97.01784523445598L22.514950166112957,96.94632477216153L23.348837209302324,96.87604296540012L24.182724252491695,96.80697695834509L25.016611295681063,96.73910436344777L25.850498338870434,96.67240325031577L26.6843853820598,96.6068521349046L27.51827242524917,96.54242996901205L28.35215946843854,96.47911613006532L29.186046511627907,96.41689041119152L30.01993355481728,96.3557330115621L30.853820598006646,96.2956245270023L31.687707641196013,96.23654594085748L32.521594684385384,96.17847861510735L33.355481727574755,96.12140428172086L34.18936877076412,96.0653050342437L35.02325581395349,96.01016331961115L35.85714285714286,95.95596193017934L36.691029900332225,95.9026839959676L37.524916943521596,95.8503129771061L38.35880398671097,95.79883265648151L39.19269102990033,95.74822713257527L40.0265780730897,95.69848081248817L40.86046511627907,95.6495784051457L41.69435215946844,95.60150491467856L42.52823920265781,95.55424563397303L43.36212624584718,95.50778613838634L44.19601328903654,95.46211227962152L45.029900332225914,95.41721017975759L45.863787375415285,95.37306622543007L46.69767441860465,95.32966706215757L47.53156146179402,95.28699958880989L48.36544850498339,95.24505095221379L49.19933554817276,95.20380854189229L50.033222591362126,95.16325998493357L50.8671096345515,95.12339314098573L51.70099667774087,95.0841960973738L52.53488372093023,95.04565716433574L53.3687707641196,95.00776487037339L54.202657807308974,94.97050795771597L55.03654485049834,94.9338753778922L55.87043189368771,94.89785628740842L56.70431893687708,94.86244004352962L57.538205980066444,94.82761620016036L58.372093023255815,94.79337450382324L59.205980066445186,94.7597048897316L60.03986710963456,94.7265974779544L60.87375415282392,94.6940425696705L61.70764119601329,94.66203064350996L62.54152823920266,94.63055235197986L63.37541528239203,94.59959851797278L64.20930232558139,94.56916013135512L65.04318936877077,94.53922834563348L65.87707641196013,94.50979447469715L66.71096345514951,94.48084998963432L67.54485049833887,94.45238651562028L68.37873754152824,94.42439582887563L69.21262458471762,94.39686985369282L70.04651162790698,94.36980065952903L70.88039867109634,94.34318045816387L71.71428571428572,94.3170016009199L72.54817275747509,94.29125657594489L73.38205980066445,94.26593800555354L74.21594684385383,94.24103864362783L75.04983388704319,94.216551373074L75.88372093023256,94.19246920333501L76.71760797342193,94.16878526795692L77.5514950166113,94.14549282220794L78.38538205980066,94.12258524074885L79.21926910299004,94.1000560153532L80.0531561461794,94.07789875267682L80.88704318936877,94.05610717207414L81.72093023255815,94.03467510346182L82.55481727574751,94.01359648522694L83.38870431893687,93.9928653621796L84.22259136212625,93.9724758835489L85.05647840531562,93.95242230102042L85.89036544850498,93.93269896681521L86.72425249169436,93.91330033180868L87.55813953488372,93.89422094368837L88.39202657807309,93.87545544515032L89.22591362126246,93.85699857213218L90.05980066445183,93.8388451520832L90.89368770764119,93.82099010226928L91.72757475083057,93.8034284281131L92.56146179401993,93.78615522156772L93.3953488372093,93.76916565952365L94.22923588039868,93.75245500224803L95.06312292358804,93.73601859185523L95.89700996677742,93.71985185080862L96.73089700996678,93.70395028045226L97.56478405315615,93.68830945957207L98.39867109634552,93.67292504298575L99.23255813953489,93.65779276016085L100.06644518272425,93.64290841386031L100.90033222591363,93.62826787881488L101.734219269103,93.61386710042176L102.56810631229236,93.59970209346888L103.40199335548174,93.58576894088439L104.2358803986711,93.5720637925106L105.06976744186046,93.55858286390196L105.90365448504984,93.5453224351464L106.7375415282392,93.53227884970977L107.57142857142857,93.51944851330265L108.40531561461795,93.50682789276915L109.23920265780731,93.49441351499713L110.07308970099668,93.48220196584947L110.90697674418605,93.47018988911584L111.74086378737542,93.45837398548484L112.57475083056478,93.44675101153537L113.40863787375416,93.43531777874763L114.24252491694352,93.4240711525329L115.07641196013289,93.41300805128168L115.91029900332227,93.40212544542986L116.74418604651163,93.39142035654278L117.578073089701,93.3808898564163L118.41196013289037,93.37053106619511L119.24584717607974,93.36034115550729L120.07973421926911,93.3503173416155L120.91362126245848,93.34045688858373L121.74750830564784,93.33075710645977L122.58139534883722,93.32121535047297L123.41528239202658,93.31182902024679L124.24916943521595,93.30259555902619L125.08305647840533,93.29351245291912L125.91694352159469,93.28457723015211L126.75083056478405,93.27578746033977L127.58471760797343,93.26714075376762L128.41860465116278,93.25863476068795L129.25249169435216,93.25026717062902L130.08637873754154,93.24203571171647L130.9202657807309,93.23393815000759L131.75415282392026,93.22597228883731L132.58803986710964,93.21813596817653L133.42192691029902,93.21042706400175L134.25581395348837,93.20284348767646L135.08970099667775,93.19538318534362L135.92358803986713,93.18804413732902L136.75747508305648,93.18082435755572L137.59136212624585,93.1737218929688L138.42524916943523,93.16673482297055L139.25913621262458,93.15986125886593L140.09302325581396,93.1530993433178L140.92691029900334,93.14644724981211L141.7607973421927,93.13990318213249L142.59468438538207,93.13346537384439L143.42857142857144,93.12713208778831L144.2624584717608,93.1209016155822L145.09634551495017,93.11477227713253L145.93023255813955,93.10874242015424L146.7641196013289,93.10281041969908L147.59800664451828,93.09697467769234L148.43189368770766,93.09123362247789L149.265780730897,93.08558570837101L150.09966777408638,93.08002941521944L150.93355481727576,93.07456324797191L151.7674418604651,93.06918573625433L152.6013289036545,93.06389543395358L153.43521594684387,93.05869091880834L154.26910299003322,93.05357079200739L155.1029900332226,93.04853367779462L155.93687707641197,93.04357822308135L156.77076411960132,93.03870309706502L157.6046511627907,93.03390699085485L158.43853820598008,93.02918861710383L159.27242524916943,93.02454670964718L160.1063122923588,93.01998002314713L160.9401993355482,93.01548733274383L161.77408637873754,93.01106743371244L162.6079734219269,93.00671914112583L163.4418604651163,93.00244128952352L164.27574750830564,92.99823273258617L165.10963455149502,92.99409234281566L165.9435215946844,92.9900190112207L166.77740863787375,92.98601164700796L167.61129568106313,92.98206917727839L168.4451827242525,92.97819054672891L169.27906976744185,92.97437471735905L170.11295681063123,92.97062066818279L170.9468438538206,92.9669273949453L171.78073089700996,92.96329390984447L172.61461794019934,92.95971924125725L173.44850498338872,92.95620243347076L174.28239202657807,92.95274254641781L175.11627906976744,92.9493386554171L175.95016611295682,92.94598985091784L176.78405315614617,92.94269523824858L177.61794019933555,92.9394539373705L178.45182724252493,92.93626508263483L179.28571428571428,92.93312782254431L180.11960132890366,92.93004131951885L180.95348837209303,92.92700474966509L181.78737541528238,92.92401730254987L182.62126245847176,92.92107818097755L183.45514950166114,92.91818660077108L184.2890365448505,92.91534179055687L185.12292358803987,92.91254299155312L185.95681063122925,92.90978945736201L186.7906976744186,92.90708045376502L187.62458471760797,92.90441525852206L188.45847176079735,92.90179316117376L189.29235880398673,92.89921346284726L190.12624584717608,92.89667547606507L190.96013289036546,92.89417852455738L191.79401993355484,92.89172194307727L192.62790697674419,92.88930507721932L193.46179401993356,92.88692728324098L194.29568106312294,92.88458792788718L195.1295681063123,92.88228638821768L195.96345514950167,92.88002205143748L196.79734219269105,92.87779431472995L197.6312292358804,92.87560258509284L198.46511627906978,92.87344627917697L199.29900332225915,92.87132482312772L200.1328903654485,92.86923765242902L200.96677740863788,92.86718421175003L201.80066445182726,92.86516395479441L202.6345514950166,92.8631763441521L203.468438538206,92.86122085115346L204.30232558139537,92.85929695572604L205.13621262458472,92.85740414625347L205.9700996677741,92.85554191943703L206.80398671096347,92.85370978015925L207.63787375415282,92.85190724134985L208.4717607973422,92.85013382385401L209.30564784053158,92.84838905630275L210.13953488372093,92.84667247498543L210.9734219269103,92.84498362372439L211.80730897009968,92.84332205375183L212.64119601328903,92.8416873235884L213.4750830564784,92.84007899892416L214.3089700996678,92.8384966525012L215.14285714285714,92.83693986399857L215.97674418604652,92.83540821991858L216.8106312292359,92.83390131347565L217.64451827242524,92.83241874448645L218.47840531561462,92.83096011926207L219.312292358804,92.82952505050201L220.14617940199335,92.82811315718989L220.98006644518273,92.82672406449079L221.8139534883721,92.82535740365047L222.64784053156146,92.82401281189607L223.48172757475083,92.82268993233853L224.3156146179402,92.82138841387672L225.14950166112956,92.82010791110282L225.98338870431894,92.8188480842098L226.81727574750832,92.81760859889987L227.65116279069767,92.81638912629471L228.48504983388705,92.81518934284728L229.31893687707642,92.81400893025483L230.15282392026577,92.81284757537351L230.98671096345515,92.81170497013436L231.82059800664453,92.8105808114606L232.65448504983388,92.80947480118637L233.48837209302326,92.80838664597681L234.32225913621264,92.8073160572494L235.156146179402,92.80626275109651L235.99003322259136,92.80522644820951L236.82392026578074,92.80420687380378L237.6578073089701,92.80320375754523L238.49169435215947,92.8022168334778L239.32558139534885,92.80124583995232L240.15946843853823,92.80029051955646L240.99335548172758,92.79935061904581L241.82724252491695,92.79842588927619L242.66112956810633,92.7975160851369L243.49501661129568,92.79662096548529L244.32890365448506,92.79574029308212L245.16279069767444,92.79487383452829L245.9966777408638,92.7940213602023L246.83056478405317,92.79318264419899L247.66445182724254,92.79235746426919L248.4983388704319,92.79154560176025L249.33222591362127,92.79074684155762L250.16611295681065,92.78996097202757"></path><path fill="transparent" stroke="#444444" stroke-width="4" d="M0,156.20000000000002L0.8366666666666667,156.4272L1.6733333333333333,156.65031403519998L2.51,156.86942266304035L3.3466666666666667,157.08460461332407L4.183333333333334,157.29593683770125L5.02,157.50349455754886L5.8566666666666665,157.70735131030602L6.693333333333333,157.90757899432424L7.53,158.10424791228712L8.366666666666667,158.29742681325405L9.203333333333333,158.48718293337868L10.04,158.67358203535042L10.876666666666667,158.85668844660748L11.713333333333333,159.03656509636448L12.55,159.21327355149933L13.386666666666667,159.3868740513397L14.223333333333333,159.55742554138877L15.06,159.7249857060287L15.896666666666667,159.8896110002376L16.733333333333334,160.05135668035538L17.57,160.21027683393146L18.406666666666666,160.36642440868724L19.243333333333332,160.51985124062335L20.08,160.67060808130208L20.916666666666668,160.81874462433277L21.753333333333334,160.96430953108808L22.59,161.10735045567694L23.426666666666666,161.24791406919974L24.263333333333332,161.3860460833098L25.1,161.52179127310447L25.936666666666667,161.65519349936847L26.773333333333333,161.78629573019077L27.61,161.91514006197588L28.446666666666665,162.04176773986933L29.283333333333335,162.16621917761694L30.12,162.28853397687584L30.956666666666667,162.4087509459954L31.793333333333333,162.52690811828506L32.63,162.64304276978532L33.46666666666667,162.7571914365583L34.303333333333335,162.86938993151261L35.14,162.97967336077767L35.97666666666667,163.08807613964134L36.81333333333333,163.19463200806481L37.65,163.29937404578783L38.486666666666665,163.40233468703704L39.32333333333333,163.50354573484952L40.16,163.6030383750237L40.99666666666667,163.70084318970862L41.833333333333336,163.7969901706429L42.67,163.89150873205392L43.50666666666667,163.98442772322733L44.343333333333334,164.075775440757L45.18,164.16557964048488L46.016666666666666,164.25386754913984L46.85333333333333,164.34066587568486L47.69,164.42600082238025L48.526666666666664,164.50989809557245L49.36333333333334,164.59238291621546L50.2,164.6734800301329L51.03666666666667,164.7532137180286L51.873333333333335,164.83160780525242L52.71,164.90868567132856L53.54666666666667,164.98447025925324L54.38333333333333,165.0589840845681L55.22,165.13224924421561L56.056666666666665,165.20428742518317L56.89333333333333,165.2751199129408L57.73,165.3447675996793L58.56666666666667,165.41325099235354L59.403333333333336,165.4805902205368L60.24,165.5468050440912L61.07666666666667,165.611914860659L61.913333333333334,165.67593871298013L62.75,165.7388952960403L63.586666666666666,165.80080296405444L64.42333333333333,165.86167973728982L65.26,165.92154330873308L66.09666666666666,165.9804110506057L66.93333333333334,166.03830002073136L67.77,166.09522696875945L68.60666666666667,166.15120834224876L69.44333333333333,166.2062602926144L70.28,166.26039868094196L71.11666666666666,166.3136390836723L71.95333333333333,166.3659967981602L72.79,166.41748684811023L73.62666666666667,166.46812398889293L74.46333333333334,166.51792271274437L75.3,166.566897253852L76.13666666666667,166.61506159332998L76.97333333333333,166.66242946408616L77.81,166.7090143555841L78.64666666666666,166.7548295185023L79.48333333333333,166.79988796929354L80.32,166.84420249464637L81.15666666666667,166.88778565585167L81.99333333333334,166.93064979307633L82.83,166.97280702954612L83.66666666666667,167.01426927564077L84.50333333333333,167.0550482329022L85.34,167.09515539795916L86.17666666666666,167.13460206636955L87.01333333333334,167.17339933638263L87.85,167.2115581126232L88.68666666666667,167.24908910969933L89.52333333333334,167.2860028557356L90.36,167.32230969583355L91.19666666666667,167.3580197954614L92.03333333333333,167.39314314377378L92.87,167.42768955686455L93.70666666666666,167.46166868095264L94.54333333333334,167.4950899955039L95.38,167.52796281628952L96.21666666666667,167.5602962983827L97.05333333333333,167.59209943909542L97.89,167.62338108085578L98.72666666666667,167.65414991402844L99.56333333333333,167.68441447967828L100.4,167.71418317227938L101.23666666666666,167.74346424237024L102.07333333333334,167.7722657991565L102.91,167.80059581306227L103.74666666666667,167.82846211823124L104.58333333333333,167.85587241497882L105.42,167.88283427219613L106.25666666666666,167.90935512970725L107.09333333333333,167.93544230058055L107.93,167.96110297339476L108.76666666666667,167.98634421446172L109.60333333333334,168.01117297000576L110.44,168.03559606830112L111.27666666666667,168.0596202217683L112.11333333333333,168.08325202903035L112.95,168.1064979769293L113.78666666666666,168.12936444250477L114.62333333333333,168.15185769493417L115.46,168.17398389743664L116.29666666666667,168.19574910914025L117.13333333333334,168.21715928691444L117.97,168.23822028716737L118.80666666666667,168.2589378676098L119.64333333333333,168.27931768898543L120.48,168.299365316769L121.31666666666666,168.31908622283254L122.15333333333334,168.33848578708046L122.99,168.35756929905406L123.82666666666667,168.3763419595064L124.66333333333333,168.3948088819476L125.5,168.41297509416182L126.33666666666667,168.4308455396958L127.17333333333333,168.44842507932043L128.01,168.46571849246476L128.84666666666666,168.4827304786241L129.68333333333334,168.499465658742L130.52,168.51592857656706L131.35666666666665,168.53212369998485L132.19333333333333,168.54805542232538L133.03,168.56372806364695L133.86666666666667,168.5791458719965L134.70333333333335,168.59431302464705L135.54,168.60923362931277L136.37666666666667,168.62391172534194L137.21333333333334,168.63835128488856L138.05,168.6525562140624L138.88666666666666,168.66653035405886L139.72333333333333,168.6802774822681L140.56,168.69380131336436L141.39666666666668,168.70710550037575L142.23333333333332,168.720193635735L143.07,168.73306925231122L143.90666666666667,168.74573582442335L144.74333333333334,168.75819676883557L145.58,168.7704554457349L146.41666666666666,168.7825151596915L147.25333333333333,168.79437916060184L148.09,168.8060506446153L148.92666666666668,168.81753275504423L149.76333333333332,168.828828583258L150.6,168.83994116956111L151.43666666666667,168.8508735040562L152.27333333333334,168.86162852749132L153.11,168.87220913209282L153.94666666666666,168.8826181623833L154.78333333333333,168.89285841598524L155.62,168.90293264441075L156.45666666666668,168.9128435538373L157.29333333333332,168.92259380586995L158.13,168.93218601829028L158.96666666666667,168.94162276579235L159.80333333333334,168.95090658070566L160.64,168.96003995370577L161.47666666666666,168.9690253345123L162.31333333333333,168.97786513257515L163.15,168.98656171774837L163.98666666666668,168.995117420953L164.82333333333332,169.00353453482768L165.66,169.0118153143687L166.49666666666667,169.0199619775586L167.33333333333334,169.02797670598412L168.17,169.03586164544325L169.00666666666666,169.04361890654224L169.84333333333333,169.05125056528198L170.68,169.05875866363448L171.51666666666668,169.06614521010948L172.35333333333332,169.07341218031115L173.19,169.08056151748553L174.02666666666667,169.08759513305853L174.86333333333334,169.09451490716444L175.7,169.10132268916584L176.53666666666666,169.10802029816438L177.37333333333333,169.1146095235029L178.21,169.12109212525905L179.04666666666668,169.12746983473042L179.88333333333333,169.13374435491147L180.72,169.13991736096236L181.55666666666667,169.14599050066988L182.39333333333335,169.15196539490032L183.23,169.15784363804497L184.06666666666666,169.1636267984579L184.90333333333334,169.16931641888632L185.74,169.17491401689378L186.57666666666665,169.180421085276L187.41333333333333,169.18583909247L188.25,169.19116948295593L189.08666666666667,169.1964136776525L189.92333333333335,169.20157307430551L190.76,169.20664904786986L191.59666666666666,169.21164295088528L192.43333333333334,169.21655611384548L193.27,169.22138984556142L194.10666666666665,169.22614543351807L194.94333333333333,169.23082414422566L195.78,169.23542722356464L196.61666666666667,169.23995589712504L197.45333333333335,169.2444113705401L198.29,169.2487948298143L199.12666666666667,169.253107441646L199.96333333333334,169.2573503537445L200.8,169.2615246951419L201.63666666666666,169.26563157649989L202.47333333333333,169.26967209041112L203.31,169.27364731169575L204.14666666666668,169.27755829769302L204.98333333333332,169.2814060885479L205.82,169.285191707493L206.65666666666667,169.28891616112585L207.49333333333334,169.29258043968144L208.33,169.29618551730022L209.16666666666666,169.29973235229187L210.00333333333333,169.3032218873944L210.84,169.30665505002906L211.67666666666668,169.3100327525511L212.51333333333332,169.31335589249628L213.35,169.3166253528231L214.18666666666667,169.3198420021516L215.02333333333334,169.32300669499747L215.86,169.3261202720028L216.69666666666666,169.32918356016276L217.53333333333333,169.3321973730486L218.37,169.335162511027L219.20666666666668,169.33807976147577L220.04333333333332,169.3409498989959L220.88,169.34377368562016L221.71666666666667,169.34655187101836L222.55333333333334,169.34928519269897L223.39000000000001,169.35197437620778L224.22666666666666,169.35462013532282L225.06333333333333,169.35722317224648L225.9,169.35978417779424L226.73666666666668,169.36230383158028L227.57333333333332,169.3647828022002L228.41,169.36722174741053L229.24666666666667,169.3696213143054L230.08333333333334,169.3719821394903L230.92,169.37430484925295L231.75666666666666,169.37659005973126L232.59333333333333,169.37883837707878L233.43,169.38105039762723L234.26666666666668,169.38322670804632L235.10333333333332,169.38536788550118L235.94,169.38747449780695L236.77666666666667,169.38954710358095L237.61333333333334,169.3915862523924L238.45,169.3935924849095L239.28666666666666,169.39556633304437L240.12333333333333,169.3975083200953L240.96,169.39941896088706L241.79666666666668,169.40129876190838L242.63333333333333,169.40314822144762L243.47,169.4049678297262L244.30666666666667,169.40675806902942L245.14333333333335,169.40851941383576L245.98,169.41025233094345L246.81666666666666,169.41195727959544L247.65333333333334,169.41363471160201L248.49,169.41528507146162L249.32666666666665,169.41690879647953L250.16333333333333,169.41850631688476"></path></g><g transform="translate(1,20)"><text class="small" x="0" y="207">0</text><text class="small" x="0" y="136">0.5</text><text class="small" x="0" y="65">1</text><text class="small" x="0" y="-6">1.5</text></g></svg>